<?xml version="1.0" encoding="iso-8859-1"?>
<!-- Generator: Adobe Illustrator 19.0.0, SVG Export Plug-In . SVG Version: 6.00 Build 0)  -->
<svg version="1.1" id="Layer_1" xmlns="http://www.w3.org/2000/svg" xmlns:xlink="http://www.w3.org/1999/xlink" x="0px" y="0px"
	 viewBox="0 0 511.999 511.999" style="enable-background:new 0 0 511.999 511.999;" xml:space="preserve">
<rect x="286.643" y="8.17" style="fill:#82C8DB;" width="49.021" height="186.749"/>
<polygon style="fill:#A3DDE9;" points="129.677,32.352 64.259,59.449 145.02,254.424 198.881,199.424 "/>
<path style="fill:#82C8DB;" d="M286.649,155.234V503.83c96.263,0,174.298-78.035,174.298-174.298S382.911,155.234,286.649,155.234z"
	/>
<g>
	<path style="fill:#A3DDE9;" d="M286.649,155.234c-96.263,0-174.298,78.036-174.298,174.298S190.386,503.83,286.649,503.83
		c78.213,0,141.617-78.035,141.617-174.298S364.861,155.234,286.649,155.234z"/>
	<rect x="237.622" y="8.17" style="fill:#A3DDE9;" width="65.362" height="186.749"/>
</g>
<path style="fill:#146A8A;" d="M409.899,285.957h-30.813l-92.438,174.298c72.081,0,130.723-58.641,130.723-130.723
	C417.372,314.259,414.736,299.593,409.899,285.957z"/>
<path style="fill:#2089B0;" d="M379.086,285.957H163.398c-4.837,13.636-7.473,28.302-7.473,43.574
	c0,72.082,58.643,130.723,130.723,130.723c54.061,0,98.043-58.641,98.043-130.723C384.691,314.259,382.714,299.593,379.086,285.957z
	"/>
<path d="M430.388,219.163c-22.272-29.275-53.385-51.454-88.118-62.939V16.34h2.723c4.512,0,8.17-3.658,8.17-8.17
	S349.505,0,344.993,0h-119.83c-4.512,0-8.17,3.658-8.17,8.17s3.658,8.17,8.17,8.17h2.723v139.881
	c-11.623,3.832-22.823,8.829-33.448,14.921L138.782,36.774l2.516-1.043c4.169-1.727,6.148-6.507,4.422-10.675
	c-1.727-4.169-6.506-6.148-10.675-4.422L59.568,51.898c-0.002,0.001-0.003,0.001-0.005,0.002c-0.002,0.001-0.003,0.002-0.005,0.002
	l-10.059,4.167c-4.169,1.727-6.148,6.507-4.422,10.675c1.303,3.146,4.345,5.046,7.551,5.046c1.041,0,2.101-0.2,3.123-0.624
	l2.516-1.043l69.29,167.279c-16.333,27.875-24.946,59.636-24.946,92.128c0,100.613,81.855,182.468,182.468,182.468
	s182.468-81.855,182.468-182.468C467.547,289.281,454.698,251.116,430.388,219.163z M285.079,495.66
	c-91.603,0-166.128-74.524-166.128-166.128c0-30.87,8.535-61.009,24.683-87.155c1.379-2.233,1.601-4.994,0.597-7.42L73.364,63.87
	l50.322-20.844l59.308,143.182c0.928,2.241,2.803,3.952,5.119,4.673c0.795,0.247,1.614,0.369,2.429,0.369
	c1.558,0,3.101-0.446,4.438-1.311c13.443-8.695,28.035-15.38,43.371-19.867c3.483-1.019,5.876-4.213,5.876-7.841V16.34h81.702
	v145.894c0,3.629,2.393,6.823,5.876,7.841c70.301,20.566,119.401,86.137,119.401,159.455
	C451.206,421.135,376.682,495.66,285.079,495.66z"/>
<path d="M402.415,294.128c3.463,11.445,5.217,23.329,5.217,35.404c0,4.512,3.658,8.17,8.17,8.17c4.512,0,8.17-3.658,8.17-8.17
	c0-15.867-2.672-31.445-7.943-46.305c-1.157-3.26-4.241-5.439-7.701-5.439H161.828c-3.459,0-6.544,2.179-7.7,5.439
	c-5.271,14.859-7.944,30.439-7.944,46.305c0,76.587,62.307,138.894,138.894,138.894c63.346,0,118.653-42.836,134.498-104.169
	c1.129-4.369-1.498-8.826-5.867-9.955c-4.372-1.129-8.826,1.497-9.955,5.867c-13.98,54.118-62.781,91.916-118.676,91.916
	c-67.576,0-122.553-54.977-122.553-122.553c0-12.076,1.753-23.959,5.216-35.404H402.415z"/>
<g>
</g>
<g>
</g>
<g>
</g>
<g>
</g>
<g>
</g>
<g>
</g>
<g>
</g>
<g>
</g>
<g>
</g>
<g>
</g>
<g>
</g>
<g>
</g>
<g>
</g>
<g>
</g>
<g>
</g>
</svg>
