<?xml version="1.0" encoding="utf-8"?>
<!-- Generator: Adobe Illustrator 26.3.1, SVG Export Plug-In . SVG Version: 6.00 Build 0)  -->
<svg version="1.1" id="Layer_1" xmlns="http://www.w3.org/2000/svg" xmlns:xlink="http://www.w3.org/1999/xlink" x="0px"
	y="0px" viewBox="0 0 780 565.89" style="enable-background:new 0 0 780 565.89;" xml:space="preserve">
	<style type="text/css">
		.st0 {
			fill: rgba(96, 96, 96, 0);
			stroke: rgba(73, 73, 73, 0);
			stroke-width: 2;
			stroke-miterlimit: 10;
		}

		.st1 {
			fill: #FFFFFF;
		}

		.st2 {
			fill: #E5E5E5;
		}

		.st3 {
			fill: #777777;
		}

		.st4 {
			fill: #C1C1C1;
		}

		.st5 {
			fill: none;
			stroke: #FFFFFF;
			stroke-width: 0.5;
			stroke-miterlimit: 10;
		}

		.st6 {
			fill: #D8D8D8;
		}

		.st7 {
			fill: #EDEDED;
		}

		.st8 {
			opacity: 0.25;
			clip-path: url(#SVGID_00000139278466271239889490000009740940204781327528_);
		}

		.st9 {
			opacity: 0.57;
			fill: #10A181;
		}

		.st10 {
			opacity: 0.57;
			fill: #DE3C4B;
		}

		.st11 {
			opacity: 0.57;
			fill: #1A72AD;
		}

		.st12 {
			fill: #FFC800;
		}

		.st13 {
			fill: none;
			stroke: #898989;
			stroke-width: 0.5;
			stroke-miterlimit: 10;
		}

		.st14 {
			fill: #F5F5F5;
		}

		.st15 {
			fill: #606060;
		}

		.st16 {
			opacity: 0.5;
			fill: #FFFFFF;
		}

		.st17 {
			fill: #444444;
		}

		.st18 {
			fill: none;
			stroke: #FFFFFF;
			stroke-width: 2;
			stroke-linecap: round;
			stroke-linejoin: round;
			stroke-miterlimit: 10;
		}

		.st19 {
			clip-path: url(#SVGID_00000049926498177325952040000013290356941357053863_);
			fill: #FFC800;
		}

		.st20 {
			clip-path: url(#SVGID_00000049926498177325952040000013290356941357053863_);
		}

		.st21 {
			fill: #DBDBDB;
		}

		.st22 {
			fill: none;
			stroke: #6B6B6B;
			stroke-width: 0.75;
			stroke-miterlimit: 10;
		}

		.st23 {
			clip-path: url(#SVGID_00000052815905113765724300000016330492900214442431_);
			fill: #FFC800;
		}

		.st24 {
			fill: #3F3F3F;
		}

		.st25 {
			fill: #474747;
		}

		.st26 {
			fill: #7A7A7A;
		}

		.st27 {
			fill: #FFB000;
		}

		.st28 {
			fill: none;
			stroke: #BCBCBC;
			stroke-miterlimit: 10;
		}

		.st29 {
			fill: #FFCE31;
		}

		.st30 {
			fill: #A8A8A8;
		}

		.st31 {
			fill: #4F4F4F;
		}

		.st32 {
			fill: #8F8F8F;
		}

		.st33 {
			fill: #8A8A8A;
		}

		.st34 {
			fill: none;
			stroke: #8A8A8A;
			stroke-width: 7.5904;
			stroke-miterlimit: 10;
		}

		.st35 {
			fill: none;
			stroke: #8A8A8A;
			stroke-width: 6.8313;
			stroke-miterlimit: 10;
		}

		.st36 {
			fill: none;
			stroke: #FFC800;
			stroke-width: 6.0723;
			stroke-miterlimit: 10;
		}

		.st37 {
			fill: none;
			stroke: #8A8A8A;
			stroke-width: 6.0723;
			stroke-miterlimit: 10;
		}

		.st38 {
			fill: none;
			stroke: #606060;
			stroke-miterlimit: 10;
		}

		.st39 {
			fill: #F4F4F4;
		}

		.st40 {
			fill: #E8E8E8;
		}

		.st41 {
			fill: #6CA3EA;
		}

		.st42 {
			fill: #657283;
		}

		.st43 {
			fill: #B5BFC7;
		}

		.st44 {
			fill: #FCB900;
		}

		.st45 {
			fill: #131F2D;
		}

		.st46 {
			fill: #364154;
		}

		.st47 {
			fill: #FDAB95;
		}

		.st48 {
			fill: #ED7B61;
		}

		.st49 {
			fill: #A88F02;
		}

		.st50 {
			fill: #4B9BA9;
		}

		.st51 {
			fill: #B53C37;
		}

		.st52 {
			fill: #99AEF9;
		}

		.st53 {
			fill: #F3F3F3;
		}

		.st54 {
			opacity: 0.3;
		}

		.st55 {
			fill: #B1B1B1;
		}

		.st56 {
			fill: #CFCFCF;
		}

		.st57 {
			fill: #333333;
		}

		.st58 {
			fill: #C6C6C6;
		}

		.st59 {
			opacity: 0.53;
		}

		.st60 {
			clip-path: url(#SVGID_00000110435518217344044850000017733073856482939808_);
			fill: #FCB900;
		}

		.st61 {
			clip-path: url(#SVGID_00000096774306161921670540000008294397737090554528_);
			fill: #FCB900;
		}

		.st62 {
			clip-path: url(#SVGID_00000054957073347937302190000016318075067528449175_);
			fill: #FCB900;
		}

		.st63 {
			opacity: 0.44;
			fill: #FFFFFF;
		}

		.st64 {
			opacity: 0.48;
		}

		.st65 {
			fill: url(#SVGID_00000031909653382774396850000008386414317870540168_);
		}

		.st66 {
			fill: #91B3FA;
		}

		.st67 {
			fill: url(#SVGID_00000072258122696774950830000008931061497899404181_);
		}

		.st68 {
			opacity: 0.91;
			fill: #FFFFFF;
		}

		.st69 {
			fill: url(#SVGID_00000003793836716143251690000005553150730994181051_);
		}

		.st70 {
			fill: url(#SVGID_00000105421263422402865970000007336571231769072048_);
		}

		.st71 {
			fill: url(#SVGID_00000093171650050107480190000001024728431635018418_);
		}

		.st72 {
			fill: #828282;
		}

		.st73 {
			fill: #EF9D8E;
		}

		.st74 {
			fill: #999999;
		}

		.st75 {
			fill: url(#SVGID_00000088092005056541332670000009319470943664363414_);
		}

		.st76 {
			fill: #252E3A;
		}

		.st77 {
			fill: url(#SVGID_00000029023195441432094400000001425821278346354366_);
		}

		.st78 {
			fill: url(#SVGID_00000038409358176745143230000014773282822565250731_);
		}

		.st79 {
			fill: url(#SVGID_00000150806630850548766610000012289214039063615935_);
		}

		.st80 {
			fill: #BDD0FB;
		}

		.st81 {
			fill: url(#SVGID_00000070807420461242753840000007929329498619452095_);
		}

		.st82 {
			fill: url(#SVGID_00000043452983272469807490000015973746226824707510_);
		}

		.st83 {
			fill: url(#SVGID_00000013898145086891043130000013052559018434048136_);
		}

		.st84 {
			fill: url(#SVGID_00000168104713383039085010000013417446013839445181_);
		}

		.st85 {
			fill: #1E1E1E;
		}

		.st86 {
			fill: #B7B7B7;
		}

		.st87 {
			fill: #EEF2FF;
		}

		.st88 {
			opacity: 0.8;
			fill: #FFFFFF;
		}

		.st89 {
			opacity: 0.37;
			fill: #FFFFFF;
		}

		.st90 {
			fill: url(#SVGID_00000027601631492959406110000012700709134839429506_);
		}

		.st91 {
			fill: url(#SVGID_00000063605533162629012550000017680785627621532083_);
		}

		.st92 {
			fill: url(#SVGID_00000168101701196765583370000015319849656816288416_);
		}

		.st93 {
			fill: url(#SVGID_00000162341827557497255730000006911455499394654129_);
		}

		.st94 {
			fill: url(#SVGID_00000158004959953115166320000015415687335027799992_);
		}

		.st95 {
			fill: url(#SVGID_00000089568964149731196480000009419511312843758746_);
		}

		.st96 {
			fill: url(#SVGID_00000160172710465465718420000005159167342312683937_);
		}

		.st97 {
			fill: url(#SVGID_00000116214178216090244140000012982723857732079263_);
		}

		.st98 {
			fill: url(#SVGID_00000065780531555902045410000010173385697497265067_);
		}

		.st99 {
			fill: url(#SVGID_00000094596436521544958190000017310831144625869231_);
		}

		.st100 {
			fill: url(#SVGID_00000011025810683537886170000000135445952578883219_);
		}

		.st101 {
			fill: url(#SVGID_00000178176807094342400790000003764445830388014260_);
		}

		.st102 {
			fill: url(#SVGID_00000180349244762858296760000011428992846616158900_);
		}

		.st103 {
			fill: url(#SVGID_00000082369074011137833080000007692087184233667255_);
		}

		.st104 {
			fill: url(#SVGID_00000089573659771647344320000013206284566478244780_);
		}

		.st105 {
			fill: url(#SVGID_00000031190142858069554970000015880733119235676054_);
		}

		.st106 {
			fill: url(#SVGID_00000178917406114754333230000017560868691246856328_);
		}

		.st107 {
			fill: url(#SVGID_00000014623771095159016030000008550376016653605760_);
		}

		.st108 {
			fill: url(#SVGID_00000054969586359549984780000007672157255000340920_);
		}

		.st109 {
			fill: url(#SVGID_00000176722471532731287440000006016480159245577389_);
		}

		.st110 {
			fill: url(#SVGID_00000178916585425161289720000000212887388229678983_);
		}

		.st111 {
			fill: url(#SVGID_00000041283058468865477650000008132464973154570163_);
		}

		.st112 {
			fill: url(#SVGID_00000080173421042462639930000001461069055804902787_);
		}

		.st113 {
			fill: url(#SVGID_00000036964221128992313850000001288243861540787858_);
		}

		.st114 {
			fill: url(#SVGID_00000031166783715695720180000008536689605100763578_);
		}

		.st115 {
			fill: url(#SVGID_00000000202807846984803840000010750560782960298128_);
		}

		.st116 {
			fill: url(#SVGID_00000116229227306494179450000003055783870674392996_);
		}

		.st117 {
			fill: url(#SVGID_00000164502108297331697380000009559697470828189119_);
		}

		.st118 {
			fill: url(#SVGID_00000011750114934315895290000005314559148465977225_);
		}

		.st119 {
			fill: url(#SVGID_00000116937143856212606090000011121532592755594147_);
		}

		.st120 {
			fill: url(#SVGID_00000174595246518938775990000000224257017977148553_);
		}

		.st121 {
			fill: url(#SVGID_00000127026914973407322660000012674576274220979342_);
		}

		.st122 {
			fill: url(#SVGID_00000168795135120250288990000011348059009478313135_);
		}

		.st123 {
			fill: url(#SVGID_00000160165439672805298310000002515151420912637090_);
		}

		.st124 {
			fill: url(#SVGID_00000060727155783540607630000003764829493825138063_);
		}

		.st125 {
			fill: #E2A100;
		}

		.st126 {
			opacity: 0.72;
			fill: #FFFFFF;
		}

		.st127 {
			fill: url(#SVGID_00000063601322452089992030000012487040225241396104_);
		}

		.st128 {
			fill: url(#SVGID_00000178183498825417065990000001148681142665531825_);
		}

		.st129 {
			opacity: 0.9;
		}

		.st130 {
			fill-rule: evenodd;
			clip-rule: evenodd;
			fill: #FFFFFF;
		}

		.st131 {
			fill: url(#SVGID_00000078006594781343101310000010711171443325829260_);
		}

		.st132 {
			fill: url(#SVGID_00000080193079793443434240000014153851142052834209_);
		}

		.st133 {
			fill: url(#SVGID_00000025426059193913076630000002868234371475352723_);
		}

		.st134 {
			fill: url(#SVGID_00000009568172556563372670000008026598699314307995_);
		}

		.st135 {
			fill: url(#SVGID_00000052062939362716844820000004609885233509726374_);
		}

		.st136 {
			fill: url(#SVGID_00000031899222547931262550000005391345224002558866_);
		}

		.st137 {
			fill: url(#SVGID_00000107571534943225442890000017762085963224709509_);
		}

		.st138 {
			fill: url(#SVGID_00000125572949872829520310000009583774783845440903_);
		}

		.st139 {
			fill: #D89A00;
		}

		.st140 {
			fill: url(#SVGID_00000140693648075754601260000010674452698417312931_);
		}

		.st141 {
			fill: #AAAAAA;
		}

		.st142 {
			fill-rule: evenodd;
			clip-rule: evenodd;
			fill: #4F4F4F;
		}

		.st143 {
			fill: none;
			stroke: #AAAAAA;
			stroke-miterlimit: 10;
		}

		.st144 {
			fill: #FFCE31;
			stroke: #919191;
			stroke-miterlimit: 10;
		}

		.st145 {
			fill: #BCBCBC;
		}

		.st146 {
			fill: none;
			stroke: #474747;
			stroke-miterlimit: 10;
		}

		.st147 {
			fill: none;
			stroke: #919191;
			stroke-width: 0.75;
			stroke-miterlimit: 10;
		}

		.st148 {
			fill: #919191;
		}
	</style>
	<rect x="-11779.83" y="-5563.33" class="st0" width="16383" height="16383" />
	<g>
		<g>
			<path class="st40" d="M571.21,43.67c44.38,51.56,198.4-5.72,196.78,89.35c-1.9,111.32-153.26,144.07-104.25,222.3
			c49.01,78.24-5.11,165.93-202.07,164.28C264.7,517.94-52.15,419.75,24.18,313.11c76.33-106.65,25.48-112.12,21.75-159.25
			c-3.72-47.13,34.89-150.52,187.44-64.3S458.82-86.91,571.21,43.67z" />
			<g>
				<g>

					<ellipse transform="matrix(0.7071 -0.7071 0.7071 0.7071 5.1126 488.909)" class="st55" cx="592.72"
						cy="238.28" rx="125.08" ry="125.08" />

					<ellipse transform="matrix(0.7071 -0.7071 0.7071 0.7071 5.1126 488.909)" class="st74" cx="592.72"
						cy="238.28" rx="120.92" ry="120.92" />

					<ellipse transform="matrix(0.7071 -0.7071 0.7071 0.7071 4.0214 491.5436)" class="st40" cx="595.36"
						cy="240.92" rx="102.34" ry="102.34" />
				</g>
				<g>

					<ellipse transform="matrix(0.7071 -0.7071 0.7071 0.7071 -116.0339 196.4353)" class="st55" cx="179.1"
						cy="238.28" rx="125.08" ry="125.08" />
					<circle class="st74" cx="179.1" cy="238.28" r="120.92" />
					<path class="st56" d="M67.64,233.15c-0.01,0-0.03,0-0.05,0c-0.47-0.02-0.82-0.42-0.8-0.89c0.25-4.73,0.8-9.48,1.64-14.13
					c0.08-0.46,0.52-0.76,0.98-0.68c0.46,0.08,0.76,0.52,0.68,0.98c-0.83,4.57-1.37,9.25-1.62,13.91
					C68.46,232.8,68.08,233.15,67.64,233.15z" />
					<path class="st56" d="M79.42,188.85c-0.13,0-0.26-0.03-0.38-0.09c-0.42-0.21-0.58-0.72-0.37-1.13
					c9.25-18.3,23.33-33.75,40.73-44.67c17.86-11.21,38.51-17.14,59.7-17.14c0.02,0,0.04,0,0.06,0c6.82,0,13.64,0.62,20.29,1.84
					c0.46,0.08,0.76,0.52,0.68,0.98c-0.08,0.46-0.52,0.76-0.98,0.68c-6.55-1.2-13.27-1.8-19.98-1.81c-0.02,0-0.04,0-0.06,0
					c-20.88,0-41.21,5.84-58.81,16.88c-17.14,10.76-31.01,25.97-40.12,44C80.02,188.68,79.73,188.85,79.42,188.85z" />

					<ellipse transform="matrix(0.7071 -0.7071 0.7071 0.7071 -117.1265 199.0694)" class="st40"
						cx="181.73" cy="240.92" rx="102.34" ry="102.34" />
				</g>
				<g>

					<linearGradient id="SVGID_00000068676696116686989310000001793886886911881365_"
						gradientUnits="userSpaceOnUse" x1="394.9751" y1="240.0632" x2="383.7016" y2="202.8804">
						<stop offset="0" style="stop-color:#A22B25" />
						<stop offset="1" style="stop-color:#C0423C" />
					</linearGradient>
					<path style="fill:url(#SVGID_00000068676696116686989310000001793886886911881365_);" d="M377.15,223.73
					c0,0-4.84-12.73-10.49-11.57c-5.65,1.17-11.83,5.51-11.83,5.51l-9.08,12.27c0,0,25.48,10.04,34.44,4.28c0,0,26.02,4.5,58.89-0.9
					c-4.76-10.04-7.59-20.1-9.26-27.9C413.18,214.85,395.25,221.88,377.15,223.73z" />
					<path class="st44" d="M515,131.37c0,0-37.26,46.93-85.18,74.05c1.66,7.81,4.5,17.86,9.26,27.9
					c24.86-4.08,53.63-13.81,78.01-35.44L515,131.37z" />
				</g>
				<g>
					<path class="st46" d="M239.35,231.36c24.62-29.31,34.07-60.59,4.73-90.69c-29.34-30.1-52.89-14.56-52.89-14.56
					c-65.52,39.9-73.08,148.57-73.2,194.87c17.47,13.93,39.61,22.26,63.69,22.28c3.96,0,7.87-0.23,11.71-0.67
					C191.63,311.85,216.33,258.77,239.35,231.36z" />
				</g>
				<path class="st73"
					d="M233.64,81.19c-0.02,1.97-28.07,41.8-28.07,41.8s5.03,9.91,29.07,17.96l20.74-42.65L233.64,81.19z" />
				<path class="st47" d="M222.61,217.95c0,0,53.21,44.56,110.67,25.12c3.56-1.21,7.46-0.94,10.79,0.81l16.52,8.72
				c6.93,3.66,15.52,1.26,19.54-5.47c2.29-3.84,4.25-8.22,4.64-12.42l-32.32-13.08l2.38-3.96c0,0-15.78-1.34-19.91,9.97
				c0,0-30.06,12.5-80.75-43.25C254.17,184.39,231.17,203.94,222.61,217.95z" />
				<path class="st76" d="M219.75,217.76c-0.23,0-0.46-0.07-0.66-0.2c-22.47-15.18-33.04-39.69-33.14-39.93
				c-0.25-0.6,0.03-1.29,0.62-1.54c0.6-0.26,1.29,0.03,1.54,0.62c0.1,0.24,10.42,24.12,32.29,38.9c0.54,0.36,0.68,1.1,0.32,1.63
				C220.5,217.58,220.13,217.76,219.75,217.76z" />
				<path class="st76" d="M253.12,183.9c-0.39,0-0.77-0.19-0.99-0.54c-0.07-0.11-6.92-10.77-19.96-34.12
				c-3.97-7.11-9.18-11.61-15.49-13.38c-10.46-2.93-20.56,2.69-20.66,2.74c-0.57,0.32-1.28,0.12-1.6-0.44
				c-0.32-0.56-0.12-1.28,0.44-1.6c0.44-0.25,11.02-6.16,22.43-2.97c6.94,1.94,12.64,6.82,16.94,14.51
				c13,23.29,19.81,33.89,19.88,33.99c0.35,0.55,0.19,1.28-0.35,1.63C253.56,183.84,253.34,183.9,253.12,183.9z" />
				<g>
					<path class="st47" d="M255.72,58.36c0,0,9.98,22.92,10.65,34.96c0.67,12.03,3.26,19.84-10.65,22.26
					c-13.91,2.42-25.63-4.51-31.98-16.49c0,0-9.95-18.47-7.72-26.03C218.26,65.49,255.72,58.36,255.72,58.36z" />
					<path class="st45" d="M228.5,90.47l0.79-0.35c1.01-0.44,1.44-1.64,0.93-2.62c-1.96-3.79-5.79-12.48-0.85-14.5
					c6.37-2.61,31.59-7.75,37.03-16.7c5.23-8.6,0.6-19.7-6.37-22.86c-0.47-0.21-1.02-0.04-1.25,0.41l-0.58,1.1
					c-0.4,0.75-1.51,0.64-1.74-0.18l0,0c-0.23-0.78-1.27-0.94-1.7-0.24c-1.67,2.68-6.19,7.02-18.26,9.25
					c-17.16,3.17-28.51,10.11-28.79,21.97c-0.02,0.75-0.82,1.17-1.46,0.78c-1.27-0.77-3.3-1.13-6.01,1.14
					c-4.71,3.96-2.78,14.24,7.55,22.7c0.49,0.4,0.49,1.17-0.04,1.51c-1.87,1.22-4.67,4.12,2.57,7.99c7.48,4,13.07,3.67,15.22,3.32
					c0.54-0.09,0.88-0.61,0.76-1.14L224,91.62c-0.13-0.59,0.32-1.15,0.92-1.15H228.5z" />

					<linearGradient id="SVGID_00000029761475018943592970000007111142772272980359_"
						gradientUnits="userSpaceOnUse" x1="197.299" y1="29.3801" x2="220.5636" y2="84.8047">
						<stop offset="0" style="stop-color:#FF928E" />
						<stop offset="1" style="stop-color:#FEB3B1" />
					</linearGradient>
					<path style="fill:url(#SVGID_00000029761475018943592970000007111142772272980359_);" d="M228.93,92.67
					c0,0-3.81-14.64-10.37-10.54c-6.57,4.11,3.41,16.41,8.68,16.96L228.93,92.67z" />
				</g>

				<linearGradient id="SVGID_00000103264531998734172410000007815066697427502000_"
					gradientUnits="userSpaceOnUse" x1="357.976" y1="252.2349" x2="351.7309" y2="231.6371">
					<stop offset="0" style="stop-color:#A22B25" />
					<stop offset="1" style="stop-color:#C0423C" />
				</linearGradient>
				<path style="fill:url(#SVGID_00000103264531998734172410000007815066697427502000_);" d="M344.07,243.89
				c0,0,13.52,13.23,16.13,11.3c0.93-0.69,3.27-3.17,5.54-5.94c1.6-1.96,1.77-4.72,0.39-6.84l-3.19-4.92
				c-3.04-4.69-9.55-5.67-13.76-2C347.06,237.33,345.13,240.01,344.07,243.89z" />
				<path class="st44" d="M614.98,130.7c-52.56-15.37-99.98,0.68-99.98,0.68l-3.78,24.45c-3.37,21.77,0.47,44.11,11.28,63.3
				c29.19,51.84,33.78,102.29,34.51,116.7c11.85,4.79,24.79,7.43,38.35,7.43c18.16,0,35.22-4.73,50-13.03
				C679.33,193.55,614.98,130.7,614.98,130.7z" />

				<linearGradient id="SVGID_00000036943451717601161040000005264487899772666752_"
					gradientUnits="userSpaceOnUse" x1="554.7386" y1="129.3364" x2="542.7867" y2="89.9162">
					<stop offset="0" style="stop-color:#A22B25" />
					<stop offset="1" style="stop-color:#C0423C" />
				</linearGradient>
				<path style="fill:url(#SVGID_00000036943451717601161040000005264487899772666752_);"
					d="M523.08,100.17l12.3,29.54
				c0.78,1.87,2.46,3.2,4.45,3.54c7.09,1.22,24.23,3.11,35.49-4.29c1.34-0.88,1.68-2.71,0.77-4.02l-22.72-32.61L523.08,100.17z" />
				<g>
					<path class="st80" d="M544.77,241.34c-1.69,0.45-2.53,2.35-1.72,3.9l35.57,68.2c0.6,1.15,1.93,1.72,3.18,1.36l116.35-33.59
					c1.45-0.42,2.28-1.93,1.87-3.38l-20.04-69.38c-0.41-1.42-1.88-2.26-3.32-1.88L544.77,241.34z" />
					<path class="st66" d="M552.27,233.32c-1.67,0.4-2.61,2.16-2.02,3.77l28.47,77.34c0.52,1.41,2.03,2.17,3.47,1.76l116-33.49
					c1.44-0.42,2.32-1.88,2-3.35l-16.08-74.44c-0.34-1.57-1.9-2.55-3.46-2.18L552.27,233.32z" />
					<path class="st46" d="M562.37,225.52c-2.03,0.31-3.37,2.28-2.91,4.29l19.34,83.5c0.46,1.97,2.48,3.16,4.42,2.6l114.24-32.98
					c1.84-0.53,2.92-2.42,2.44-4.28l-17.57-68.16c-0.45-1.75-2.16-2.88-3.95-2.61L562.37,225.52z" />
				</g>
				<path class="st44" d="M663.49,255c8.87-66.98-42.75-118.48-42.75-118.48l-5.76-5.82l-24.95,41.63
				c23.32,29.06,34.4,55.69,39.46,76.61C636.2,246.98,652.37,243.89,663.49,255z" />

				<linearGradient id="SVGID_00000145774692565340995370000018075343237640229292_"
					gradientUnits="userSpaceOnUse" x1="577.7489" y1="193.5879" x2="641.766" y2="227.6689">
					<stop offset="0" style="stop-color:#E1473D" />
					<stop offset="1" style="stop-color:#E9605A" />
				</linearGradient>
				<path style="fill:url(#SVGID_00000145774692565340995370000018075343237640229292_);" d="M629.49,249.78
				c-0.38,0-0.73-0.26-0.82-0.65c-6.28-25.94-19.5-51.6-39.3-76.28c-0.29-0.36-0.23-0.89,0.13-1.19c0.36-0.29,0.89-0.23,1.19,0.13
				c19.96,24.87,33.29,50.76,39.62,76.94c0.11,0.45-0.17,0.91-0.62,1.02C629.62,249.77,629.55,249.78,629.49,249.78z" />

				<linearGradient id="SVGID_00000067222077906328554400000010155059055439931798_"
					gradientUnits="userSpaceOnUse" x1="637.9644" y1="306.8853" x2="619.3059" y2="245.345">
					<stop offset="0" style="stop-color:#A22B25" />
					<stop offset="1" style="stop-color:#C0423C" />
				</linearGradient>
				<path style="fill:url(#SVGID_00000067222077906328554400000010155059055439931798_);" d="M629.49,248.93
				c4.71,19.44,4.21,33.95,3.5,40.87c-0.27,2.61-2.37,4.65-4.99,4.83c-2.97,0.21-7.02,0.48-10.64,0.69
				c-3.98,0.23-8.39-2.28-11.34-4.38c-1.51-1.07-3.46,0.6-2.61,2.24c2.2,4.31,7.79,8.15,11.65,10.4c1.4,0.82,1.14,2.92-0.42,3.36
				l-16.48,4.67c27.08,25.51,44.95-3.03,44.95-3.03c11.95-18.47,18.13-36.53,20.39-53.58C652.37,243.89,636.2,246.98,629.49,248.93z
				" />
				<g>

					<linearGradient id="SVGID_00000094608327891851275140000009343212105828936064_"
						gradientUnits="userSpaceOnUse" x1="-7329.5679" y1="-5007.6392" x2="-7345.083" y2="-5058.812"
						gradientTransform="matrix(-0.7552 -0.6555 -0.6555 0.7552 -8297.7246 -927.9472)">
						<stop offset="0" style="stop-color:#A22B25" />
						<stop offset="1" style="stop-color:#C0423C" />
					</linearGradient>
					<path style="fill:url(#SVGID_00000094608327891851275140000009343212105828936064_);" d="M532.34,57.67
					c-0.47,0.54-17.7,44.94-17.7,44.94l25.56,9.3l22.58-39.65C562.78,72.25,540.25,48.56,532.34,57.67z" />
					<path class="st1" d="M552.1,74.37c0.55,1.08,0.57,2.35,0.05,3.44L542.05,99.3c-0.15,0.33-0.34,0.63-0.58,0.9
					c-1.31,1.49-5.86,5.91-10.23,0.96c-3.72-4.22-7.2-8.04-10.65-9.41c-2.02-0.8-4.29,0.23-5.07,2.26
					c-1.6,4.17-4.66,12.65-6.32,20.57c-0.42,1.98,0.78,3.95,2.73,4.52c5.14,1.5,15.25,4.13,24.03,4.45
					c1.44,0.05,2.79-0.69,3.52-1.93c3.21-5.48,12.26-20.79,15.48-24.72c2.99-3.65,9.26-3.02,12.11-2.51
					c1.08,0.2,2.18-0.06,3.06-0.72c2.64-1.97,7.11-6.68,1.91-13.36c-1.29-1.66-0.96-4.08,0.67-5.41c2.93-2.38,5.94-6.59,2.06-12.53
					c-3.92-6.01-9.84-5.99-13.78-5.1c-1.74,0.39-3.63-0.35-4.47-1.93c-0.38-0.7-1.03-1.26-2.17-1.38
					c-5.75-0.57-2.18-7.59-4.05-10.87c-2.63-4.59-8.42-1.39-11.21,1.5c-1.54,1.61-2.88,3.41-4.49,4.95
					c-2.52,2.41-5.71,4.12-9.12,4.89c-0.52,0.12-1.08,0.23-1.47,0.59c-0.56,0.52-0.62,1.41-0.33,2.12c0.29,0.7,0.85,1.26,1.4,1.78
					c4.58,4.26,10.1,6.54,16.43,6.7C547.01,65.76,550.59,71.39,552.1,74.37z" />

					<linearGradient id="SVGID_00000098203278449994718830000008485454605292534418_"
						gradientUnits="userSpaceOnUse" x1="-7359.9038" y1="-5023.1147" x2="-7365.3687" y2="-5041.1396"
						gradientTransform="matrix(-0.7552 -0.6555 -0.6555 0.7552 -8297.7246 -927.9472)">
						<stop offset="0" style="stop-color:#A22B25" />
						<stop offset="1" style="stop-color:#C0423C" />
					</linearGradient>
					<path style="fill:url(#SVGID_00000098203278449994718830000008485454605292534418_);" d="M550.11,104
					c0,0,4.32-13.36,10.36-13.47c6.04-0.1,11.35,5.38,4.61,12.83C556.69,112.64,550.11,104,550.11,104z" />
				</g>
				<path class="st44"
					d="M524.54,53.72c22.93-38.66,75.62,0.02,48.67,32.22C554.97,72.51,534.59,52.85,524.54,53.72z" />
				<path class="st44" d="M556.53,72.12l-37.66-2.99c-0.96-0.08-1.81-0.65-2.23-1.51c-3.08-6.27-7.84-10.39-13.92-12.83
				c-0.77-0.31-0.55-1.45,0.28-1.47l23.2-0.45c0.03,0,0.05,0,0.08,0c11.48,1.44,21.35,8.87,30.64,18.43
				C557.23,71.62,556.97,72.16,556.53,72.12z" />
			</g>
			<path class="st1" d="M551.8,435.44c-0.14,0-0.28-0.04-0.41-0.11c-0.73-0.41-1.46-0.82-2.2-1.21c-0.41-0.22-0.56-0.73-0.34-1.14
			c0.22-0.41,0.73-0.56,1.14-0.34c0.75,0.4,1.49,0.81,2.23,1.23c0.41,0.23,0.55,0.74,0.32,1.15
			C552.38,435.29,552.1,435.44,551.8,435.44z M544.33,431.53c-0.12,0-0.25-0.03-0.37-0.08c-0.76-0.37-1.51-0.72-2.27-1.08
			c-0.42-0.2-0.61-0.7-0.41-1.12c0.2-0.42,0.7-0.61,1.12-0.41c0.77,0.36,1.54,0.72,2.3,1.09c0.42,0.2,0.59,0.71,0.39,1.13
			C544.94,431.36,544.64,431.53,544.33,431.53z M419.37,430.95c-0.31,0-0.62-0.18-0.76-0.48c-0.2-0.42-0.02-0.92,0.4-1.13
			c0.77-0.37,1.54-0.73,2.31-1.08c0.42-0.19,0.92-0.01,1.12,0.42c0.19,0.42,0.01,0.92-0.42,1.12c-0.76,0.35-1.52,0.7-2.28,1.07
			C419.62,430.93,419.49,430.95,419.37,430.95z M536.62,428.09c-0.11,0-0.22-0.02-0.32-0.06c-0.78-0.32-1.55-0.63-2.34-0.94
			c-0.43-0.17-0.65-0.66-0.48-1.09c0.17-0.43,0.66-0.65,1.09-0.48c0.79,0.31,1.58,0.62,2.36,0.95c0.43,0.18,0.64,0.67,0.46,1.1
			C537.27,427.89,536.95,428.09,536.62,428.09z M427.09,427.55c-0.33,0-0.65-0.2-0.78-0.53c-0.17-0.43,0.03-0.92,0.47-1.1
			c0.79-0.32,1.58-0.63,2.37-0.93c0.43-0.17,0.92,0.05,1.09,0.49c0.17,0.44-0.05,0.92-0.49,1.09c-0.78,0.3-1.56,0.61-2.34,0.92
			C427.3,427.53,427.2,427.55,427.09,427.55z M528.72,425.11c-0.09,0-0.18-0.01-0.27-0.05c-0.79-0.27-1.59-0.54-2.39-0.8
			c-0.44-0.14-0.69-0.62-0.54-1.06c0.14-0.44,0.62-0.69,1.06-0.54c0.81,0.26,1.61,0.53,2.42,0.8c0.44,0.15,0.68,0.63,0.52,1.07
			C529.4,424.89,529.08,425.11,528.72,425.11z M435.01,424.63c-0.35,0-0.68-0.22-0.8-0.58c-0.15-0.44,0.09-0.92,0.53-1.07
			c0.81-0.27,1.61-0.53,2.42-0.79c0.44-0.14,0.92,0.11,1.06,0.55c0.14,0.44-0.11,0.92-0.55,1.06c-0.8,0.25-1.6,0.51-2.39,0.78
			C435.19,424.61,435.1,424.63,435.01,424.63z M520.66,422.61c-0.07,0-0.15-0.01-0.23-0.03c-0.81-0.23-1.62-0.44-2.43-0.65
			c-0.45-0.12-0.72-0.58-0.6-1.03c0.12-0.45,0.58-0.72,1.03-0.6c0.82,0.21,1.64,0.43,2.46,0.66c0.45,0.13,0.71,0.59,0.59,1.04
			C521.37,422.37,521.03,422.61,520.66,422.61z M443.09,422.19c-0.37,0-0.71-0.25-0.81-0.62c-0.12-0.45,0.15-0.91,0.6-1.03
			c0.82-0.22,1.64-0.43,2.47-0.64c0.45-0.11,0.91,0.16,1.02,0.61c0.11,0.45-0.16,0.91-0.61,1.02c-0.81,0.2-1.63,0.41-2.44,0.63
			C443.23,422.18,443.16,422.19,443.09,422.19z M512.47,420.59c-0.06,0-0.12-0.01-0.18-0.02c-0.82-0.18-1.64-0.35-2.46-0.51
			c-0.46-0.09-0.75-0.54-0.66-0.99c0.09-0.46,0.54-0.75,0.99-0.66c0.83,0.17,1.66,0.34,2.49,0.52c0.46,0.1,0.74,0.55,0.65,1
			C513.21,420.32,512.86,420.59,512.47,420.59z M451.3,420.24c-0.39,0-0.74-0.27-0.83-0.67c-0.09-0.46,0.2-0.9,0.66-1
			c0.83-0.17,1.66-0.34,2.5-0.49c0.46-0.09,0.9,0.21,0.99,0.67c0.09,0.46-0.22,0.9-0.67,0.99c-0.82,0.16-1.65,0.32-2.47,0.49
			C451.41,420.24,451.36,420.24,451.3,420.24z M504.18,419.04c-0.04,0-0.09,0-0.13-0.01c-0.83-0.13-1.66-0.25-2.49-0.37
			c-0.46-0.06-0.78-0.49-0.72-0.95c0.06-0.46,0.49-0.79,0.95-0.72c0.84,0.12,1.68,0.24,2.52,0.37c0.46,0.07,0.77,0.5,0.7,0.97
			C504.94,418.74,504.58,419.04,504.18,419.04z M459.61,418.78c-0.41,0-0.77-0.3-0.83-0.72c-0.07-0.46,0.25-0.89,0.71-0.96
			c0.84-0.12,1.68-0.24,2.52-0.35c0.46-0.06,0.89,0.27,0.95,0.73c0.06,0.46-0.27,0.89-0.73,0.95c-0.83,0.11-1.66,0.22-2.49,0.34
			C459.69,418.78,459.65,418.78,459.61,418.78z M495.81,417.96c-0.03,0-0.06,0-0.08,0c-0.84-0.08-1.67-0.16-2.51-0.23
			c-0.46-0.04-0.81-0.45-0.77-0.91c0.04-0.46,0.44-0.81,0.91-0.77c0.85,0.07,1.69,0.15,2.54,0.23c0.46,0.05,0.8,0.46,0.76,0.92
			C496.6,417.63,496.23,417.96,495.81,417.96z M467.99,417.8c-0.43,0-0.8-0.33-0.84-0.77c-0.04-0.46,0.3-0.87,0.77-0.91
			c0.85-0.07,1.69-0.14,2.54-0.2c0.46-0.03,0.87,0.32,0.9,0.78c0.03,0.46-0.32,0.87-0.78,0.9c-0.84,0.06-1.67,0.13-2.51,0.2
			C468.04,417.8,468.02,417.8,467.99,417.8z M487.39,417.36c-0.01,0-0.02,0-0.04,0c-0.84-0.04-1.68-0.06-2.52-0.09
			c-0.47-0.01-0.83-0.4-0.82-0.87c0.01-0.47,0.38-0.84,0.87-0.82c0.85,0.02,1.7,0.05,2.54,0.09c0.47,0.02,0.83,0.41,0.81,0.88
			C488.21,417.01,487.84,417.36,487.39,417.36z M476.42,417.3c-0.45,0-0.83-0.36-0.84-0.82c-0.01-0.47,0.35-0.86,0.82-0.87
			c0.85-0.03,1.7-0.05,2.55-0.06c0,0,0.01,0,0.01,0c0.46,0,0.84,0.37,0.84,0.83c0.01,0.47-0.37,0.85-0.83,0.86
			c-0.84,0.01-1.68,0.03-2.52,0.06C476.43,417.3,476.43,417.3,476.42,417.3z" />
			<path class="st1" d="M647.92,366.33c-0.09,0-0.19-0.02-0.28-0.05c-0.44-0.16-0.67-0.64-0.51-1.08c0.29-0.81,0.6-1.62,0.94-2.41
			c0.18-0.43,0.68-0.63,1.11-0.44c0.43,0.18,0.63,0.68,0.44,1.11c-0.33,0.76-0.63,1.53-0.9,2.3
			C648.6,366.11,648.27,366.33,647.92,366.33z M651.58,358.74c-0.15,0-0.31-0.04-0.44-0.13c-0.4-0.25-0.52-0.77-0.27-1.16
			c0.45-0.73,0.93-1.45,1.43-2.15c0.27-0.38,0.8-0.47,1.18-0.2c0.38,0.27,0.47,0.8,0.2,1.18c-0.48,0.67-0.94,1.37-1.37,2.06
			C652.14,358.6,651.86,358.74,651.58,358.74z M656.75,352.09c-0.21,0-0.42-0.08-0.58-0.23c-0.34-0.32-0.35-0.86-0.03-1.19
			c0.59-0.62,1.21-1.23,1.85-1.81c0.34-0.32,0.88-0.29,1.19,0.05c0.32,0.34,0.29,0.88-0.05,1.19c-0.61,0.56-1.2,1.14-1.77,1.73
			C657.19,352,656.97,352.09,656.75,352.09z M663.19,346.65c-0.27,0-0.54-0.13-0.7-0.37c-0.26-0.39-0.16-0.91,0.23-1.17
			c0.71-0.48,1.45-0.95,2.19-1.38c0.4-0.24,0.92-0.1,1.15,0.3c0.24,0.4,0.1,0.92-0.3,1.15c-0.71,0.41-1.41,0.86-2.09,1.32
			C663.51,346.61,663.35,346.65,663.19,346.65z M672.86,342.89c-0.35,0-0.65-0.21-0.78-0.53c-0.14-0.01-0.36,0.03-0.54,0.09
			c-0.2,0.07-0.4,0.15-0.59,0.22c-0.43,0.17-0.92-0.05-1.09-0.48c-0.17-0.43,0.05-0.92,0.48-1.09c0.21-0.08,0.41-0.16,0.62-0.24
			c0.34-0.13,0.72-0.19,1.07-0.19c0.92,0,1.57,0.5,1.67,1.27c0.06,0.46-0.27,0.89-0.73,0.94
			C672.93,342.88,672.89,342.89,672.86,342.89z" />
			<path class="st1" d="M63.46,413.47c-0.02,0-0.04,0-0.06,0c-0.85-0.06-1.71-0.15-2.56-0.25c-0.46-0.06-0.79-0.48-0.73-0.94
			c0.06-0.46,0.48-0.79,0.94-0.73c0.82,0.1,1.66,0.18,2.48,0.24c0.46,0.03,0.81,0.44,0.78,0.9
			C64.26,413.13,63.89,413.47,63.46,413.47z M55.13,412.17c-0.06,0-0.13-0.01-0.2-0.02c-0.83-0.2-1.66-0.42-2.49-0.66
			c-0.45-0.13-0.71-0.6-0.58-1.05c0.13-0.45,0.6-0.71,1.05-0.58c0.8,0.23,1.61,0.45,2.41,0.64c0.45,0.11,0.73,0.56,0.62,1.02
			C55.85,411.91,55.51,412.17,55.13,412.17z M47.1,409.56c-0.11,0-0.22-0.02-0.32-0.06c-0.79-0.33-1.58-0.68-2.35-1.04
			c-0.42-0.2-0.6-0.7-0.4-1.12c0.2-0.42,0.7-0.6,1.12-0.4c0.75,0.35,1.51,0.69,2.28,1.01c0.43,0.18,0.64,0.67,0.46,1.1
			C47.75,409.37,47.44,409.56,47.1,409.56z M39.6,405.72c-0.15,0-0.3-0.04-0.44-0.13c-0.73-0.45-1.45-0.92-2.16-1.4
			c-0.38-0.26-0.48-0.79-0.22-1.17c0.26-0.38,0.79-0.48,1.17-0.22c0.68,0.47,1.38,0.92,2.09,1.36c0.4,0.24,0.52,0.76,0.28,1.16
			C40.16,405.58,39.88,405.72,39.6,405.72z M32.81,400.72c-0.2,0-0.39-0.07-0.56-0.21c-0.64-0.56-1.28-1.15-1.9-1.74
			c-0.34-0.32-0.34-0.86-0.02-1.19c0.32-0.34,0.86-0.34,1.19-0.02c0.6,0.58,1.21,1.14,1.83,1.68c0.35,0.31,0.39,0.84,0.08,1.19
			C33.28,400.62,33.05,400.72,32.81,400.72z M26.95,394.67c-0.24,0-0.49-0.11-0.65-0.31c-0.54-0.66-1.08-1.34-1.58-2.03
			c-0.28-0.37-0.2-0.9,0.17-1.18c0.37-0.28,0.9-0.2,1.18,0.17c0.49,0.66,1.01,1.32,1.53,1.96c0.3,0.36,0.24,0.89-0.12,1.19
			C27.32,394.6,27.13,394.67,26.95,394.67z M22.13,387.74c-0.29,0-0.57-0.15-0.73-0.42c-0.43-0.74-0.85-1.49-1.24-2.25
			c-0.22-0.41-0.06-0.92,0.36-1.14c0.41-0.22,0.92-0.06,1.14,0.36c0.38,0.73,0.79,1.47,1.2,2.18c0.24,0.4,0.1,0.92-0.3,1.15
			C22.42,387.71,22.28,387.74,22.13,387.74z M18.47,380.15c-0.34,0-0.66-0.2-0.79-0.54c-0.31-0.8-0.6-1.61-0.87-2.42
			c-0.15-0.44,0.09-0.92,0.53-1.07c0.44-0.15,0.92,0.09,1.07,0.53c0.26,0.78,0.55,1.57,0.84,2.34c0.17,0.43-0.05,0.92-0.48,1.09
			C18.68,380.13,18.57,380.15,18.47,380.15z M16.06,372.07c-0.39,0-0.74-0.27-0.82-0.67c-0.18-0.84-0.34-1.69-0.47-2.53
			c-0.07-0.46,0.24-0.89,0.7-0.97c0.46-0.07,0.89,0.24,0.97,0.7c0.13,0.81,0.28,1.64,0.46,2.45c0.1,0.46-0.19,0.9-0.65,1
			C16.18,372.06,16.12,372.07,16.06,372.07z M15.28,363.71c-0.06,0-0.12-0.01-0.18-0.02c-0.46-0.1-0.75-0.55-0.65-1
			c0.25-1.17,0.79-2.05,1.62-2.63c0.38-0.27,0.91-0.18,1.18,0.21c0.27,0.38,0.18,0.91-0.21,1.18c-0.47,0.33-0.78,0.85-0.94,1.6
			C16.02,363.44,15.67,363.71,15.28,363.71z" />
			<path class="st1" d="M332.6,481.45C332.6,481.45,332.6,481.45,332.6,481.45c-0.85,0-1.71-0.01-2.55-0.04
			c-0.47-0.01-0.83-0.4-0.82-0.87c0.01-0.47,0.4-0.83,0.87-0.82c0.83,0.02,1.68,0.03,2.51,0.04c0.47,0,0.84,0.38,0.84,0.85
			C333.44,481.07,333.06,481.45,332.6,481.45z M338.5,481.28c-0.44,0-0.82-0.35-0.84-0.8c-0.03-0.47,0.33-0.86,0.79-0.89
			c0.83-0.05,1.67-0.11,2.51-0.17c0.47-0.04,0.87,0.31,0.91,0.77c0.04,0.46-0.31,0.87-0.77,0.91c-0.85,0.07-1.7,0.13-2.55,0.18
			C338.54,481.28,338.52,481.28,338.5,481.28z M324.17,481.07c-0.02,0-0.05,0-0.07,0c-0.85-0.07-1.7-0.16-2.54-0.26
			c-0.46-0.05-0.8-0.47-0.74-0.93c0.05-0.46,0.47-0.79,0.93-0.74c0.82,0.09,1.66,0.18,2.5,0.25c0.46,0.04,0.81,0.45,0.77,0.91
			C324.97,480.74,324.6,481.07,324.17,481.07z M346.9,480.46c-0.41,0-0.78-0.31-0.83-0.73c-0.06-0.46,0.26-0.89,0.72-0.95
			c0.83-0.12,1.66-0.24,2.48-0.38c0.46-0.08,0.89,0.24,0.97,0.7c0.08,0.46-0.24,0.89-0.7,0.97c-0.83,0.14-1.68,0.27-2.52,0.38
			C346.98,480.46,346.94,480.46,346.9,480.46z M315.8,479.98c-0.05,0-0.1,0-0.15-0.01c-0.83-0.14-1.67-0.3-2.51-0.47
			c-0.46-0.09-0.75-0.54-0.66-0.99c0.09-0.46,0.54-0.75,0.99-0.66c0.82,0.16,1.65,0.32,2.47,0.46c0.46,0.08,0.77,0.52,0.69,0.98
			C316.56,479.69,316.21,479.98,315.8,479.98z M355.2,478.96c-0.39,0-0.74-0.27-0.82-0.66c-0.1-0.46,0.19-0.91,0.64-1.01
			c0.81-0.18,1.64-0.37,2.45-0.57c0.45-0.11,0.91,0.16,1.02,0.62c0.11,0.45-0.16,0.91-0.62,1.02c-0.82,0.2-1.66,0.4-2.48,0.58
			C355.33,478.95,355.26,478.96,355.2,478.96z M307.56,478.19c-0.07,0-0.14-0.01-0.21-0.03c-0.82-0.21-1.64-0.44-2.46-0.67
			c-0.45-0.13-0.71-0.6-0.58-1.04c0.13-0.45,0.6-0.71,1.04-0.58c0.8,0.23,1.62,0.45,2.42,0.66c0.45,0.12,0.72,0.58,0.6,1.03
			C308.28,477.94,307.93,478.19,307.56,478.19z M363.36,476.8c-0.36,0-0.7-0.23-0.81-0.6c-0.14-0.45,0.11-0.92,0.56-1.05
			c0.8-0.24,1.6-0.5,2.39-0.77c0.44-0.15,0.92,0.09,1.07,0.53c0.15,0.44-0.09,0.92-0.53,1.07c-0.8,0.27-1.62,0.53-2.43,0.78
			C363.53,476.79,363.44,476.8,363.36,476.8z M299.49,475.73c-0.09,0-0.19-0.02-0.28-0.05c-0.8-0.28-1.61-0.57-2.4-0.87
			c-0.44-0.16-0.66-0.65-0.49-1.09c0.16-0.44,0.65-0.66,1.09-0.49c0.78,0.29,1.58,0.58,2.36,0.86c0.44,0.15,0.67,0.64,0.52,1.08
			C300.16,475.51,299.83,475.73,299.49,475.73z M371.33,474.01c-0.34,0-0.65-0.2-0.79-0.53c-0.17-0.43,0.04-0.92,0.47-1.1
			c0.78-0.31,1.56-0.63,2.33-0.95c0.43-0.18,0.92,0.02,1.11,0.45c0.18,0.43-0.02,0.92-0.45,1.11c-0.78,0.33-1.57,0.65-2.36,0.97
			C371.53,473.99,371.43,474.01,371.33,474.01z M291.64,472.63c-0.11,0-0.23-0.02-0.34-0.07c-0.77-0.34-1.55-0.7-2.32-1.06
			c-0.42-0.2-0.6-0.7-0.4-1.12c0.2-0.42,0.7-0.6,1.12-0.4c0.76,0.36,1.53,0.71,2.29,1.04c0.43,0.19,0.62,0.69,0.43,1.11
			C292.27,472.44,291.96,472.63,291.64,472.63z M379.05,470.6c-0.31,0-0.61-0.17-0.76-0.47c-0.2-0.42-0.03-0.92,0.39-1.13
			c0.75-0.37,1.5-0.75,2.24-1.13c0.41-0.21,0.92-0.05,1.14,0.36c0.21,0.41,0.05,0.92-0.36,1.14c-0.75,0.39-1.52,0.78-2.28,1.15
			C379.3,470.58,379.17,470.6,379.05,470.6z M284.06,468.92c-0.14,0-0.27-0.03-0.4-0.1c-0.75-0.4-1.5-0.82-2.23-1.24
			c-0.4-0.23-0.55-0.75-0.32-1.15c0.23-0.4,0.75-0.55,1.15-0.32c0.72,0.41,1.46,0.82,2.2,1.22c0.41,0.22,0.56,0.73,0.34,1.14
			C284.65,468.76,284.36,468.92,284.06,468.92z M386.48,466.6c-0.29,0-0.57-0.15-0.73-0.41c-0.24-0.4-0.1-0.92,0.3-1.16
			c0.72-0.42,1.44-0.86,2.15-1.3c0.4-0.25,0.92-0.13,1.16,0.27c0.25,0.4,0.13,0.92-0.27,1.16c-0.72,0.45-1.45,0.89-2.18,1.32
			C386.77,466.56,386.62,466.6,386.48,466.6z M276.79,464.63c-0.16,0-0.32-0.04-0.46-0.13c-0.71-0.46-1.43-0.93-2.13-1.41
			c-0.39-0.26-0.49-0.79-0.22-1.17c0.26-0.39,0.79-0.49,1.17-0.22c0.69,0.47,1.39,0.93,2.1,1.39c0.39,0.25,0.5,0.78,0.25,1.17
			C277.34,464.5,277.07,464.63,276.79,464.63z M393.57,462.03c-0.27,0-0.53-0.12-0.69-0.36c-0.27-0.38-0.18-0.91,0.2-1.18
			c0.68-0.48,1.37-0.98,2.04-1.47c0.37-0.28,0.9-0.2,1.18,0.18c0.28,0.37,0.2,0.9-0.18,1.18c-0.68,0.5-1.38,1.01-2.07,1.5
			C393.9,461.98,393.73,462.03,393.57,462.03z M269.88,459.79c-0.18,0-0.36-0.06-0.51-0.17c-0.67-0.51-1.35-1.04-2.01-1.57
			c-0.36-0.29-0.42-0.82-0.13-1.19c0.29-0.36,0.82-0.42,1.19-0.13c0.65,0.52,1.32,1.04,1.98,1.55c0.37,0.28,0.44,0.81,0.16,1.18
			C270.39,459.67,270.14,459.79,269.88,459.79z M400.26,456.89c-0.24,0-0.48-0.1-0.65-0.3c-0.3-0.36-0.25-0.89,0.11-1.19
			c0.64-0.54,1.29-1.08,1.91-1.63c0.35-0.31,0.88-0.27,1.19,0.08c0.31,0.35,0.27,0.88-0.08,1.19c-0.63,0.56-1.29,1.11-1.94,1.66
			C400.64,456.83,400.45,456.89,400.26,456.89z M263.38,454.41c-0.2,0-0.4-0.07-0.56-0.22c-0.63-0.56-1.26-1.15-1.88-1.73
			c-0.34-0.32-0.36-0.85-0.04-1.19c0.32-0.34,0.85-0.36,1.19-0.04c0.61,0.57,1.23,1.14,1.85,1.7c0.35,0.31,0.38,0.84,0.07,1.19
			C263.84,454.32,263.61,454.41,263.38,454.41z M406.51,451.23c-0.22,0-0.44-0.08-0.6-0.25c-0.33-0.33-0.32-0.87,0.01-1.19
			c0.59-0.58,1.19-1.18,1.76-1.78c0.32-0.34,0.86-0.35,1.19-0.02c0.34,0.32,0.35,0.86,0.02,1.19c-0.59,0.61-1.19,1.22-1.8,1.82
			C406.94,451.14,406.73,451.23,406.51,451.23z M257.32,448.54c-0.22,0-0.45-0.09-0.61-0.26c-0.58-0.61-1.17-1.24-1.74-1.87
			c-0.31-0.35-0.29-0.88,0.06-1.19c0.35-0.31,0.88-0.29,1.19,0.06c0.56,0.62,1.13,1.24,1.71,1.84c0.32,0.34,0.31,0.87-0.03,1.19
			C257.74,448.46,257.53,448.54,257.32,448.54z M251.77,442.19c-0.25,0-0.49-0.11-0.66-0.32c-0.53-0.66-1.06-1.34-1.58-2.01
			c-0.28-0.37-0.21-0.9,0.16-1.18c0.37-0.28,0.9-0.21,1.18,0.16c0.51,0.66,1.03,1.33,1.55,1.98c0.29,0.36,0.23,0.89-0.13,1.19
			C252.14,442.12,251.95,442.19,251.77,442.19z M246.76,435.39c-0.27,0-0.54-0.13-0.7-0.37c-0.48-0.71-0.95-1.42-1.4-2.14
			c-0.25-0.39-0.13-0.92,0.26-1.17c0.39-0.25,0.92-0.13,1.17,0.26c0.45,0.7,0.91,1.41,1.38,2.1c0.26,0.39,0.16,0.91-0.23,1.17
			C247.09,435.35,246.92,435.39,246.76,435.39z" />
			<g>
				<g>
					<rect x="216.72" y="484.22" class="st25" width="330.89" height="30.36" />
					<rect x="209.43" y="484.22" class="st85" width="9.71" height="37.64" />
					<path class="st86" d="M543.96,310.51c0-7.23-7.64-13.29-15.93-13.29H215.79c-8.29,0-14.86,6.06-14.86,13.29v164.56
					c0,7.23,6.57,13.4,14.86,13.4h312.24c8.29,0,15.93-6.17,15.93-13.4V310.51z" />
					<path class="st25" d="M533.03,317.15c0-6.62-5.7-12.03-13.52-12.03H224.95c-7.82,0-15.52,5.41-15.52,12.03v150.42
					c0,6.62,7.71,13.01,15.52,13.01h294.56c7.82,0,13.52-6.4,13.52-13.01V317.15z" />
					<path class="st44" d="M652.41,430.41l-20.51-63.26c-0.51-1.59-2-2.53-3.67-2.53c-14.32,0-79.42,0-82.45,0v149.96h111.49
					L652.41,430.41z" />
					<path class="st25" d="M657.89,491.6c-1.1-0.73-2.45-1.12-3.98-1.09l-85.92,1.66l-0.38,24.41l85.85,2.11
					c3.15,0,5.87-1.52,5.87-3.65v-20.68C659.32,493.32,658.99,492.32,657.89,491.6z" />
					<g>
						<path class="st49" d="M636.4,426.02L624,376.84c-0.43-1.71-1.97-3.12-3.73-3.12h-48.49c-1.04,0-2.04,0.63-2.76,1.38
						c-0.73,0.75-1.12,1.86-1.09,2.9l1.16,39.37c0.05,1.85,1.41,3.42,3.24,3.72l59.72,9.66c1.28,0.21,2.58-0.24,3.46-1.19
						C636.38,428.6,636.72,427.27,636.4,426.02z" />
						<path class="st49" d="M633.92,373.34l-0.63,0.1c-1.07,0.18-2.02,0.8-2.61,1.72c-0.59,0.91-0.76,2.04-0.48,3.09l13.51,50.26
						c0.52,1.94,2.45,3.16,4.43,2.79l4.27-0.8L633.92,373.34z" />
					</g>
					<path class="st87" d="M591.32,439.29c0,2.01-1.63,3.64-3.64,3.64H572.5c-2.01,0-3.64-1.63-3.64-3.64v-1.82
					c0-2.01,1.63-3.64,3.64-3.64h15.18c2.01,0,3.64,1.63,3.64,3.64V439.29z" />
					<path class="st86" d="M551.53,320.33c-1.29-0.09-2.94,0.31-3.89,1.19c-0.95,0.88-1.86,2.07-1.86,3.37v39.72h50.28
					C596.07,364.62,593.36,323.38,551.53,320.33z" />
					<g>
						<g>

							<ellipse transform="matrix(0.9925 -0.1222 0.1222 0.9925 -60.5309 47.4269)" class="st85"
								cx="356.44" cy="517.27" rx="39.07" ry="39.07" />

							<ellipse transform="matrix(0.9975 -0.0709 0.0709 0.9975 -35.7721 26.5694)" class="st44"
								cx="356.44" cy="517.27" rx="31.73" ry="31.73" />
							<path class="st39" d="M383.1,528.81c-0.08,0-0.16-0.02-0.24-0.05c-0.31-0.13-0.45-0.49-0.32-0.8
							c1.43-3.39,2.16-6.99,2.16-10.7c0-15.16-12.33-27.49-27.49-27.49c-4.7,0-9.34,1.21-13.42,3.49c-0.29,0.16-0.66,0.06-0.83-0.23
							c-0.16-0.29-0.06-0.66,0.23-0.83c4.26-2.39,9.1-3.65,14.01-3.65c15.83,0,28.7,12.87,28.7,28.7c0,3.87-0.76,7.63-2.26,11.17
							C383.56,528.67,383.33,528.81,383.1,528.81z" />
						</g>
						<circle class="st85" cx="356.44" cy="517.27" r="14.55" />
					</g>
					<g>
						<g>

							<ellipse transform="matrix(0.9925 -0.1222 0.1222 0.9925 -58.7199 76.9589)" class="st85"
								cx="598.15" cy="517.27" rx="39.07" ry="39.07" />

							<ellipse transform="matrix(0.9975 -0.0709 0.0709 0.9975 -35.164 43.7035)" class="st44"
								cx="598.15" cy="517.27" rx="31.73" ry="31.73" />
							<path class="st39" d="M624.8,528.81c-0.08,0-0.16-0.02-0.24-0.05c-0.31-0.13-0.45-0.49-0.32-0.8
							c1.43-3.39,2.16-6.99,2.16-10.7c0-15.16-12.33-27.49-27.49-27.49c-4.7,0-9.34,1.21-13.42,3.49c-0.29,0.16-0.66,0.06-0.83-0.23
							c-0.16-0.29-0.06-0.66,0.23-0.83c4.26-2.39,9.1-3.65,14.01-3.65c15.83,0,28.7,12.87,28.7,28.7c0,3.87-0.76,7.63-2.26,11.17
							C625.26,528.67,625.04,528.81,624.8,528.81z" />
						</g>
						<circle class="st85" cx="598.15" cy="517.27" r="14.55" />
					</g>
					<g>
						<g>

							<ellipse transform="matrix(0.9925 -0.1222 0.1222 0.9925 -61.1731 36.9536)" class="st85"
								cx="270.73" cy="517.27" rx="39.07" ry="39.07" />

							<ellipse transform="matrix(0.9975 -0.0709 0.0709 0.9975 -35.9877 20.4929)" class="st44"
								cx="270.73" cy="517.27" rx="31.73" ry="31.73" />
							<path class="st39" d="M297.38,528.81c-0.08,0-0.16-0.02-0.24-0.05c-0.31-0.13-0.45-0.49-0.32-0.8
							c1.43-3.39,2.16-6.99,2.16-10.7c0-15.16-12.33-27.49-27.49-27.49c-4.7,0-9.34,1.21-13.42,3.49c-0.29,0.16-0.66,0.06-0.83-0.23
							c-0.16-0.29-0.06-0.66,0.23-0.83c4.26-2.39,9.1-3.65,14.01-3.65c15.83,0,28.7,12.87,28.7,28.7c0,3.87-0.76,7.63-2.26,11.17
							C297.84,528.67,297.61,528.81,297.38,528.81z" />
						</g>
						<circle class="st85" cx="270.73" cy="517.27" r="14.55" />
					</g>
					<g>
						<path class="st49" d="M657.5,485.83c0,2.13-1.73,3.86-3.86,3.86h-9.89c-2.13,0-3.86-1.73-3.86-3.86v-13.54
						c0-2.13,1.73-3.86,3.86-3.86h9.89c2.13,0,3.86,1.73,3.86,3.86V485.83z" />
						<path class="st88"
							d="M647.78,468.44v20.04h-3.17c-2.13,0-4.72-2.39-4.72-4.52v-12.69c0-2.13,2.6-2.83,4.72-2.83H647.78z" />
					</g>
					<path class="st39" d="M552.46,463.58c-0.34,0-0.61-0.27-0.61-0.61v-89.25c0-0.34,0.27-0.61,0.61-0.61
					c0.34,0,0.61,0.27,0.61,0.61v89.25C553.07,463.31,552.8,463.58,552.46,463.58z" />
					<path class="st1" d="M586.84,360.42c-0.25,0-0.49-0.16-0.57-0.41c-3.36-9.72-9.96-22.54-22.36-28.37
					c-7.38-3.47-13.36-2.81-13.42-2.8c-0.33,0.04-0.63-0.2-0.67-0.53c-0.04-0.33,0.2-0.63,0.53-0.67c0.26-0.03,6.39-0.71,14.08,2.91
					c12.79,6.01,19.56,19.13,22.99,29.07c0.11,0.32-0.06,0.66-0.38,0.77C586.97,360.41,586.9,360.42,586.84,360.42z" />
				</g>
				<path class="st44" d="M357.02,474.65c8.5,0.16,15.47-6.46,15.47-14.67v-65.29c0-8.58-7.13-15.56-16.01-15.65
				c-26.63-0.28-81.56-0.29-126.51,3.37c-6.13,0.5-10.9,5.36-11.13,11.3l-4.2,63.12c-0.31,8.35,6.52,15.32,15.16,15.48
				L357.02,474.65z" />
				<path class="st1"
					d="M357.06,401.75c0.11,5.55-0.06,14.37-0.2,20.06c-0.07,2.96-2.76,5.22-5.81,4.88l-21.92-2.48
				c-2.92-0.33-4.98-2.93-4.54-5.74l2.69-17.35c0.38-2.46,2.57-4.28,5.15-4.28h19.42C354.69,396.84,357.01,399.02,357.06,401.75z" />
				<path class="st89" d="M299.78,434.63l-18.28,1.91c-2.56,0.27-4.74-1.77-4.55-4.25l4-52.57c7.66-0.23,15.22-0.41,22.52-0.53v51.48
				C303.46,432.7,301.88,434.41,299.78,434.63z" />
				<path class="st1" d="M292.29,425.52c-0.06,0.95-0.87,1.67-1.83,1.67c-0.04,0-0.07,0-0.11,0c-1.01-0.06-1.79-0.9-1.73-1.88
				l2.76-45.88c1.24-0.03,2.46-0.06,3.69-0.08L292.29,425.52z" />
				<g>

					<linearGradient id="SVGID_00000068678225433790974050000002263331152739356840_"
						gradientUnits="userSpaceOnUse" x1="-9683.3584" y1="400.0897" x2="-9721.2666" y2="455.1743"
						gradientTransform="matrix(-1 0 0 1 -9343.1201 0)">
						<stop offset="0" style="stop-color:#09005D" />
						<stop offset="1" style="stop-color:#1A0F91" />
					</linearGradient>
					<path style="fill:url(#SVGID_00000068678225433790974050000002263331152739356840_);" d="M346.93,418.31
					c0.32,0,0.59-0.24,0.61-0.56l0.95-14.45c0.02-0.33-0.23-0.61-0.57-0.63c-0.36-0.03-0.63,0.23-0.65,0.55l-0.95,14.45
					c-0.02,0.33,0.23,0.61,0.57,0.63C346.9,418.31,346.91,418.31,346.93,418.31z" />

					<linearGradient id="SVGID_00000038397767477890641710000005944980711623387785_"
						gradientUnits="userSpaceOnUse" x1="-9681.917" y1="401.0212" x2="-9719.8506" y2="456.1436"
						gradientTransform="matrix(-1 0 0 1 -9343.1201 0)">
						<stop offset="0" style="stop-color:#09005D" />
						<stop offset="1" style="stop-color:#1A0F91" />
					</linearGradient>
					<path style="fill:url(#SVGID_00000038397767477890641710000005944980711623387785_);" d="M344.97,418.31
					c0.33,0,0.6-0.25,0.61-0.57l0.5-14.73c0.01-0.33-0.26-0.6-0.59-0.61c-0.39-0.02-0.62,0.25-0.63,0.57l-0.5,14.73
					c-0.01,0.33,0.26,0.6,0.59,0.61C344.95,418.31,344.97,418.31,344.97,418.31z" />

					<linearGradient id="SVGID_00000030458985551366008380000016887748118641724350_"
						gradientUnits="userSpaceOnUse" x1="-9680.1904" y1="402.1566" x2="-9718.1113" y2="457.2603"
						gradientTransform="matrix(-1 0 0 1 -9343.1201 0)">
						<stop offset="0" style="stop-color:#09005D" />
						<stop offset="1" style="stop-color:#1A0F91" />
					</linearGradient>
					<path style="fill:url(#SVGID_00000030458985551366008380000016887748118641724350_);" d="M342.33,418.31
					c-0.34-0.02-0.6-0.29-0.58-0.62c0.24-4.95,0.71-14.38,0.71-14.71c0-0.32,0.28-0.59,0.61-0.59c0.34,0,0.61,0.27,0.61,0.59
					c0,0.24-0.6,12.33-0.72,14.76c-0.02,0.32-0.29,0.56-0.61,0.56C342.35,418.31,342.34,418.31,342.33,418.31z M342.45,402.99h0.01
					H342.45z" />

					<linearGradient id="SVGID_00000123410399746080929110000016495367360806126221_"
						gradientUnits="userSpaceOnUse" x1="-9677.1963" y1="404.1063" x2="-9715.1689" y2="459.2851"
						gradientTransform="matrix(-1 0 0 1 -9343.1201 0)">
						<stop offset="0" style="stop-color:#09005D" />
						<stop offset="1" style="stop-color:#1A0F91" />
					</linearGradient>
					<path style="fill:url(#SVGID_00000123410399746080929110000016495367360806126221_);" d="M338.27,418.91
					c0.66,0,1.2-0.5,1.22-1.14c0.52-14.27,0.43-14.59,0.37-14.8c-0.18-0.63-0.86-1-1.51-0.83c-0.6,0.16-0.97,0.72-0.89,1.3
					c0.04,0.86-0.23,9.16-0.42,14.25c-0.02,0.65,0.51,1.2,1.18,1.23C338.24,418.91,338.26,418.91,338.27,418.91z" />

					<linearGradient id="SVGID_00000064325480747957976770000000084223482722674598_"
						gradientUnits="userSpaceOnUse" x1="-9675.2266" y1="405.401" x2="-9713.1865" y2="460.5618"
						gradientTransform="matrix(-1 0 0 1 -9343.1201 0)">
						<stop offset="0" style="stop-color:#09005D" />
						<stop offset="1" style="stop-color:#1A0F91" />
					</linearGradient>
					<path style="fill:url(#SVGID_00000064325480747957976770000000084223482722674598_);" d="M335.61,418.31
					c0.34,0,0.61-0.26,0.61-0.59v-14.45c0-0.33-0.27-0.59-0.61-0.59c-0.34,0-0.61,0.27-0.61,0.59v14.45
					C335,418.05,335.27,418.31,335.61,418.31z" />

					<linearGradient id="SVGID_00000020395134471269028450000002664020034079429787_"
						gradientUnits="userSpaceOnUse" x1="-9674.0059" y1="406.2077" x2="-9711.9268" y2="461.3125"
						gradientTransform="matrix(-1 0 0 1 -9343.1201 0)">
						<stop offset="0" style="stop-color:#09005D" />
						<stop offset="1" style="stop-color:#1A0F91" />
					</linearGradient>
					<path style="fill:url(#SVGID_00000020395134471269028450000002664020034079429787_);" d="M333.47,418.31
					c0.33,0,0.61-0.26,0.61-0.58c0.12-5.02,0.39-13.22,0.64-14.21c0.11-0.19,0.11-0.42-0.02-0.61c-0.19-0.28-0.57-0.35-0.85-0.17
					c-0.33,0.21-0.65,0.41-0.99,14.97c-0.01,0.33,0.26,0.6,0.6,0.61H333.47z" />

					<linearGradient id="SVGID_00000103980704794571288000000010196723383934463648_"
						gradientUnits="userSpaceOnUse" x1="-9685.4092" y1="398.7342" x2="-9723.3594" y2="453.8805"
						gradientTransform="matrix(-1 0 0 1 -9343.1201 0)">
						<stop offset="0" style="stop-color:#09005D" />
						<stop offset="1" style="stop-color:#1A0F91" />
					</linearGradient>
					<path style="fill:url(#SVGID_00000103980704794571288000000010196723383934463648_);" d="M350.22,419.63
					c0.65,0,1.19-0.49,1.22-1.12l0.82-15.17c0.03-0.65-0.48-1.21-1.16-1.25c-0.64-0.04-1.25,0.47-1.29,1.12L349,418.38
					c-0.03,0.65,0.48,1.21,1.16,1.25C350.18,419.63,350.2,419.63,350.22,419.63z" />
				</g>
				<g>
					<path class="st44" d="M513.15,480.31c8.28,0.15,15.07-6.36,15.07-14.46v-64.34c0-8.45-6.95-15.33-15.6-15.42
					c-25.95-0.28-79.48-0.29-123.28,3.32c-5.98,0.49-10.63,5.28-10.84,11.14l-4.09,62.21c-0.3,8.23,6.35,15.1,14.77,15.26
					L513.15,480.31z" />
					<path class="st1"
						d="M513.19,408.47c0.11,5.47-0.06,14.16-0.19,19.77c-0.07,2.92-2.69,5.15-5.66,4.8l-21.36-2.45
					c-2.85-0.33-4.85-2.89-4.43-5.66l2.62-17.1c0.37-2.43,2.51-4.22,5.02-4.22h18.93C510.88,403.63,513.14,405.78,513.19,408.47z" />
					<path class="st89" d="M457.37,440.87l-17.82,1.88c-2.49,0.26-4.62-1.75-4.44-4.19l3.9-51.81c7.47-0.23,14.84-0.4,21.94-0.52
					v50.74C460.96,438.98,459.41,440.66,457.37,440.87z" />
					<path class="st1" d="M450.07,431.89c-0.05,0.93-0.84,1.65-1.79,1.65c-0.04,0-0.07,0-0.11,0c-0.99-0.06-1.74-0.88-1.68-1.85
					l2.69-45.22c1.2-0.03,2.4-0.06,3.59-0.08L450.07,431.89z" />
					<g>

						<linearGradient id="SVGID_00000041269611944549360680000006883413606743471275_"
							gradientUnits="userSpaceOnUse" x1="-9839.8389" y1="406.8323" x2="-9877.2031" y2="461.1279"
							gradientTransform="matrix(-1 0 0 1 -9343.1201 0)">
							<stop offset="0" style="stop-color:#09005D" />
							<stop offset="1" style="stop-color:#1A0F91" />
						</linearGradient>
						<path style="fill:url(#SVGID_00000041269611944549360680000006883413606743471275_);" d="M503.31,424.79
						c0.31,0,0.58-0.24,0.6-0.55l0.92-14.24c0.02-0.32-0.23-0.6-0.56-0.62c-0.35-0.03-0.61,0.22-0.63,0.55l-0.92,14.24
						c-0.02,0.32,0.23,0.6,0.56,0.62C503.29,424.79,503.3,424.79,503.31,424.79z" />

						<linearGradient id="SVGID_00000093866449526378135460000008547987275827705515_"
							gradientUnits="userSpaceOnUse" x1="-9838.4443" y1="407.7526" x2="-9875.8262" y2="462.073"
							gradientTransform="matrix(-1 0 0 1 -9343.1201 0)">
							<stop offset="0" style="stop-color:#09005D" />
							<stop offset="1" style="stop-color:#1A0F91" />
						</linearGradient>
						<path style="fill:url(#SVGID_00000093866449526378135460000008547987275827705515_);" d="M501.41,424.79
						c0.32,0,0.59-0.25,0.6-0.56l0.48-14.51c0.01-0.32-0.25-0.59-0.58-0.6c-0.38-0.02-0.61,0.24-0.62,0.56l-0.48,14.51
						c-0.01,0.32,0.25,0.59,0.58,0.6C501.39,424.79,501.41,424.79,501.41,424.79z" />

						<linearGradient id="SVGID_00000173849929992712543280000010947196108055433099_"
							gradientUnits="userSpaceOnUse" x1="-9836.7686" y1="408.8706" x2="-9874.1426" y2="463.1787"
							gradientTransform="matrix(-1 0 0 1 -9343.1201 0)">
							<stop offset="0" style="stop-color:#09005D" />
							<stop offset="1" style="stop-color:#1A0F91" />
						</linearGradient>
						<path style="fill:url(#SVGID_00000173849929992712543280000010947196108055433099_);" d="M498.83,424.79
						c-0.33-0.01-0.58-0.29-0.57-0.61c0.24-4.88,0.69-14.18,0.7-14.49c0-0.32,0.27-0.58,0.6-0.58c0.33,0,0.6,0.26,0.6,0.58
						c0,0.24-0.58,12.16-0.7,14.54c-0.02,0.31-0.28,0.56-0.6,0.56C498.85,424.79,498.84,424.79,498.83,424.79z M498.95,409.7h0.01
						H498.95z" />

						<linearGradient id="SVGID_00000132073418927546727920000010776621359621467815_"
							gradientUnits="userSpaceOnUse" x1="-9833.8672" y1="410.795" x2="-9871.2744" y2="465.152"
							gradientTransform="matrix(-1 0 0 1 -9343.1201 0)">
							<stop offset="0" style="stop-color:#09005D" />
							<stop offset="1" style="stop-color:#1A0F91" />
						</linearGradient>
						<path style="fill:url(#SVGID_00000132073418927546727920000010776621359621467815_);" d="M494.88,425.38
						c0.64,0,1.17-0.5,1.19-1.13c0.51-14.06,0.42-14.38,0.36-14.59c-0.17-0.62-0.84-0.99-1.47-0.82c-0.58,0.16-0.95,0.71-0.87,1.28
						c0.04,0.85-0.23,9.03-0.41,14.05c-0.02,0.64,0.49,1.19,1.15,1.21C494.85,425.38,494.87,425.38,494.88,425.38z" />

						<linearGradient id="SVGID_00000056407775118697430980000009823421505315210920_"
							gradientUnits="userSpaceOnUse" x1="-9831.957" y1="412.0698" x2="-9869.3564" y2="466.4153"
							gradientTransform="matrix(-1 0 0 1 -9343.1201 0)">
							<stop offset="0" style="stop-color:#09005D" />
							<stop offset="1" style="stop-color:#1A0F91" />
						</linearGradient>
						<path style="fill:url(#SVGID_00000056407775118697430980000009823421505315210920_);" d="M492.29,424.79
						c0.33,0,0.6-0.26,0.6-0.58v-14.24c0-0.32-0.27-0.58-0.6-0.58c-0.33,0-0.6,0.26-0.6,0.58v14.24
						C491.69,424.53,491.96,424.79,492.29,424.79z" />

						<linearGradient id="SVGID_00000117657433550372273010000003423957499650726313_"
							gradientUnits="userSpaceOnUse" x1="-9830.7725" y1="412.8633" x2="-9868.1455" y2="467.1719"
							gradientTransform="matrix(-1 0 0 1 -9343.1201 0)">
							<stop offset="0" style="stop-color:#09005D" />
							<stop offset="1" style="stop-color:#1A0F91" />
						</linearGradient>
						<path style="fill:url(#SVGID_00000117657433550372273010000003423957499650726313_);" d="M490.2,424.79
						c0.32,0,0.59-0.25,0.6-0.57c0.11-4.95,0.38-13.03,0.62-14c0.1-0.18,0.1-0.42-0.02-0.61c-0.18-0.27-0.55-0.34-0.83-0.17
						c-0.33,0.21-0.63,0.41-0.97,14.75c-0.01,0.32,0.25,0.59,0.58,0.6H490.2z" />

						<linearGradient id="SVGID_00000176035748761902594980000004396257354581127309_"
							gradientUnits="userSpaceOnUse" x1="-9841.8271" y1="405.5006" x2="-9879.2188" y2="459.8364"
							gradientTransform="matrix(-1 0 0 1 -9343.1201 0)">
							<stop offset="0" style="stop-color:#09005D" />
							<stop offset="1" style="stop-color:#1A0F91" />
						</linearGradient>
						<path style="fill:url(#SVGID_00000176035748761902594980000004396257354581127309_);" d="M506.53,426.09
						c0.63,0,1.16-0.48,1.19-1.11l0.8-14.96c0.03-0.64-0.47-1.19-1.13-1.23c-0.63-0.04-1.22,0.46-1.26,1.11l-0.8,14.96
						c-0.03,0.64,0.47,1.19,1.13,1.23C506.49,426.09,506.51,426.09,506.53,426.09z" />
					</g>
				</g>
				<path class="st44" d="M332.36,366.69v-47.44c0-6.23-5.01-11.3-11.24-11.37c-18.7-0.2-57.28-0.21-88.84,2.45
				c-4.31,0.36-7.66,3.89-7.81,8.21l-2.95,45.86c-0.22,6.07,4.58,11.13,10.65,11.25l89.34,1.7
				C327.46,377.46,332.36,372.66,332.36,366.69z" />
				<path class="st1"
					d="M321.53,324.39c0.08,4.04-0.04,10.44-0.14,14.58c-0.05,2.15-1.94,3.79-4.08,3.54l-15.39-1.8
				c-2.05-0.24-3.5-2.13-3.19-4.17l1.89-12.6c0.27-1.79,1.81-3.11,3.61-3.11h13.64C319.86,320.81,321.49,322.4,321.53,324.39z" />
				<path class="st89" d="M281.3,348.27l-12.84,1.39c-1.8,0.19-3.33-1.29-3.2-3.09l2.81-38.2c5.38-0.17,10.69-0.3,15.81-0.38v37.41
				C283.89,346.87,282.77,348.11,281.3,348.27z" />
				<path class="st1" d="M276.04,341.65c-0.04,0.69-0.61,1.22-1.29,1.22c-0.03,0-0.05,0-0.08,0c-0.71-0.04-1.26-0.65-1.21-1.36
				l1.94-33.34c0.87-0.02,1.73-0.04,2.59-0.06L276.04,341.65z" />
				<g>

					<linearGradient id="SVGID_00000087389780361606805500000000188186988215328139_"
						gradientUnits="userSpaceOnUse" x1="-9652.6572" y1="323.1746" x2="-9680.2109" y2="363.2137"
						gradientTransform="matrix(-1 0 0 1 -9343.1201 0)">
						<stop offset="0" style="stop-color:#09005D" />
						<stop offset="1" style="stop-color:#1A0F91" />
					</linearGradient>
					<path style="fill:url(#SVGID_00000087389780361606805500000000188186988215328139_);" d="M314.41,336.42
					c0.23,0,0.42-0.17,0.43-0.4l0.67-10.5c0.02-0.24-0.16-0.44-0.4-0.46c-0.25-0.02-0.44,0.17-0.46,0.4l-0.67,10.5
					c-0.02,0.24,0.16,0.44,0.4,0.46C314.39,336.42,314.4,336.42,314.41,336.42z" />

					<linearGradient id="SVGID_00000080905792692297280560000007354220282944450707_"
						gradientUnits="userSpaceOnUse" x1="-9651.667" y1="323.8564" x2="-9679.2207" y2="363.8955"
						gradientTransform="matrix(-1 0 0 1 -9343.1201 0)">
						<stop offset="0" style="stop-color:#09005D" />
						<stop offset="1" style="stop-color:#1A0F91" />
					</linearGradient>
					<path style="fill:url(#SVGID_00000080905792692297280560000007354220282944450707_);" d="M313.04,336.42
					c0.23,0,0.42-0.18,0.43-0.42l0.35-10.7c0.01-0.24-0.18-0.44-0.42-0.44c-0.27-0.01-0.44,0.18-0.44,0.42l-0.35,10.7
					c-0.01,0.24,0.18,0.44,0.42,0.44C313.02,336.42,313.03,336.42,313.04,336.42z" />

					<linearGradient id="SVGID_00000168105647620518371520000009185066635159945892_"
						gradientUnits="userSpaceOnUse" x1="-9650.4707" y1="324.679" x2="-9678.0254" y2="364.7182"
						gradientTransform="matrix(-1 0 0 1 -9343.1201 0)">
						<stop offset="0" style="stop-color:#09005D" />
						<stop offset="1" style="stop-color:#1A0F91" />
					</linearGradient>
					<path style="fill:url(#SVGID_00000168105647620518371520000009185066635159945892_);" d="M311.18,336.42
					c-0.24-0.01-0.42-0.21-0.41-0.45c0.17-3.59,0.5-10.45,0.5-10.68c0-0.24,0.19-0.43,0.43-0.43c0.24,0,0.43,0.19,0.43,0.43
					c0,0.18-0.42,8.96-0.5,10.72c-0.01,0.23-0.2,0.41-0.43,0.41C311.19,336.42,311.19,336.42,311.18,336.42z M311.26,325.29
					L311.26,325.29L311.26,325.29z" />

					<linearGradient id="SVGID_00000160888820894360979910000002228832770053231807_"
						gradientUnits="userSpaceOnUse" x1="-9648.4033" y1="326.102" x2="-9675.957" y2="366.1411"
						gradientTransform="matrix(-1 0 0 1 -9343.1201 0)">
						<stop offset="0" style="stop-color:#09005D" />
						<stop offset="1" style="stop-color:#1A0F91" />
					</linearGradient>
					<path style="fill:url(#SVGID_00000160888820894360979910000002228832770053231807_);" d="M308.33,336.85
					c0.46,0,0.84-0.37,0.86-0.83c0.36-10.37,0.3-10.6,0.26-10.76c-0.12-0.46-0.6-0.73-1.06-0.6c-0.42,0.12-0.68,0.52-0.63,0.95
					c0.03,0.62-0.16,6.66-0.29,10.36c-0.02,0.48,0.35,0.87,0.83,0.89C308.31,336.85,308.32,336.85,308.33,336.85z" />

					<linearGradient id="SVGID_00000008868530164818601540000003897489927437323711_"
						gradientUnits="userSpaceOnUse" x1="-9647.04" y1="327.0403" x2="-9674.5938" y2="367.0793"
						gradientTransform="matrix(-1 0 0 1 -9343.1201 0)">
						<stop offset="0" style="stop-color:#09005D" />
						<stop offset="1" style="stop-color:#1A0F91" />
					</linearGradient>
					<path style="fill:url(#SVGID_00000008868530164818601540000003897489927437323711_);" d="M306.46,336.42
					c0.24,0,0.43-0.19,0.43-0.43v-10.5c0-0.24-0.19-0.43-0.43-0.43c-0.24,0-0.43,0.19-0.43,0.43v10.5
					C306.03,336.23,306.23,336.42,306.46,336.42z" />

					<linearGradient id="SVGID_00000025443729853330447630000000491829540970806928_"
						gradientUnits="userSpaceOnUse" x1="-9646.1934" y1="327.6228" x2="-9673.7471" y2="367.6617"
						gradientTransform="matrix(-1 0 0 1 -9343.1201 0)">
						<stop offset="0" style="stop-color:#09005D" />
						<stop offset="1" style="stop-color:#1A0F91" />
					</linearGradient>
					<path style="fill:url(#SVGID_00000025443729853330447630000000491829540970806928_);" d="M304.96,336.42
					c0.23,0,0.43-0.19,0.43-0.42c0.08-3.65,0.28-9.61,0.45-10.32c0.08-0.14,0.07-0.31-0.02-0.45c-0.13-0.2-0.4-0.25-0.6-0.12
					c-0.23,0.15-0.46,0.3-0.7,10.87c0,0.24,0.18,0.43,0.42,0.44H304.96z" />

					<linearGradient id="SVGID_00000016761825174900120070000000089788558416186752_"
						gradientUnits="userSpaceOnUse" x1="-9654.0752" y1="322.199" x2="-9681.6289" y2="362.2381"
						gradientTransform="matrix(-1 0 0 1 -9343.1201 0)">
						<stop offset="0" style="stop-color:#09005D" />
						<stop offset="1" style="stop-color:#1A0F91" />
					</linearGradient>
					<path style="fill:url(#SVGID_00000016761825174900120070000000089788558416186752_);" d="M316.73,337.37
					c0.45,0,0.84-0.36,0.86-0.82l0.57-11.03c0.02-0.48-0.34-0.88-0.82-0.9c-0.45-0.03-0.88,0.34-0.9,0.82l-0.57,11.03
					c-0.02,0.48,0.34,0.88,0.82,0.9C316.7,337.37,316.71,337.37,316.73,337.37z" />
				</g>
				<path class="st44" d="M428.79,368.11v-47.44c0-6.23-4.26-11.3-9.57-11.37c-15.92-0.2-48.75-0.21-75.61,2.45
				c-3.67,0.36-6.52,3.89-6.65,8.21l-2.51,45.86c-0.19,6.07,3.89,11.13,9.06,11.25l76.03,1.7
				C424.63,378.88,428.79,374.07,428.79,368.11z" />
				<path class="st1"
					d="M419.57,325.8c0.07,4.04-0.03,10.44-0.12,14.58c-0.04,2.15-1.65,3.79-3.47,3.54l-13.1-1.8
				c-1.74-0.24-2.97-2.13-2.71-4.17l1.61-12.6c0.23-1.79,1.54-3.11,3.08-3.11h11.61C418.16,322.23,419.54,323.81,419.57,325.8z" />
				<path class="st89" d="M385.34,349.69l-10.93,1.39c-1.53,0.19-2.83-1.29-2.72-3.09l2.39-38.2c4.58-0.17,9.1-0.3,13.46-0.38v37.41
				C387.54,348.29,386.59,349.53,385.34,349.69z" />
				<path class="st1" d="M380.86,343.07c-0.03,0.69-0.52,1.22-1.1,1.22c-0.02,0-0.04,0-0.06,0c-0.61-0.04-1.07-0.65-1.03-1.36
				l1.65-33.34c0.74-0.02,1.47-0.04,2.2-0.06L380.86,343.07z" />
				<g>

					<linearGradient id="SVGID_00000069395056670616670670000013786982235350912696_"
						gradientUnits="userSpaceOnUse" x1="-9751.7061" y1="324.5752" x2="-9779.3105" y2="364.6887"
						gradientTransform="matrix(-1 0 0 1 -9343.1201 0)">
						<stop offset="0" style="stop-color:#09005D" />
						<stop offset="1" style="stop-color:#1A0F91" />
					</linearGradient>
					<path style="fill:url(#SVGID_00000069395056670616670670000013786982235350912696_);" d="M413.52,337.83
					c0.19,0,0.35-0.17,0.37-0.4l0.57-10.5c0.01-0.24-0.14-0.44-0.34-0.46c-0.21-0.02-0.38,0.17-0.39,0.4l-0.57,10.5
					c-0.01,0.24,0.14,0.44,0.34,0.46C413.5,337.83,413.51,337.83,413.52,337.83z" />

					<linearGradient id="SVGID_00000176754277041800259910000010805350906105562788_"
						gradientUnits="userSpaceOnUse" x1="-9750.958" y1="325.279" x2="-9778.4805" y2="365.2733"
						gradientTransform="matrix(-1 0 0 1 -9343.1201 0)">
						<stop offset="0" style="stop-color:#09005D" />
						<stop offset="1" style="stop-color:#1A0F91" />
					</linearGradient>
					<path style="fill:url(#SVGID_00000176754277041800259910000010805350906105562788_);" d="M412.35,337.83
					c0.2,0,0.36-0.18,0.37-0.42l0.3-10.7c0.01-0.24-0.15-0.44-0.35-0.44c-0.23-0.01-0.37,0.18-0.38,0.42l-0.3,10.7
					c-0.01,0.24,0.15,0.44,0.35,0.44C412.34,337.83,412.35,337.83,412.35,337.83z" />

					<linearGradient id="SVGID_00000121989456046168784270000012894963758377167242_"
						gradientUnits="userSpaceOnUse" x1="-9750.0176" y1="326.0915" x2="-9777.582" y2="366.1451"
						gradientTransform="matrix(-1 0 0 1 -9343.1201 0)">
						<stop offset="0" style="stop-color:#09005D" />
						<stop offset="1" style="stop-color:#1A0F91" />
					</linearGradient>
					<path style="fill:url(#SVGID_00000121989456046168784270000012894963758377167242_);" d="M410.77,337.83
					c-0.2-0.01-0.36-0.21-0.35-0.45c0.15-3.59,0.42-10.45,0.43-10.68c0-0.24,0.17-0.43,0.37-0.43c0.2,0,0.37,0.19,0.37,0.43
					c0,0.18-0.36,8.96-0.43,10.72c-0.01,0.23-0.17,0.41-0.37,0.41C410.78,337.83,410.77,337.83,410.77,337.83z M410.84,326.7
					L410.84,326.7L410.84,326.7z" />

					<linearGradient id="SVGID_00000018223809656732153670000015549354610767306661_"
						gradientUnits="userSpaceOnUse" x1="-9748.4121" y1="327.541" x2="-9775.8203" y2="367.3692"
						gradientTransform="matrix(-1 0 0 1 -9343.1201 0)">
						<stop offset="0" style="stop-color:#09005D" />
						<stop offset="1" style="stop-color:#1A0F91" />
					</linearGradient>
					<path style="fill:url(#SVGID_00000018223809656732153670000015549354610767306661_);" d="M408.34,338.26
					c0.39,0,0.72-0.37,0.73-0.83c0.31-10.37,0.26-10.6,0.22-10.76c-0.11-0.46-0.51-0.73-0.9-0.6c-0.36,0.12-0.58,0.52-0.53,0.95
					c0.02,0.62-0.14,6.66-0.25,10.36c-0.01,0.48,0.3,0.87,0.71,0.89C408.33,338.26,408.34,338.26,408.34,338.26z" />

					<linearGradient id="SVGID_00000078757937806358153560000001999294476963718051_"
						gradientUnits="userSpaceOnUse" x1="-9747.3418" y1="328.47" x2="-9774.7822" y2="368.3448"
						gradientTransform="matrix(-1 0 0 1 -9343.1201 0)">
						<stop offset="0" style="stop-color:#09005D" />
						<stop offset="1" style="stop-color:#1A0F91" />
					</linearGradient>
					<path style="fill:url(#SVGID_00000078757937806358153560000001999294476963718051_);" d="M406.76,337.83
					c0.2,0,0.37-0.19,0.37-0.43v-10.5c0-0.24-0.16-0.43-0.37-0.43c-0.2,0-0.37,0.19-0.37,0.43v10.5
					C406.39,337.64,406.55,337.83,406.76,337.83z" />

					<linearGradient id="SVGID_00000116945380003636711780000010956664462049914297_"
						gradientUnits="userSpaceOnUse" x1="-9746.6719" y1="329.0364" x2="-9774.2344" y2="369.0888"
						gradientTransform="matrix(-1 0 0 1 -9343.1201 0)">
						<stop offset="0" style="stop-color:#09005D" />
						<stop offset="1" style="stop-color:#1A0F91" />
					</linearGradient>
					<path style="fill:url(#SVGID_00000116945380003636711780000010956664462049914297_);" d="M405.47,337.83
					c0.2,0,0.36-0.19,0.37-0.42c0.07-3.65,0.23-9.61,0.38-10.32c0.06-0.14,0.06-0.31-0.01-0.45c-0.11-0.2-0.34-0.25-0.51-0.12
					c-0.2,0.15-0.39,0.3-0.59,10.87C405.1,337.63,405.26,337.83,405.47,337.83L405.47,337.83z" />

					<linearGradient id="SVGID_00000014631123842967659480000005850897926724833946_"
						gradientUnits="userSpaceOnUse" x1="-9752.8115" y1="323.6373" x2="-9780.2891" y2="363.5668"
						gradientTransform="matrix(-1 0 0 1 -9343.1201 0)">
						<stop offset="0" style="stop-color:#09005D" />
						<stop offset="1" style="stop-color:#1A0F91" />
					</linearGradient>
					<path style="fill:url(#SVGID_00000014631123842967659480000005850897926724833946_);" d="M415.49,338.79
					c0.39,0,0.71-0.36,0.73-0.82l0.49-11.03c0.02-0.48-0.29-0.88-0.69-0.9c-0.38-0.03-0.75,0.34-0.77,0.82l-0.49,11.03
					c-0.02,0.48,0.29,0.88,0.69,0.9C415.46,338.79,415.48,338.79,415.49,338.79z" />
				</g>
				<path class="st44" d="M525.04,371.03V323.6c0-6.23-4.18-11.3-9.38-11.37c-15.6-0.2-47.79-0.21-74.12,2.45
				c-3.59,0.36-6.39,3.89-6.52,8.21l-2.46,45.86c-0.18,6.07,3.82,11.13,8.88,11.25l74.53,1.7C520.96,381.8,525.04,377,525.04,371.03
				z" />
				<path class="st1"
					d="M516,328.73c0.07,4.04-0.03,10.44-0.12,14.58c-0.04,2.15-1.62,3.79-3.4,3.54l-12.84-1.8
				c-1.71-0.24-2.92-2.13-2.66-4.17l1.58-12.6c0.22-1.79,1.51-3.11,3.02-3.11h11.38C514.61,325.16,515.97,326.74,516,328.73z" />
				<path class="st89" d="M482.45,352.61L471.73,354c-1.5,0.19-2.78-1.29-2.67-3.09l2.34-38.2c4.49-0.17,8.92-0.3,13.19-0.38v37.41
				C484.6,351.22,483.67,352.46,482.45,352.61z" />
				<path class="st1" d="M478.06,345.99c-0.03,0.69-0.51,1.22-1.07,1.22c-0.02,0-0.04,0-0.06,0c-0.59-0.04-1.05-0.65-1.01-1.36
				l1.62-33.34c0.72-0.02,1.44-0.04,2.16-0.06L478.06,345.99z" />
				<g>

					<linearGradient id="SVGID_00000178905177460576696110000001690898699520546705_"
						gradientUnits="userSpaceOnUse" x1="-9848.248" y1="327.5003" x2="-9875.8594" y2="367.6233"
						gradientTransform="matrix(-1 0 0 1 -9343.1201 0)">
						<stop offset="0" style="stop-color:#09005D" />
						<stop offset="1" style="stop-color:#1A0F91" />
					</linearGradient>
					<path style="fill:url(#SVGID_00000178905177460576696110000001690898699520546705_);" d="M510.04,340.76c0.01,0,0.02,0,0.02,0
					c0.19,0,0.35-0.17,0.36-0.4l0.56-10.5c0.01-0.24-0.14-0.44-0.34-0.46c-0.21-0.02-0.37,0.17-0.38,0.4l-0.56,10.5
					C509.7,340.54,509.85,340.74,510.04,340.76z" />

					<linearGradient id="SVGID_00000062163141182229884250000010408753991783726758_"
						gradientUnits="userSpaceOnUse" x1="-9847.5273" y1="328.2066" x2="-9875.0479" y2="368.1971"
						gradientTransform="matrix(-1 0 0 1 -9343.1201 0)">
						<stop offset="0" style="stop-color:#09005D" />
						<stop offset="1" style="stop-color:#1A0F91" />
					</linearGradient>
					<path style="fill:url(#SVGID_00000062163141182229884250000010408753991783726758_);" d="M508.92,340.76
					c0.19,0,0.35-0.18,0.36-0.42l0.29-10.7c0.01-0.24-0.15-0.44-0.35-0.44c-0.23-0.01-0.36,0.18-0.37,0.42l-0.29,10.7
					c-0.01,0.24,0.15,0.44,0.35,0.44C508.91,340.76,508.92,340.76,508.92,340.76z" />

					<linearGradient id="SVGID_00000038392366966667844720000008838842638612866713_"
						gradientUnits="userSpaceOnUse" x1="-9846.6162" y1="329.0179" x2="-9874.1826" y2="369.0745"
						gradientTransform="matrix(-1 0 0 1 -9343.1201 0)">
						<stop offset="0" style="stop-color:#09005D" />
						<stop offset="1" style="stop-color:#1A0F91" />
					</linearGradient>
					<path style="fill:url(#SVGID_00000038392366966667844720000008838842638612866713_);" d="M507.37,340.76
					c-0.2-0.01-0.35-0.21-0.34-0.45c0.14-3.59,0.41-10.45,0.42-10.69c0-0.24,0.16-0.43,0.36-0.43c0.2,0,0.36,0.19,0.36,0.43
					c0,0.18-0.35,8.96-0.42,10.72c-0.01,0.23-0.17,0.41-0.36,0.41C507.38,340.76,507.38,340.76,507.37,340.76z M507.44,329.63
					L507.44,329.63L507.44,329.63z" />

					<linearGradient id="SVGID_00000018934111329339562980000014510362291692058812_"
						gradientUnits="userSpaceOnUse" x1="-9845.0625" y1="330.4704" x2="-9872.4561" y2="370.2772"
						gradientTransform="matrix(-1 0 0 1 -9343.1201 0)">
						<stop offset="0" style="stop-color:#09005D" />
						<stop offset="1" style="stop-color:#1A0F91" />
					</linearGradient>
					<path style="fill:url(#SVGID_00000018934111329339562980000014510362291692058812_);" d="M504.97,341.19c0.01,0,0.02,0,0.03,0
					c0.39,0,0.7-0.37,0.72-0.83c0.3-10.37,0.25-10.6,0.22-10.76c-0.1-0.46-0.5-0.73-0.88-0.6c-0.35,0.12-0.57,0.52-0.52,0.95
					c0.02,0.62-0.14,6.66-0.25,10.36C504.26,340.77,504.57,341.17,504.97,341.19z" />

					<linearGradient id="SVGID_00000015353819671518567980000013737228385368846724_"
						gradientUnits="userSpaceOnUse" x1="-9844.0254" y1="331.3985" x2="-9871.4541" y2="371.2561"
						gradientTransform="matrix(-1 0 0 1 -9343.1201 0)">
						<stop offset="0" style="stop-color:#09005D" />
						<stop offset="1" style="stop-color:#1A0F91" />
					</linearGradient>
					<path style="fill:url(#SVGID_00000015353819671518567980000013737228385368846724_);" d="M503.44,340.76
					c0.2,0,0.36-0.19,0.36-0.43v-10.5c0-0.24-0.16-0.43-0.36-0.43c-0.2,0-0.36,0.19-0.36,0.43v10.5
					C503.08,340.57,503.24,340.76,503.44,340.76z" />

					<linearGradient id="SVGID_00000105384369965919406150000013096017042001997984_"
						gradientUnits="userSpaceOnUse" x1="-9843.375" y1="331.9631" x2="-9870.9395" y2="372.0183"
						gradientTransform="matrix(-1 0 0 1 -9343.1201 0)">
						<stop offset="0" style="stop-color:#09005D" />
						<stop offset="1" style="stop-color:#1A0F91" />
					</linearGradient>
					<path style="fill:url(#SVGID_00000105384369965919406150000013096017042001997984_);" d="M502.18,340.76
					c0.19,0,0.35-0.19,0.36-0.42c0.07-3.65,0.23-9.61,0.37-10.32c0.06-0.14,0.06-0.31-0.01-0.45c-0.11-0.2-0.33-0.25-0.5-0.12
					c-0.2,0.15-0.38,0.3-0.58,10.87C501.82,340.56,501.97,340.75,502.18,340.76L502.18,340.76z" />

					<linearGradient id="SVGID_00000005245761848113888110000007813870773839601575_"
						gradientUnits="userSpaceOnUse" x1="-9849.3184" y1="326.5664" x2="-9876.79" y2="366.4858"
						gradientTransform="matrix(-1 0 0 1 -9343.1201 0)">
						<stop offset="0" style="stop-color:#09005D" />
						<stop offset="1" style="stop-color:#1A0F91" />
					</linearGradient>
					<path style="fill:url(#SVGID_00000005245761848113888110000007813870773839601575_);" d="M511.96,341.72c0.01,0,0.03,0,0.04,0
					c0.38,0,0.7-0.36,0.72-0.82l0.48-11.03c0.02-0.48-0.28-0.88-0.68-0.9c-0.38-0.03-0.73,0.34-0.75,0.82l-0.48,11.03
					C511.26,341.29,511.56,341.69,511.96,341.72z" />
				</g>
			</g>
		</g>
	</g>
</svg>