<?xml version="1.0" encoding="utf-8"?>
<!-- Generator: Adobe Illustrator 26.3.1, SVG Export Plug-In . SVG Version: 6.00 Build 0)  -->
<svg version="1.1" id="Layer_1" xmlns="http://www.w3.org/2000/svg" xmlns:xlink="http://www.w3.org/1999/xlink" x="0px"
	y="0px" viewBox="0 0 838.67 565.89" style="enable-background:new 0 0 838.67 565.89;" xml:space="preserve">
	<style type="text/css">
		.st0 {
			fill: rgba(96, 96, 96, 0);
			stroke: #494949;
			stroke-width: 2;
			stroke-miterlimit: 10;
		}

		.st1 {
			fill: #FFFFFF;
		}

		.st2 {
			fill: #E5E5E5;
		}

		.st3 {
			fill: #777777;
		}

		.st4 {
			fill: #C1C1C1;
		}

		.st5 {
			fill: none;
			stroke: #FFFFFF;
			stroke-width: 0.5;
			stroke-miterlimit: 10;
		}

		.st6 {
			fill: #D8D8D8;
		}

		.st7 {
			fill: #EDEDED;
		}

		.st8 {
			opacity: 0.25;
			clip-path: url(#SVGID_00000132048114086677833900000006938098311958935943_);
		}

		.st9 {
			opacity: 0.57;
			fill: #10A181;
		}

		.st10 {
			opacity: 0.57;
			fill: #DE3C4B;
		}

		.st11 {
			opacity: 0.57;
			fill: #1A72AD;
		}

		.st12 {
			fill: #FFC800;
		}

		.st13 {
			fill: none;
			stroke: #898989;
			stroke-width: 0.5;
			stroke-miterlimit: 10;
		}

		.st14 {
			fill: #F5F5F5;
		}

		.st15 {
			fill: #606060;
		}

		.st16 {
			opacity: 0.5;
			fill: #FFFFFF;
		}

		.st17 {
			fill: #444444;
		}

		.st18 {
			fill: none;
			stroke: #FFFFFF;
			stroke-width: 2;
			stroke-linecap: round;
			stroke-linejoin: round;
			stroke-miterlimit: 10;
		}

		.st19 {
			clip-path: url(#SVGID_00000122001248766675614950000011185531349977746355_);
			fill: #FFC800;
		}

		.st20 {
			clip-path: url(#SVGID_00000122001248766675614950000011185531349977746355_);
		}

		.st21 {
			fill: #DBDBDB;
		}

		.st22 {
			fill: none;
			stroke: #6B6B6B;
			stroke-width: 0.75;
			stroke-miterlimit: 10;
		}

		.st23 {
			clip-path: url(#SVGID_00000170267735978674431270000010564323494146306975_);
			fill: #FFC800;
		}

		.st24 {
			fill: #3F3F3F;
		}

		.st25 {
			fill: #474747;
		}

		.st26 {
			fill: #7A7A7A;
		}

		.st27 {
			fill: #FFB000;
		}

		.st28 {
			fill: none;
			stroke: #BCBCBC;
			stroke-miterlimit: 10;
		}

		.st29 {
			fill: #FFCE31;
		}

		.st30 {
			fill: #A8A8A8;
		}

		.st31 {
			fill: #4F4F4F;
		}

		.st32 {
			fill: #8F8F8F;
		}

		.st33 {
			fill: #8A8A8A;
		}

		.st34 {
			fill: none;
			stroke: #8A8A8A;
			stroke-width: 7.5904;
			stroke-miterlimit: 10;
		}

		.st35 {
			fill: none;
			stroke: #8A8A8A;
			stroke-width: 6.8313;
			stroke-miterlimit: 10;
		}

		.st36 {
			fill: none;
			stroke: #FFC800;
			stroke-width: 6.0723;
			stroke-miterlimit: 10;
		}

		.st37 {
			fill: none;
			stroke: #8A8A8A;
			stroke-width: 6.0723;
			stroke-miterlimit: 10;
		}

		.st38 {
			fill: none;
			stroke: #606060;
			stroke-miterlimit: 10;
		}

		.st39 {
			fill: #F4F4F4;
		}

		.st40 {
			fill: #E8E8E8;
		}

		.st41 {
			fill: #6CA3EA;
		}

		.st42 {
			fill: #657283;
		}

		.st43 {
			fill: #B5BFC7;
		}

		.st44 {
			fill: #FCB900;
		}

		.st45 {
			fill: #131F2D;
		}

		.st46 {
			fill: #364154;
		}

		.st47 {
			fill: #FDAB95;
		}

		.st48 {
			fill: #ED7B61;
		}

		.st49 {
			fill: #A88F02;
		}

		.st50 {
			fill: #4B9BA9;
		}

		.st51 {
			fill: #B53C37;
		}

		.st52 {
			fill: #99AEF9;
		}

		.st53 {
			fill: #F3F3F3;
		}

		.st54 {
			opacity: 0.3;
		}

		.st55 {
			fill: #B1B1B1;
		}

		.st56 {
			fill: #CFCFCF;
		}

		.st57 {
			fill: #333333;
		}

		.st58 {
			fill: #C6C6C6;
		}

		.st59 {
			opacity: 0.53;
		}

		.st60 {
			clip-path: url(#SVGID_00000166666802920225902580000013390184738849650833_);
			fill: #FCB900;
		}

		.st61 {
			clip-path: url(#SVGID_00000115476011153805706600000000504668741327824769_);
			fill: #FCB900;
		}

		.st62 {
			clip-path: url(#SVGID_00000003069522532757777610000016098783528586803872_);
			fill: #FCB900;
		}

		.st63 {
			opacity: 0.44;
			fill: #FFFFFF;
		}

		.st64 {
			opacity: 0.48;
		}

		.st65 {
			fill: url(#SVGID_00000161603792009722164690000013463637764211236022_);
		}

		.st66 {
			fill: #91B3FA;
		}

		.st67 {
			fill: url(#SVGID_00000028297226758654332310000002496368135189040787_);
		}

		.st68 {
			opacity: 0.91;
			fill: #FFFFFF;
		}

		.st69 {
			fill: url(#SVGID_00000024683159520406453740000008610794187369259438_);
		}

		.st70 {
			fill: url(#SVGID_00000042017771635221495220000006594410215405824931_);
		}

		.st71 {
			fill: url(#SVGID_00000080185235801224975570000011871592545958911392_);
		}

		.st72 {
			fill: #828282;
		}

		.st73 {
			fill: #EF9D8E;
		}

		.st74 {
			fill: #E2A100;
		}

		.st75 {
			opacity: 0.72;
			fill: #FFFFFF;
		}

		.st76 {
			fill: url(#SVGID_00000011734087775546933440000000122454733623676575_);
		}

		.st77 {
			fill: url(#SVGID_00000101823377135801796580000008120187477553286311_);
		}

		.st78 {
			opacity: 0.9;
		}

		.st79 {
			fill-rule: evenodd;
			clip-rule: evenodd;
			fill: #FFFFFF;
		}

		.st80 {
			fill: #999999;
		}

		.st81 {
			fill: url(#SVGID_00000047023279819261221350000004919070931758262427_);
		}

		.st82 {
			fill: url(#SVGID_00000047776945503869074380000004794946925710793114_);
		}

		.st83 {
			fill: url(#SVGID_00000036964672650624095940000004417855345682929552_);
		}

		.st84 {
			fill: url(#SVGID_00000000918450358269905680000018415752406130878381_);
		}

		.st85 {
			fill: url(#SVGID_00000108992887900020825800000017372388260980307368_);
		}

		.st86 {
			fill: url(#SVGID_00000152978006399326318530000016946868946241098677_);
		}

		.st87 {
			fill: url(#SVGID_00000044157410606948776220000018329248852968856995_);
		}

		.st88 {
			fill: url(#SVGID_00000061459247853909574920000013408273190845599874_);
		}

		.st89 {
			fill: #D89A00;
		}

		.st90 {
			fill: url(#SVGID_00000019643425196092737210000001301819073301885577_);
		}

		.st91 {
			fill: #AAAAAA;
		}

		.st92 {
			fill-rule: evenodd;
			clip-rule: evenodd;
			fill: #4F4F4F;
		}

		.st93 {
			fill: none;
			stroke: #AAAAAA;
			stroke-miterlimit: 10;
		}

		.st94 {
			fill: #FFCE31;
			stroke: #919191;
			stroke-miterlimit: 10;
		}

		.st95 {
			fill: #BCBCBC;
		}

		.st96 {
			fill: none;
			stroke: #474747;
			stroke-miterlimit: 10;
		}

		.st97 {
			fill: none;
			stroke: #919191;
			stroke-width: 0.75;
			stroke-miterlimit: 10;
		}

		.st98 {
			fill: #919191;
		}
	</style>
	<rect x="-11779.83" y="-5563.33" class="st0" width="16383" height="16383" />
	<g>
		<g>
			<path class="st40" d="M74.67,526.61c0,0-112.98-207.46-23.72-319.44c136-170.62,280.49,33.15,366.72-69.45
			c118-140.4,378.34-94.54,332.51,98.53c-32.15,135.42,125.24,109.33,52.42,293.55L74.67,526.61z" />
			<g>
				<g>
					<path class="st41" d="M413.21,430.37H306.53c-7,0-12.67-5.67-12.67-12.67l0,0h119.35V430.37z" />
					<g>
						<polygon class="st42" points="356.26,522.03 349.06,522.03 347.03,430.37 358.04,430.37 					" />
						<polygon class="st42"
							points="387.57,522.03 317.51,522.03 317.51,515.71 353.21,512.48 387.57,515.71 					" />
						<path class="st42" d="M310.7,521.04c0-3.18,2.58-5.76,5.76-5.76c3.18,0,5.76,2.58,5.76,5.76c0,3.18-2.58,5.76-5.76,5.76
						C313.28,526.8,310.7,524.22,310.7,521.04z" />
						<path class="st42" d="M380.76,521.04c0-3.18,2.58-5.76,5.76-5.76c3.18,0,5.76,2.58,5.76,5.76c0,3.18-2.58,5.76-5.76,5.76
						C383.34,526.8,380.76,524.22,380.76,521.04z" />
						<path class="st42" d="M375.99,436.38h-46.92c-3.32,0-6.01-2.69-6.01-6.01l0,0h58.94l0,0
						C382.01,433.69,379.32,436.38,375.99,436.38z" />
					</g>
					<path class="st43" d="M303.86,430.37c-5.52,0-10-4.48-10-10v-79.89c0-15.82,10.34-28.64,23.1-28.64h52.23
					c12.76,0,23.1,12.82,23.1,28.64v89.89H303.86z" />
					<path class="st42" d="M304.89,430.37c-3.03,0-5.48-2.46-5.48-5.48v-84.41c0-15.82,10.34-28.64,23.1-28.64h52.23
					c12.76,0,23.1,12.82,23.1,28.64v21.7v68.19H304.89z" />
					<path class="st43" d="M425.94,430.37H298.17c-3.5,0-6.34-2.84-6.34-6.34l0,0c0-3.5,2.84-6.34,6.34-6.34h127.77
					c3.5,0,6.34,2.84,6.34,6.34l0,0C432.27,427.53,429.44,430.37,425.94,430.37z" />
				</g>
			</g>
			<g>
				<path class="st44" d="M499.48,529.07h-47.57c-2.29-2.79-3.57-15.92-3.22-19.29c0.07-0.68,0.93-3.83,0.93-3.83
				s17.56-7.41,19.8,2.54c0.07,0.31,0.15,0.62,0.24,0.92c2.81,9.31,15.42,13.53,22.7,14.71
				C497.09,524.89,498.84,527.35,499.48,529.07z" />
				<path class="st45" d="M369.8,380.59c1.72,0,65.12,8.86,78.31,23.69c6.59,7.41,23.82,104.47,23.82,104.47s-8.01,5.69-25.62,0.36
				c0,0-23.24-62.81-22.29-80.56c0.26-4.91-56.36-6.96-66.38-9.32c-10.02-2.36-22.46-8.13-17.07-17.78
				C345.97,391.81,369.8,380.59,369.8,380.59z" />
				<path class="st44" d="M467.81,529.07h-47.57c-2.29-2.79-1.44-13.09-1.1-16.46c0.07-0.68,0.12-1.07,0.12-1.07
				s16.24-12.99,18.48-3.04c0.07,0.31,0.15,0.62,0.24,0.92c2.81,9.31,15.42,13.53,22.7,14.71
				C465.42,524.89,467.17,527.35,467.81,529.07z" />
				<path class="st46" d="M344.54,385.71c1.72,0,77.44,3.76,90.63,20.09c6.59,8.16,7.57,102.39,7.57,102.39s-8.15,10.11-25.77,4.24
				c0,0-16.18-49.99-14.99-84.03c0.19-5.41-47.13-6.03-60.13-7.06c-16.49-1.31-20.65-28.98-15.25-39.6
				C332,371.11,344.54,385.71,344.54,385.71z" />
				<g>
					<path class="st44" d="M360.61,279.16l-0.95,0.19c-4.23,0.85-8.39-1.91-9.24-6.14l-1-4.96c-0.85-4.23,1.91-8.39,6.14-9.24
					l0.95-0.19c4.23-0.85,8.39,1.91,9.24,6.14l1,4.96C367.6,274.14,364.84,278.3,360.61,279.16z" />
					<path class="st44"
						d="M394.64,384.72c-9.49,15.16-68.78,19.73-68.78,19.73c-1-2.42-5.51-41.51-6.27-44.21
					c-1.93-6.74-3.18-14.18-3.97-21.46c-0.01-0.09-0.02-0.19-0.03-0.28c-1.37-12.63-1.37-24.78-1.19-32.08
					c0.11-4.22,0.27-6.82,0.28-6.95v0c0.14-0.06,0.29-0.12,0.43-0.18c3.59-1.51,7.03-2.8,10.33-3.93c0.02,0,0.03-0.01,0.03-0.01
					c2.77-0.95,5.44-1.76,8.01-2.46c4.51-1.24,8.71-2.13,12.6-2.75c4.58-0.72,8.72-1.07,12.44-1.15c0.17-0.01,0.33-0.01,0.5-0.01
					c0.98-0.02,1.93-0.01,2.85,0.01c9.26,0.2,15.42,2.04,18.54,3.27c0.43,0.17,0.81,0.33,1.12,0.47c0.04,0.02,0.08,0.03,0.12,0.05
					c0.35,0.16,0.62,0.29,0.82,0.39c0.02,0.01,0.05,0.02,0.08,0.04c0.09,0.05,0.18,0.1,0.27,0.15l4.88,51.27L394.64,384.72z" />
					<path class="st44" d="M457.29,356.88c-6.78,3.15-47.09,5.79-50.96,4.67c-1.99-0.57-10.3-7.89-18.66-16.9
					c-0.01-0.01-0.01-0.01-0.01-0.01c-7.91-8.52-15.89-18.54-18.58-25.76c-5.53-14.83-0.78-27.99-0.78-27.99s10.29-0.04,14.48,2.49
					c4.19,2.54,28.17,46.69,31.37,47.86c3.21,1.17,41.19,3.34,45.53,5.41C459.69,346.65,464.06,353.73,457.29,356.88z" />
					<path class="st47" d="M359,290.79l-0.01,2.5c0,0,0.69,7.81-8.92,8.96c-9.61,1.16-16.9-3.02-16.65-9.04
					c0.86-4.67,1.8-7.87,1.86-11.73c0.02-1.43-0.08-2.96-0.35-4.67l18.63-0.4l5.49,0.89L359,290.79z" />
					<path class="st48" d="M359.05,277.29l-0.05,13.5c-1.98,0.92-4.21,1.49-6.71,1.49c-8.56,0.01-17.08-13.76-17.35-15.48
					L359.05,277.29z" />
					<path class="st47" d="M360.14,283.85c0,0-23.85,4.86-26.65-10.04c-2.8-14.9-7.76-24.31,7.35-28.04
					c15.11-3.73,19.14,1.4,21.29,6.14C364.28,256.66,366.28,282.2,360.14,283.85z" />
					<path class="st45" d="M366.76,240.83c0,0-6.65-0.5-14.51-3.9c-6.37-2.76-14.4,0.3-17.01,1.68c0.07-0.42,0.24-0.99,0.63-1.57
					c0,0-1.17,0.83-1.34,1.99c-0.12,0.09-0.17,0.15-0.14,0.17c0,0-1.33-0.24-2.18,0.14c0,0,0.6-0.09,0.81,0.3
					c0.02,0.04,0.06,0.07,0.1,0.11c-9.93,4.82-10.82,20.52-7.62,24.15c3.85,4.37,8.48,14.2,8.48,14.2s1.68-2.33,0.97-6.17
					c-0.71-3.85,2.62-3.85,6.81-5.61c4.19-1.75,0.69-6.65,4.36-9.62c3.67-2.98,17.13-1.25,16.95-3.52
					C368.07,251.35,366.76,241.35,366.76,240.83z" />
					<path class="st49" d="M323.63,390.02c-1.14-7.72-3.86-17.52-5.14-25.86c-1.06-6.93-2.08-18.09-2.87-25.37
					c-0.01-0.09-0.02-0.19-0.03-0.28c0.05,0.02,0.14,0.16,0.19,0.1c2.63-3.2,9.82-6.7,18.53,6.05c1.74,2.54,8.85,18.15,8.59,21.35
					C341.74,380.59,323.63,390.02,323.63,390.02z" />
					<path class="st47" d="M329.3,367.96c-0.19-1.15,0.02-2.6,0.92-4.4c0,0,1.12-0.72,2.6-1.57c2.21-1.25,5.23-2.75,6.6-2.51
					c0.25,0.04,0.58,0.12,0.97,0.21c3.25,0.78,10.81,3.11,11.96,4.47c0.94,1.12,2.23,2.55,3.11,3.8H329.3z" />
					<path class="st44" d="M334.31,367.96h-63.74c-0.17-0.82-0.18-1.57,0.05-2.14c1.9-4.8,5.61-12.71,9.89-21.19
					c3.14-6.24,6.59-12.79,9.84-18.65c4.52-8.14,8.65-14.94,11.08-17.74c1.92-2.19,4.34-4.04,6.86-5.56c2.14-1.29,4.36-2.35,6.4-3.2
					v0c0.14-0.06,0.29-0.12,0.43-0.18c4.44-1.8,7.96-2.59,7.96-2.59s0.05,2.01,0.05,5.11c0.01,8.98-0.33,27.09-3.2,31.51
					c-0.8,1.23-2.29,3.09-4.15,5.27c-0.05,0.06-0.11,0.12-0.16,0.18c-1.01,1.18-2.12,2.45-3.29,3.76
					c-6.65,7.45-15.08,16.2-16.1,17.27c-0.07,0.07-0.11,0.11-0.11,0.11h0.12l17.87,0.25l5.48,0.07l11.37,0.16
					c0.79,0.34,1.4,0.89,1.86,1.58C333.92,363.6,334.26,365.94,334.31,367.96z" />
					<path class="st49" d="M457.29,356.88c-6.78,3.15-47.09,5.79-50.96,4.67c-1.99-0.57-10.3-7.89-18.66-16.9
					c0.41,0.05,4.24-6.32,21.67,8.93c0,0,4.57,2.03,16.99,0.89C438.76,353.34,454.72,352.92,457.29,356.88z" />
					<path class="st44" d="M340.43,279.16l-0.95,0.19c-4.23,0.85-8.39-1.91-9.24-6.14l-1-4.96c-0.85-4.23,1.91-8.39,6.14-9.24
					l0.95-0.19c4.23-0.85,8.39,1.91,9.24,6.14l1,4.96C347.42,274.14,344.66,278.3,340.43,279.16z" />
					<g>
						<path class="st44"
							d="M333.04,261.28c-0.64-1.15-1.57-10.39,0.97-17.75c1.23-3.56,3.21-5.58,5.7-6.95
						c0.9-0.5,1.91-0.76,2.94-0.76l2.5,0.04c-8.24,3.49-10.15,22.16-9.51,24.15c-0.02-0.06-0.05-0.11-0.06-0.14L333.04,261.28z" />
					</g>
					<g>
						<path class="st44" d="M357.09,280.71c-13.85,0-20.71-10.95-20.78-11.06l1.24-0.76l-0.62,0.38l0.62-0.38
						c0.06,0.1,6.52,10.36,19.54,10.36c0.09,0,0.17,0,0.26,0l0.02,1.45C357.28,280.71,357.18,280.71,357.09,280.71z" />
					</g>
					<path class="st49" d="M337.96,274.34L337.96,274.34c-2.24,0.45-4.44-1.01-4.89-3.25l-0.4-2c-0.45-2.24,1.01-4.44,3.25-4.89l0,0
					c2.24-0.45,4.44,1.01,4.89,3.25l0.4,2C341.66,271.69,340.2,273.89,337.96,274.34z" />
					<path class="st44" d="M358.81,281.19h-1.31c-0.67,0-1.21-0.54-1.21-1.21l0,0c0-0.67,0.54-1.21,1.21-1.21h1.31
					c0.67,0,1.21,0.54,1.21,1.21l0,0C360.02,280.65,359.48,281.19,358.81,281.19z" />
				</g>
			</g>
			<g>
				<g>
					<path class="st47" d="M192.21,523.1c0.28,3.83,5.68,3.87,11.82,3.16c6.13-0.71,4.5,0.84,13.09,0.96
					c8.59,0.12,11.55-2.72,11.96-3.95c0.37-1.09-3.76-2-8.19-3.08c-0.56-0.13-1.11-0.27-1.67-0.41c-4.99-1.27-8.29-5-12.56-8.26
					c-4.04-3.09-9.26-14.26-9.26-14.26l-11.73-0.53c0,0,4.94,10.02,6.79,14.34c1.09,2.54,0.63,5.66,0.15,8.06
					C192.36,520.42,192.11,521.75,192.21,523.1z" />
					<path class="st45" d="M204.03,526.26c6.13-0.71,4.5,0.84,13.09,0.96c8.59,0.12,11.55-2.72,11.96-3.95
					c0.37-1.09-3.76-2-8.19-3.08l-0.05,0.08c0,0-5.53,2.97-12.6,2.26c-5.76-0.58-11.64-2.98-15.62-3.41
					c-0.25,1.3-0.51,2.64-0.41,3.98C192.49,526.93,197.89,526.97,204.03,526.26z" />
				</g>
				<g>
					<path class="st47" d="M111.2,523.9c0.28,3.83,5.68,3.88,11.81,3.17c6.13-0.71,4.5,0.84,13.09,0.97
					c8.59,0.13,11.55-2.71,11.96-3.93c0.37-1.09-3.76-2.01-8.19-3.09c-0.56-0.13-1.11-0.28-1.67-0.42
					c-4.99-1.27-8.29-5.01-12.55-8.27c-4.04-3.09,0-21.4,0-21.4l-12.9-1.26c0,0,0.62,15.41,0.61,22.42c0,2.76-1.27,5.42-1.75,7.82
					C111.36,521.21,111.11,522.55,111.2,523.9z" />
					<path class="st45" d="M123.02,527.07c6.13-0.71,4.5,0.84,13.09,0.97c8.59,0.13,11.55-2.71,11.96-3.93
					c0.37-1.09-3.76-2.01-8.19-3.09l-0.05,0.08c0,0-5.53,2.96-12.6,2.24c-5.76-0.58-11.64-2.99-15.62-3.43
					c-0.26,1.3-0.51,2.63-0.41,3.98C111.48,527.73,116.89,527.77,123.02,527.07z" />
				</g>
				<path class="st45" d="M148.85,207.51c2.22-9.13-1-13.39-3.9-15.65c-1.38-3.36-2.95-5.79-4.56-6.7c-2.93-1.67-6.45-1.85-8.9-1.7
				c0.63-0.65,1.88-0.89,1.88-0.89c-1.52-0.23-4.93,1.29-4.93,1.29c-21.2-8.17-24.53,23.04-24.08,30.3
				c0.44,7.25,0.38,15.79-10.65,21.5c-21.04,10.9,6.99,51.98,6.99,51.98c-0.53-5.86,26.5-36.78,40.61-46.04
				c3.43-5.06,4.65-13.99,4.75-14.69c-0.59,7.08-1.8,11.05-2.89,13.29C149.6,234.27,150.55,220.06,148.85,207.51z" />
				<path class="st47"
					d="M140.48,242.05c0.07,0.03-6.81,3.6-11.99,2.19c-4.87-1.33-8.05-7.64-7.98-7.65
				c2.06-0.41,2.66-3.24,2.61-15.42l0.93,0.18l15.67,3.1c0,0-0.36,4.93-0.37,9.58C139.35,237.93,139.59,241.63,140.48,242.05z" />
				<path class="st48"
					d="M139.73,224.45c0,0-0.36,4.93-0.37,9.58c-8.77-0.25-13.41-8.25-15.31-12.68L139.73,224.45z" />
				<path class="st44" d="M203.5,503.46c0.77,2.41-0.96,4.89-3.49,5.01l-6.12,0.29l-6.48,0.2c-1.62,0.05-3.17-0.66-4.19-1.91
				c-5.17-6.34-21.09-27.49-30.74-58.21c-0.27-0.86-0.56-1.73-0.86-2.62c-6.38-18.59-19.6-41.93-26.56-63.06
				c-1.11-3.36-2.1-6.53-3-9.53c-0.29-0.96-0.56-1.9-0.83-2.83c-5.13-17.84-6.62-29.55-7.99-42.06l50.3,0.4
				C163.53,329.14,174.12,411.45,203.5,503.46z" />
				<path class="st43" d="M156.49,300.24c-0.13,23.94,3.51,34.21,3.51,34.21s-21.54,10.94-47.14,2.89
				c-0.3-0.09-7.03-39.55-6.39-43.12c1.19-6.66,1.22-13.55,0.62-20.05c-1.56-17.21-6.21-31.49-6.21-31.49
				c6.97-1.59,13.51-4.38,20.77-7.1c1.67,2.08,6.77,4.25,11.2,4.16c5.1-0.11,6.75-2.29,6.49-4.68c5.43,3.02,9.77,5.88,9.77,5.88
				c4.62,8.02,13.98,15.81,14.66,28.12C163.95,272.07,156.5,299.57,156.49,300.24z" />
				<path class="st50" d="M113.23,302.91c-2.2,3.11-6.41,22.03-16.9,24.41c5.4-13.48,9.51-19.39,10.15-23.54
				c1.19-7.74,1.22-15.74,0.62-23.3c3.51-6.15,6.13-10.37,6.13-10.37c0.28-1,5.58-17.39,7.28-2.74
				C122.21,282.03,115.69,299.43,113.23,302.91z" />
				<path class="st46" d="M148.88,239.17c0,0,7.46,4.05,10.61,8.05c3.15,4,21.57,37.11,21.57,40.42c0,3.31-18.7,1.15-18.7,1.15
				L148.88,239.17z" />
				<path class="st47" d="M142.66,228.85c0,0-20.75,0.34-20.76-12.58c-0.01-12.93-2.7-21.59,10.55-22.35
				c13.25-0.76,15.83,4.16,16.88,8.48C150.37,206.71,148.05,228.43,142.66,228.85z" />
				<path class="st45" d="M141.89,193.6c0,0-5.68,15.16-14.4,17.41c-8.72,2.24-12.5-0.09-12.5-0.09s6.69-5.31,8.08-14.59
				C123.06,196.33,137.6,186.38,141.89,193.6z" />
				<path class="st45" d="M140.48,194.83c0,0,4.24,3.39,5.28,6.68c1.03,3.29,1.5,10.07,3.47,9.84c0,0,4.28-10.31-0.53-16.14
				C143.6,189.03,140.48,194.83,140.48,194.83z" />
				<path class="st46" d="M139.35,235.05c0,0,12.01,29.66,12.36,35.66c0.35,6,1.41,98.15,1.41,98.15s-0.71,4.24,7.41,2.47
				c8.12-1.77,10.24-3.53,10.24-3.53s-7.77-56.85-5.65-76.62c2.12-19.77-16.24-52.02-16.24-52.02L139.35,235.05z" />
				<path class="st49" d="M193.89,508.76l-7.03,0.22c-1.26,0.04-2.46-0.5-3.26-1.47c-4.73-5.73-21.22-27.16-31.12-58.67
				c-0.27-0.86-0.56-1.73-0.86-2.62c-6.38-18.59-19.6-41.93-26.56-63.06c-1.11-3.36-2.1-6.53-3-9.53c-0.29-0.96-0.56-1.9-0.83-2.83
				l7.41-5.62c0,0,22.24,36.01,29.13,69.91C163.74,464.53,187.69,499.95,193.89,508.76z" />
				<path class="st44" d="M129.4,438.24c0.12,15.59-0.62,50.34-2.52,67.33c-0.17,1.55-1.49,2.73-3.05,2.73h-5.25
				c-2.21,0-3.87-0.02-4.97-0.03c-0.95-0.01-1.76-0.7-1.95-1.63c-5.22-26.56-8.95-48.63-11.69-67.69
				c-2.29-15.96-4.32-29.64-5.89-41.42c-1.57-11.85-2.67-21.78-3.06-30.16c-0.06-1.32-0.11-2.61-0.13-3.85
				c-0.02-1.25-0.03-2.47-0.02-3.65l43.46-4.24C133.8,384.5,129.33,428.66,129.4,438.24z" />
				<path class="st49" d="M118.58,508.3c-1.99,0-3.52-0.01-4.61-0.03c-1.16-0.01-2.14-0.84-2.37-1.98
				c-5.18-26.41-8.9-48.37-11.62-67.35c-2.29-15.96-4.32-29.64-5.89-41.42c-1.57-11.85-2.67-21.78-3.06-30.16l15.95,9.38
				c0,0-10.18,3.59-6.3,30.78C104.57,434.71,113.18,504.45,118.58,508.3z" />
				<path class="st46" d="M120.64,367.1c0,0-3.06,11.06-13.65,9.65s-25.65-7.77-25.65-7.77s4.53-14.3,10.15-33.09
				c6.81-22.75,15.25-52.07,19.22-70.57c1.12-5.18,1.88-9.51,2.16-12.61l8.79-17.05c0,0,13.1,29.41,13.81,36.82
				C136.17,279.89,120.64,367.1,120.64,367.1z" />
				<path class="st45" d="M120.17,288.01c-0.47,12-3.3,35.31-28.48,47.78c-0.07,0.03-0.13,0.07-0.2,0.1
				c6.81-22.75,15.25-52.07,19.22-70.57C115.33,272.23,120.42,281.4,120.17,288.01z" />
				<path class="st47" d="M110.06,271.37l11.6-35.72c-0.03,0.01-14.65,4.35-22,8.06c0,0-4.6,5.93-7.44,19.6c0,0-3,32.82,3.7,44.82
				c0,0,21.18,4.24,55.08-7.41v-7.77c0,0-37.07,1.94-44.66,2.82L110.06,271.37z" />
				<path class="st46" d="M121.66,235.65c0,0-21.5,1.51-26.68,13.05c-5.18,11.53-6.83,49.9-0.24,61.2c0,0,9.07,2.58,25.12-0.42
				c0.2-0.04,0.39-0.07,0.59-0.11c0,0,5.12-12.53,0.53-15.01c0,0-13.53,0.71-12.12-3.77C110.28,286.13,121.66,235.65,121.66,235.65z
				" />
				<g>
					<path class="st51" d="M175.56,297.75l-0.63,2.04l-35.28-10.97c0,0-0.47-0.54-0.24-1.25c0.26-0.79,0.87-0.79,0.87-0.79
					L175.56,297.75z" />
					<polygon class="st51" points="178.11,299.68 175.56,297.75 174.93,299.79 				" />
				</g>
				<path class="st47" d="M151,292.95c0,0,8-4.93,11.36-4.17c3.36,0.76,11.91,6.96,7.8,8.3c-4.12,1.34-7.45-0.07-9.03,0.91
				c-1.58,0.97-2.75,2.76-10.13,2.73C143.62,300.7,151,292.95,151,292.95z" />
				<g>
					<polygon class="st45" points="148.06,336.58 184.72,336.59 198.83,283.29 162.17,283.28 				" />
					<path class="st52" d="M163.76,279.61c0,0-2.81,0.46-1.59,3.67h12.52l-4-3.67H163.76z" />
					<path class="st1" d="M163.76,279.61c0,0,5.53,0,7.45,4.45c2.35,5.44,1.34,20.65,1.34,20.65h29.41c0,0,4.64-17.87-5.06-25.1
					H163.76z" />
				</g>
				<path class="st47" d="M191.68,309.83c0,0-4.43-3.32-5.8-1.4c-1.37,1.91,1.05,11.67,3.95,10.95
				C192.73,318.66,192.76,311.82,191.68,309.83z" />
			</g>
			<path class="st43" d="M389.21,231.41c-0.73-17.97,14.34-25.95,29.74-25.95c15.4,0,32.16,3.99,33.61,27.88
			c0.93,15.37-7.26,24.83-30.86,24.83c-7.96,0-14.14-1.26-18.88-3.49l-11.79,10.48l5.8-14.49
			C391.69,245.9,389.53,239.16,389.21,231.41z" />
			<path class="st43" d="M599.65,211.61c1.32-32.78-26.15-47.35-54.25-47.35c-28.1,0-58.67,7.28-61.32,50.87
			c-1.7,28.04,13.25,45.3,56.3,45.3c14.52,0,25.8-2.29,34.45-6.37l21.52,19.12l-10.58-26.43
			C595.13,238.04,599.08,225.75,599.65,211.61z" />
			<g>
				<g>
					<g>
						<path class="st45" d="M249.72,529.5h-0.08c-0.48,0-0.87-1.07-0.86-2.38l1.31-152.82l3.85-1.21l-3.28,154.04
						C250.62,528.46,250.22,529.5,249.72,529.5z" />
					</g>
					<path class="st45" d="M244.49,377.11h220.5c2.55,0,4.61-2.06,4.61-4.61l0,0c0-2.55-2.06-4.61-4.61-4.61h-220.5
					c-2.55,0-4.61,2.06-4.61,4.61v0C239.88,375.05,241.95,377.11,244.49,377.11z" />
				</g>
				<g>
					<path class="st45" d="M744.53,529.5h0.08c0.48,0,0.87-1.07,0.86-2.38l-1.31-152.82l-3.85-1.21l3.28,154.04
					C743.63,528.46,744.04,529.5,744.53,529.5z" />
				</g>
				<path class="st45" d="M451.94,377.11h296.29c2.55,0,4.61-2.06,4.61-4.61l0,0c0-2.55-2.06-4.61-4.61-4.61H451.94
				c-2.55,0-4.61,2.06-4.61,4.61l0,0C447.33,375.05,449.4,377.11,451.94,377.11z" />
			</g>
			<g>
				<path class="st46" d="M421.01,367.84h-46.09l0,0c0-2.03,1.64-3.67,3.67-3.67h42.41V367.84z" />
				<polygon class="st46" points="492.13,317.65 475.04,367.84 403.32,367.84 420.88,317.65 			" />
				<polygon class="st46"
					points="492.13,317.65 475.19,367.37 475.04,367.84 404.37,367.84 421.92,317.65 			" />
				<path class="st44" d="M454.76,342.28c-0.44,1.92-2.36,3.47-4.27,3.47c-1.92,0-3.11-1.55-2.67-3.47c0.44-1.92,2.36-3.47,4.27-3.47
				C454.01,338.81,455.2,340.36,454.76,342.28z" />
			</g>
			<g>
				<polygon class="st45" points="505.1,317.65 522.31,367.89 593.91,367.84 576.35,317.65 			" />
				<polygon class="st53"
					points="507.14,318.75 523.68,367.38 523.84,367.84 592.86,367.84 575.71,318.75 			" />
				<path class="st45" d="M522.31,367.89l100-0.05l0,0c0-2.03-1.64-3.67-3.67-3.67h-97.35L522.31,367.89z" />
			</g>
			<g>
				<path class="st44" d="M652.25,282.59L652.25,282.59c-4.44,0-8.08-3.63-8.08-8.08v-3.97c0-4.44,3.63-8.08,8.08-8.08l0,0
				c4.44,0,8.08,3.63,8.08,8.08v3.97C660.33,278.95,656.69,282.59,652.25,282.59z" />
				<g>
					<g>
						<path class="st45" d="M612.6,511.77c0,0-1.01,15.72-4.05,15.94c-0.4,0.03-15.43,0-15.43,0l-19.18-0.15c0,0,0.14-4.62,5.74-5.59
						c5.61-0.97,15-4.88,18.41-12.29C601.69,501.89,612.6,511.77,612.6,511.77z" />
						<path class="st45" d="M667.51,382.45c0.73,0.62,20.27,21.78,18.67,38.04c-0.47,4.77-4.58,8.36-9.38,8.36H653
						c0,0-24.28,4.34-24.86,9.59c-0.58,5.25-5.55,33.53-15.39,73.72c0,0-7.26,2.5-11.66,0.71c-5.82-2.36-6.66-4.86-6.66-4.86
						s5.87-90,10.5-96.34c4.63-6.33,52.37-25.16,67.82-27.04C688.21,382.76,667.51,382.45,667.51,382.45z" />
						<path class="st47"
							d="M529.51,360c0,0-13.81-3.21-17.34,0c-3.53,3.21-4.66,7.87-4.66,7.87h21.99V360z" />
						<path class="st45" d="M578.99,511.77c0,0-1.01,15.72-4.05,15.94c-0.4,0.03-15.43,0-15.43,0l-19.18-0.15
						c0,0,0.14-4.62,5.74-5.59c5.61-0.97,15-4.88,18.41-12.29C568.07,501.89,578.99,511.77,578.99,511.77z" />
						<path class="st46" d="M685.55,382.45c0.56,0.47,4.78,11.84,7.61,24.76c2.43,11.12-6.03,21.64-17.41,21.64H620.4
						c0,0-24.28,4.34-24.86,9.59c-0.58,5.25-5.55,33.53-15.39,73.72c0,0-7.28,1.91-12.97-0.52c-3.02-1.29-5.41-4.39-5.41-4.39
						s5.92-89.24,10.55-95.57c4.63-6.33,52.37-25.16,67.82-27.04C655.6,382.76,685.55,382.45,685.55,382.45z" />
						<path class="st47" d="M654.87,301.98l-8.56,8.22l-14.59,0c-0.02-1.17,0.03-6.06,0.08-10.5c0-0.26,0.01-0.52,0.01-0.78
						c0.01-0.98,0.02-1.93,0.04-2.8c0.03-2.44,0.05-4.21,0.05-4.21l3.75-2.56l8.33-5.7l4.51-3.08c0,0.08,0.37,4.11,0.43,4.69
						C649.92,295.7,654.87,301.98,654.87,301.98z" />
						<path class="st49" d="M633.66,300.5c0.28-0.12,16.06-7.2,17.91-6.59c1.85,0.61,4.15,6.25,4.15,6.25l-27.79,6.28
						C627.93,306.44,630.11,302,633.66,300.5z" />
						<path class="st44" d="M701.92,347.8c-3.01-18.54-15.7-32.42-21.13-37.62c-3.65-5.49-25.07-10.01-25.07-10.01
						s-17.75,4.01-27.79,6.28c0,0-15.66,1.7-24.5,16.31c-5.46,9.03-21.11,29.7-31.38,30.34c-10.27,0.64-42.54,6.9-42.54,6.9v7.94
						l49.19,1.35c0.6,0.02,1.2-0.03,1.79-0.14c4.23-0.8,22.38-4.41,31.4-9.1c1.44,23.24,3.14,58.72,11.26,64.36
						c8.58,5.96,68.95,6.76,75.35-2.33c3.27-4.65-0.74-32.18-5.75-58.72C698.98,360.39,703.18,355.57,701.92,347.8z" />
						<path class="st48" d="M646.16,288.51l-0.74,0.46c0,0-6.86,4.94-13.56,7.16c0.03-2.44,0.05-4.21,0.05-4.21l3.75-2.56
						L646.16,288.51z" />
						<path class="st47" d="M626.79,292.05c0,0,22.44,2.65,23.88-11.35c1.44-14,5.3-23.09-8.96-25.38
						c-14.27-2.29-17.61,2.77-19.22,7.33C620.87,267.21,620.99,291,626.79,292.05z" />
						<path class="st45" d="M623.08,261.22c0,0,4.24,15.19,7.3,13.92c3.07-1.27,5.87-2.3,6.27,2.44c0.4,4.74,2.18,10.3,12.18,9.29
						c10-1.01,14.2-28.4,10.6-32.7C649.05,241.76,608.65,246.41,623.08,261.22z" />
					</g>
					<g>
						<path class="st41" d="M607.19,431.86h106.05c6.96,0,12.6-5.64,12.6-12.6l0,0H607.19V431.86z" />
						<path class="st43" d="M594.54,431.86h82.68c3.48,0,6.3-2.82,6.3-6.3v0c0-3.48-2.82-6.3-6.3-6.3h-82.68
						c-3.48,0-6.3,2.82-6.3,6.3v0C588.24,429.04,591.06,431.86,594.54,431.86z" />
						<g>
							<polygon class="st43"
								points="663.81,522.98 670.97,522.98 672.98,431.86 662.04,431.86 						" />
							<polygon class="st43"
								points="632.69,522.98 702.33,522.98 702.33,516.69 666.83,513.49 632.69,516.69 						" />
							<path class="st43" d="M709.09,521.99c0-3.16-2.56-5.73-5.73-5.73c-3.16,0-5.73,2.56-5.73,5.73c0,3.16,2.56,5.73,5.73,5.73
							C706.53,527.72,709.09,525.16,709.09,521.99z" />
							<path class="st43" d="M639.45,521.99c0-3.16-2.56-5.73-5.73-5.73s-5.73,2.56-5.73,5.73c0,3.16,2.56,5.73,5.73,5.73
							S639.45,525.16,639.45,521.99z" />
							<path class="st43" d="M635.18,437.84h64.65c3.3,0,5.98-2.68,5.98-5.98l0,0H629.2l0,0
							C629.2,435.16,631.88,437.84,635.18,437.84z" />
						</g>
						<path class="st43" d="M714.87,431.86c3.01,0,5.45-2.44,5.45-5.45V342.5c0-15.72-10.28-28.47-22.96-28.47h-51.92
						c-12.68,0-22.96,12.75-22.96,28.47v89.36H714.87z" />
						<path class="st42" d="M715.89,431.86c5.49,0,9.94-4.45,9.94-9.94V342.5c0-15.72-10.28-28.47-22.96-28.47h-51.92
						c-12.68,0-22.96,12.75-22.96,28.47v89.36H715.89z" />
					</g>
				</g>
				<g>
					<g>
						<path class="st44"
							d="M618.82,292.35c12.81-4.05,15.95-16.17,15.98-16.29l-1.37-0.34l0.68,0.17l-0.68-0.17
						c-0.03,0.12-3,11.49-15.04,15.29c-0.08,0.03-0.16,0.05-0.24,0.07l0.41,1.35C618.65,292.4,618.73,292.38,618.82,292.35z" />
					</g>
					<path class="st44" d="M617.37,293.3l1.21-0.38c0.61-0.19,0.96-0.86,0.77-1.47l0,0c-0.19-0.62-0.86-0.96-1.47-0.76l-1.21,0.38
					c-0.61,0.19-0.96,0.86-0.76,1.47l0,0C616.09,293.15,616.75,293.49,617.37,293.3z" />
				</g>
				<g>
					<path class="st44" d="M634.99,287.62l-0.93,0.13c-4.14,0.57-8-2.35-8.58-6.49l-0.67-4.86c-0.57-4.14,2.35-8,6.49-8.58l0.93-0.13
					c4.14-0.57,8,2.35,8.58,6.49l0.67,4.86C642.06,283.18,639.14,287.04,634.99,287.62z" />
					<g>
						<path class="st44" d="M628.91,269.87c-0.55-1.04,1.39-9.09,4.24-15.34c1.38-3.02,4.86-7.06,7.34-8.11
						c0.9-0.38,2.09-0.22,3.06,0c0.71,0.16,2.69,1.31,2.69,1.31c-8.16,2.54-15.26,19.42-14.74,21.19c-0.02-0.05-0.04-0.09-0.05-0.12
						L628.91,269.87z" />
					</g>
					<path class="st49" d="M633.12,282.78l-0.46,0.06c-2.06,0.29-3.99-1.17-4.27-3.23l-0.34-2.42c-0.29-2.06,1.17-3.99,3.23-4.27
					l0.46-0.06c2.06-0.29,3.99,1.17,4.27,3.23l0.34,2.42C636.64,280.57,635.19,282.49,633.12,282.78z" />
				</g>
			</g>
			<path class="st45" d="M820.97,527.83v0.42c0,0.67-0.39,1.22-0.87,1.22H56.31c-0.48,0-0.87-0.55-0.87-1.22v-0.42
			c0-0.67,0.39-1.22,0.87-1.22H820.1C820.58,526.61,820.97,527.17,820.97,527.83z" />
		</g>
	</g>
</svg>