<?xml version="1.0" encoding="utf-8"?>
<!-- Generator: Adobe Illustrator 26.3.1, SVG Export Plug-In . SVG Version: 6.00 Build 0)  -->
<svg version="1.1" id="Layer_1" xmlns="http://www.w3.org/2000/svg" xmlns:xlink="http://www.w3.org/1999/xlink" x="0px"
	y="0px" viewBox="0 0 771.68 656.44" style="enable-background:new 0 0 771.68 656.44;" xml:space="preserve">
	<style type="text/css">
		.st0 {
			fill: rgba(96, 96, 96, 0);
			stroke: #494949;
			stroke-width: 2;
			stroke-miterlimit: 10;
		}

		.st1 {
			fill: #E8E8E8;
		}

		.st2 {
			opacity: 0.3;
		}

		.st3 {
			fill: #B1B1B1;
		}

		.st4 {
			fill: #CFCFCF;
		}

		.st5 {
			fill: #333333;
		}

		.st6 {
			fill: #474747;
		}

		.st7 {
			fill: #C6C6C6;
		}

		.st8 {
			fill: #F4F4F4;
		}

		.st9 {
			opacity: 0.53;
		}

		.st10 {
			fill: #FFFFFF;
		}

		.st11 {
			fill: #FCB900;
		}

		.st12 {
			clip-path: url(#SVGID_00000044162690821743075820000014319165206878530194_);
			fill: #FCB900;
		}

		.st13 {
			clip-path: url(#SVGID_00000092419015114710365160000015277343621565355938_);
			fill: #FCB900;
		}

		.st14 {
			clip-path: url(#SVGID_00000134971950335155958260000005872724393668954276_);
			fill: #FCB900;
		}

		.st15 {
			opacity: 0.44;
			fill: #FFFFFF;
			enable-background: new;
		}

		.st16 {
			fill: #364154;
		}

		.st17 {
			opacity: 0.48;
		}

		.st18 {
			fill: url(#SVGID_00000002359068120786799470000015991399182154923702_);
		}

		.st19 {
			fill: #91B3FA;
		}

		.st20 {
			opacity: 0.5;
			fill: #FFFFFF;
			enable-background: new;
		}

		.st21 {
			fill: url(#SVGID_00000008148921576493134180000005870319789749922440_);
		}

		.st22 {
			opacity: 0.91;
			fill: #FFFFFF;
			enable-background: new;
		}

		.st23 {
			fill: url(#SVGID_00000100377047070115067410000015990806636202957463_);
		}

		.st24 {
			fill: url(#SVGID_00000023988214599715203240000017294356067924478375_);
		}

		.st25 {
			fill: url(#SVGID_00000162314147994231454860000014755376141068675749_);
		}

		.st26 {
			fill: #FDAB95;
		}

		.st27 {
			fill: #828282;
		}

		.st28 {
			fill: #EF9D8E;
		}

		.st29 {
			fill: #131F2D;
		}
	</style>
	<rect x="-11779.83" y="-5472.79" class="st0" width="16383" height="16383" />
	<g>
		<g>
			<path class="st1" d="M183.26,556.72c38.87,41,90.45,71.06,152.32,83.2c142.48,27.95,335.07-14.65,378.44-171.75
			c26.43-95.75,7.92-207.73-46.37-290.69C607.97,86.3,500.22,24.77,389.95,29.11c-107.89,4.25-213.64,89.18-258.33,183.64
			C75.26,331.87,100.29,469.21,183.26,556.72z" />
			<g>
				<g>
					<g class="st2">
						<path class="st3" d="M560.78,95.71c1.1,0.67,2.53,0.31,3.2-0.79c1.29-2.14,2.7-4.25,4.18-6.29c0.75-1.03,0.53-2.46-0.48-3.23
						c-0.01-0.01-0.02-0.02-0.04-0.03c-1.04-0.76-2.5-0.53-3.25,0.51c-1.56,2.14-3.04,4.36-4.4,6.62c-0.62,1.03-0.35,2.35,0.59,3.06
						C560.64,95.62,560.71,95.67,560.78,95.71z M576.03,79.24c1.74-1.81,3.58-3.56,5.46-5.21c0.97-0.85,1.06-2.32,0.22-3.29
						c-0.85-0.97-2.32-1.06-3.29-0.21c-1.98,1.73-3.91,3.58-5.74,5.48c-0.89,0.93-0.86,2.4,0.06,3.29c0.07,0.06,0.14,0.12,0.21,0.18
						C573.87,80.18,575.2,80.1,576.03,79.24z M591.24,66.61c2.09-1.37,4.27-2.67,6.48-3.86c1.13-0.61,1.56-2.02,0.95-3.16
						c-0.61-1.13-2.02-1.55-3.16-0.94c-2.32,1.25-4.62,2.62-6.82,4.07c-1.08,0.71-1.38,2.15-0.67,3.23
						c0.15,0.23,0.33,0.42,0.54,0.58C589.32,67.09,590.39,67.16,591.24,66.61z M608.89,57.69c2.35-0.87,4.77-1.65,7.18-2.32
						c1.24-0.34,1.97-1.63,1.63-2.87c-0.34-1.24-1.63-1.97-2.87-1.63c-2.54,0.7-5.09,1.52-7.56,2.44c-1.21,0.45-1.82,1.79-1.37,2.99
						c0.16,0.43,0.43,0.79,0.78,1.05C607.28,57.83,608.11,57.98,608.89,57.69z M628.08,52.94c2.48-0.33,5.01-0.55,7.52-0.67
						c1.29-0.06,2.28-1.15,2.22-2.44c-0.06-1.29-1.15-2.28-2.44-2.22c-2.64,0.12-5.3,0.36-7.91,0.7c-1.28,0.17-2.17,1.34-2,2.61
						c0.08,0.64,0.42,1.19,0.9,1.55C626.84,52.84,627.45,53.02,628.08,52.94z M647.85,52.55c2.49,0.23,5.01,0.57,7.48,1.01
						c1.27,0.23,2.48-0.62,2.7-1.88c0.23-1.27-0.62-2.48-1.88-2.7c-2.6-0.46-5.25-0.82-7.87-1.06c-1.28-0.12-2.42,0.83-2.53,2.11
						c-0.08,0.83,0.29,1.6,0.92,2.07C647,52.34,647.4,52.5,647.85,52.55z M720.58,99.39c1.13-0.61,1.55-2.03,0.94-3.16
						c-1.25-2.32-2.63-4.61-4.08-6.82c-0.71-1.07-2.15-1.37-3.23-0.66c-1.07,0.71-1.37,2.15-0.66,3.23c1.38,2.1,2.68,4.27,3.88,6.48
						c0.16,0.3,0.38,0.55,0.64,0.75C718.77,99.73,719.75,99.84,720.58,99.39z M667.21,56.54c2.38,0.78,4.76,1.67,7.06,2.65
						c1.18,0.5,2.55-0.05,3.06-1.23c0.5-1.18-0.05-2.55-1.23-3.06c-2.43-1.03-4.93-1.97-7.43-2.79c-1.22-0.4-2.54,0.27-2.94,1.49
						c-0.32,0.97,0.04,2,0.81,2.58C666.72,56.34,666.95,56.46,667.21,56.54z M709.4,82.44c0.97-0.85,1.06-2.32,0.21-3.29
						c-1.74-1.98-3.59-3.91-5.5-5.73c-0.93-0.9-2.4-0.86-3.29,0.07c-0.89,0.93-0.86,2.4,0.07,3.29c1.81,1.74,3.57,3.57,5.23,5.45
						c0.11,0.12,0.22,0.23,0.34,0.32C707.32,83.21,708.55,83.19,709.4,82.44z M685.18,64.76c2.14,1.29,4.26,2.69,6.29,4.16
						c1.04,0.76,2.5,0.52,3.25-0.52c0.74-1.03,0.53-2.46-0.48-3.22c-0.01-0.01-0.03-0.02-0.04-0.03c-2.14-1.55-4.37-3.02-6.62-4.38
						c-1.1-0.66-2.53-0.31-3.2,0.8c-0.62,1.03-0.35,2.35,0.59,3.06C685.04,64.67,685.11,64.72,685.18,64.76z" />
						<path class="st3" d="M724.52,114.23c-0.37-0.28-0.65-0.66-0.81-1.13c-0.37-1.14-0.77-2.3-1.19-3.43
						c-0.45-1.21,0.17-2.55,1.37-2.99c1.21-0.45,2.55,0.17,2.99,1.37c0.44,1.19,0.87,2.4,1.26,3.61c0.4,1.22-0.27,2.54-1.49,2.94
						C725.89,114.83,725.11,114.67,724.52,114.23z" />
					</g>
					<g class="st2">
						<path class="st3" d="M718.41,184.99c-0.9-0.68-1.19-1.93-0.65-2.95c0.56-1.06,1.12-2.15,1.64-3.24
						c0.56-1.16,1.95-1.65,3.11-1.09s1.65,1.95,1.09,3.11c-0.55,1.15-1.13,2.29-1.73,3.41c-0.6,1.14-2.02,1.57-3.15,0.96
						C718.61,185.13,718.5,185.06,718.41,184.99z" />
						<path class="st3" d="M587.31,217.48c1.06,0.73,2.51,0.45,3.24-0.61s0.45-2.51-0.61-3.24c-2.02-1.38-4.02-2.87-5.95-4.44
						c-0.99-0.81-2.47-0.66-3.28,0.34c-0.81,1-0.66,2.47,0.34,3.28c0.84,0.68,1.69,1.34,2.54,1.99
						C584.8,215.72,586.06,216.62,587.31,217.48z M575.04,204.26c0.94-0.88,0.99-2.35,0.11-3.29c-1.69-1.8-3.32-3.69-4.85-5.63
						c-0.79-1.01-2.26-1.18-3.27-0.38c-1.01,0.8-1.18,2.26-0.38,3.27c1.61,2.03,3.33,4.03,5.1,5.92c0.09,0.1,0.19,0.19,0.29,0.27
						C572.94,205.09,574.2,205.05,575.04,204.26z M598.26,223.9c2.32,1.16,4.72,2.23,7.14,3.19c1.2,0.47,2.55-0.11,3.02-1.31
						c0.47-1.2-0.11-2.55-1.31-3.02c-2.3-0.91-4.58-1.93-6.78-3.02c-1.15-0.57-2.55-0.1-3.12,1.05c-0.51,1.02-0.2,2.23,0.68,2.89
						C598,223.76,598.12,223.83,598.26,223.9z M562.66,188.58c1.11-0.65,1.48-2.08,0.83-3.19c-1.25-2.13-2.43-4.33-3.49-6.55
						c-0.56-1.16-1.95-1.65-3.11-1.09s-1.65,1.95-1.09,3.11c1.12,2.34,2.36,4.66,3.68,6.9c0.16,0.27,0.36,0.5,0.6,0.68
						C560.8,188.99,561.82,189.08,562.66,188.58z M617.48,230.94c2.52,0.62,5.09,1.13,7.66,1.54c1.27,0.2,2.46-0.67,2.66-1.94
						c0.2-1.27-0.67-2.46-1.94-2.66c-2.44-0.38-4.89-0.87-7.28-1.46c-1.25-0.31-2.51,0.46-2.82,1.71c-0.23,0.93,0.14,1.87,0.86,2.41
						C616.88,230.72,617.16,230.86,617.48,230.94z M637.78,233.59c2.6,0.05,5.22-0.01,7.81-0.17c1.28-0.08,2.26-1.19,2.18-2.47
						c-0.08-1.29-1.19-2.26-2.47-2.18c-2.46,0.16-4.96,0.21-7.42,0.16c-1.29-0.03-2.35,1-2.38,2.28c-0.02,0.78,0.35,1.47,0.92,1.9
						C636.8,233.41,637.27,233.58,637.78,233.59z M658.18,231.76c2.55-0.52,5.1-1.14,7.59-1.87c1.24-0.36,1.95-1.65,1.59-2.89
						s-1.65-1.95-2.89-1.59c-2.36,0.69-4.79,1.28-7.21,1.77c-1.26,0.26-2.08,1.48-1.82,2.75c0.12,0.58,0.44,1.06,0.88,1.4
						C656.83,231.72,657.5,231.89,658.18,231.76z M677.69,225.51c2.37-1.06,4.73-2.23,7-3.49c1.13-0.62,1.54-2.04,0.91-3.17
						c-0.62-1.12-2.04-1.53-3.17-0.91c-2.16,1.19-4.39,2.3-6.65,3.31c-1.17,0.52-1.7,1.9-1.18,3.08c0.17,0.37,0.42,0.68,0.72,0.91
						C675.99,225.74,676.89,225.87,677.69,225.51z M695.36,215.13c2.08-1.55,4.11-3.21,6.05-4.94c0.96-0.85,1.05-2.33,0.19-3.29
						c-0.85-0.96-2.33-1.05-3.29-0.19c-1.84,1.64-3.78,3.22-5.75,4.69c-1.03,0.77-1.24,2.23-0.47,3.26
						c0.13,0.18,0.29,0.33,0.46,0.46C693.37,215.74,694.51,215.77,695.36,215.13z M710.31,201.14c1.24-1.45,2.46-2.96,3.61-4.48
						c0.42-0.55,0.83-1.1,1.23-1.66c0.75-1.04,0.55-2.51-0.52-3.25c-1.04-0.75-2.5-0.52-3.25,0.52c-0.38,0.53-0.77,1.06-1.17,1.58
						c-1.09,1.45-2.25,2.88-3.43,4.25c-0.84,0.98-0.73,2.45,0.25,3.28c0.04,0.03,0.07,0.06,0.11,0.09
						C708.11,202.22,709.51,202.08,710.31,201.14z" />
						<path class="st3" d="M551.89,170.15c-0.37-0.28-0.66-0.67-0.81-1.14c-0.38-1.2-0.75-2.43-1.09-3.66
						c-0.34-1.24,0.39-2.52,1.63-2.86s2.52,0.39,2.86,1.63c0.32,1.17,0.67,2.34,1.04,3.48c0.39,1.22-0.28,2.54-1.51,2.93
						C553.26,170.75,552.47,170.59,551.89,170.15z" />
					</g>
					<g>
						<path class="st3" d="M570.13,134.62c-0.02-0.46,0.26-0.89,0.7-1.06l12.36-4.77c1.19-6.07,3.36-12,6.52-17.53l-6.23-11.69
						c-0.22-0.41-0.15-0.91,0.16-1.25l10.82-11.64c0.32-0.34,0.81-0.44,1.24-0.25l12.11,5.36c5.29-3.55,11.04-6.14,17.01-7.77
						l3.86-12.68c0.14-0.44,0.54-0.75,1-0.77l15.89-0.58c0.46-0.02,0.89,0.26,1.06,0.7l4.77,12.36c6.07,1.19,12,3.36,17.53,6.52
						l11.69-6.23c0.41-0.22,0.91-0.15,1.25,0.16l11.64,10.82c0.34,0.32,0.44,0.81,0.25,1.24l-5.36,12.11
						c3.55,5.29,6.14,11.04,7.77,17.01l12.68,3.86c0.44,0.14,0.75,0.54,0.77,1l0.58,15.89c0.02,0.46-0.26,0.89-0.7,1.06l-12.36,4.77
						c-1.19,6.07-3.36,12-6.52,17.53l6.23,11.69c0.22,0.41,0.15,0.91-0.16,1.25l-10.82,11.64c-0.32,0.34-0.81,0.44-1.24,0.25
						l-12.11-5.36c-5.29,3.55-11.04,6.14-17.01,7.77l-3.86,12.68c-0.14,0.44-0.54,0.75-1,0.77l-15.89,0.58
						c-0.46,0.02-0.89-0.26-1.06-0.7L628.93,197c-6.07-1.19-12-3.36-17.53-6.52l-11.69,6.23c-0.41,0.22-0.91,0.15-1.25-0.16
						l-11.64-10.82c-0.34-0.32-0.44-0.81-0.25-1.24l5.36-12.11c-3.55-5.29-6.14-11.04-7.77-17.01l-12.68-3.86
						c-0.44-0.14-0.75-0.54-0.77-1L570.13,134.62z" />
						<g>
							<path class="st4"
								d="M632.48,154.04c7.72,4.24,17.46,1.4,21.69-6.32c2.05-3.74,2.53-8.06,1.33-12.16
							c-1.19-4.1-3.91-7.48-7.65-9.54c-7.72-4.24-17.46-1.4-21.69,6.32c-3.86,7.03-1.86,15.72,4.35,20.42
							C631.13,153.23,631.78,153.65,632.48,154.04z M651.93,136.6c0.92,3.14,0.55,6.45-1.02,9.32c-3.25,5.92-10.71,8.1-16.63,4.85
							s-8.1-10.71-4.85-16.63s10.71-8.1,16.63-4.85c0.54,0.29,1.05,0.62,1.52,0.99C649.67,131.85,651.18,134.05,651.93,136.6z" />
						</g>
						<path class="st4" d="M616.84,171.35c-1.07-0.81-2.1-1.67-3.09-2.6l0,0c-0.31-0.29-0.62-0.59-0.92-0.89
						c-1.49-1.48-2.87-3.08-4.1-4.77c-0.02-0.02-0.03-0.05-0.05-0.07c-0.05-0.07-0.09-0.13-0.14-0.2c-0.09-0.13-0.18-0.26-0.27-0.39
						c-0.24-0.34-0.22-0.78,0.02-1.1c0.06-0.08,0.13-0.14,0.21-0.2c0.42-0.29,1-0.19,1.3,0.23c1.52,2.17,3.28,4.19,5.23,6.01
						c9.71,9.03,22.98,11.9,34.95,8.79c6.66-1.73,12.92-5.31,17.94-10.71c0.88-0.95,1.71-1.93,2.48-2.95
						c5.18-6.85,7.83-15.2,7.52-23.89c-0.36-9.99-4.59-19.24-11.91-26.05c-15.12-14.06-38.84-13.19-52.89,1.92
						c-0.87,0.93-1.68,1.9-2.45,2.91c-3.31,4.37-5.62,9.41-6.76,14.77c-0.03,0.14-0.09,0.26-0.17,0.37
						c-0.21,0.28-0.57,0.43-0.94,0.35c-0.5-0.11-0.83-0.6-0.72-1.11c1.19-5.63,3.62-10.92,7.09-15.51c0.8-1.06,1.66-2.08,2.57-3.06
						c14.75-15.87,39.66-16.76,55.52-2.02c7.69,7.15,12.13,16.86,12.51,27.34c0.33,9.13-2.45,17.9-7.89,25.08
						c-0.81,1.07-1.68,2.1-2.6,3.1c-7.15,7.69-16.86,12.13-27.34,12.51C632.8,179.58,624.03,176.8,616.84,171.35z" />
					</g>
				</g>
				<g>
					<g class="st2">
						<path class="st3" d="M460.14,96.52c-0.5-0.38-0.71-1.05-0.48-1.66c0.43-1.14,0.91-2.29,1.41-3.4c0.33-0.72,1.18-1.05,1.9-0.72
						c0.73,0.32,1.05,1.18,0.72,1.9c-0.48,1.06-0.93,2.15-1.34,3.24c-0.28,0.74-1.11,1.12-1.86,0.83
						C460.36,96.67,460.24,96.6,460.14,96.52z" />
						<path class="st3" d="M465.12,86.66c0.68,0.41,1.56,0.2,1.98-0.48c1.04-1.71,2.19-3.39,3.4-4.99c0.26-0.34,0.52-0.67,0.78-1.01
						c0.49-0.62,0.39-1.53-0.24-2.02c-0.61-0.44-1.53-0.39-2.02,0.24c-0.28,0.35-0.55,0.7-0.82,1.05c-1.27,1.68-2.47,3.44-3.56,5.23
						c-0.39,0.64-0.22,1.45,0.36,1.89C465.03,86.6,465.07,86.63,465.12,86.66z M476.14,74.73c1.73-1.71,3.58-3.33,5.5-4.81
						c0.63-0.49,0.75-1.39,0.26-2.02c-0.48-0.63-1.39-0.75-2.02-0.26c-2.01,1.55-3.95,3.25-5.77,5.04
						c-0.57,0.56-0.57,1.47-0.01,2.04c0.05,0.05,0.1,0.09,0.16,0.14C474.82,75.28,475.63,75.24,476.14,74.73z M487.7,65.83
						c2.09-1.23,4.28-2.35,6.51-3.31c0.73-0.32,1.06-1.16,0.75-1.89c-0.32-0.73-1.16-1.07-1.89-0.75c-2.34,1.01-4.64,2.18-6.83,3.47
						c-0.68,0.4-0.91,1.29-0.51,1.97c0.1,0.17,0.23,0.31,0.37,0.42C486.55,66.08,487.18,66.14,487.7,65.83z M501.08,60.04
						c2.33-0.68,4.73-1.23,7.12-1.61c0.79-0.13,1.32-0.87,1.19-1.65c-0.13-0.78-0.87-1.32-1.65-1.19c-2.51,0.41-5.02,0.98-7.47,1.69
						c-0.76,0.22-1.2,1.02-0.98,1.79c0.09,0.31,0.27,0.56,0.51,0.74C500.16,60.07,500.63,60.18,501.08,60.04z M515.48,57.7
						c2.43-0.09,4.89-0.04,7.3,0.16c0.79,0.07,1.49-0.52,1.55-1.31c0.07-0.79-0.52-1.49-1.31-1.55c-2.53-0.21-5.11-0.27-7.65-0.17
						c-0.79,0.03-1.41,0.7-1.38,1.49c0.02,0.45,0.24,0.84,0.57,1.09C514.81,57.6,515.14,57.71,515.48,57.7z M530.01,58.92
						c2.38,0.5,4.74,1.15,7.04,1.94c0.75,0.26,1.57-0.14,1.83-0.89s-0.14-1.57-0.89-1.83c-2.4-0.83-4.89-1.51-7.38-2.03
						c-0.78-0.16-1.54,0.34-1.7,1.11c-0.12,0.56,0.11,1.12,0.54,1.44C529.6,58.78,529.79,58.87,530.01,58.92z M543.79,63.65
						c2.17,1.06,4.31,2.28,6.35,3.61c0.67,0.43,1.56,0.25,1.99-0.42c0.43-0.66,0.24-1.55-0.42-1.99c-2.14-1.4-4.38-2.67-6.66-3.78
						c-0.71-0.35-1.58-0.05-1.93,0.66c-0.31,0.63-0.11,1.37,0.42,1.78C543.63,63.56,543.71,63.61,543.79,63.65z M563.32,76.75
						c0.58-0.54,0.62-1.45,0.08-2.03c-1.49-1.61-3.1-3.17-4.78-4.63c-0.25-0.22-0.51-0.44-0.77-0.66c-0.59-0.53-1.52-0.44-2.03,0.17
						s-0.43,1.51,0.17,2.03c0.24,0.2,0.48,0.41,0.72,0.62c1.6,1.4,3.14,2.88,4.56,4.42c0.06,0.06,0.12,0.12,0.19,0.17
						C562.02,77.26,562.8,77.23,563.32,76.75z" />
					</g>
					<g class="st2">
						<path class="st3" d="M480.95,166.98c2.02,1.49,4.15,2.86,6.32,4.09c0.69,0.39,1.57,0.15,1.96-0.55
						c0.39-0.69,0.14-1.57-0.55-1.96c-2.08-1.17-4.1-2.49-6.03-3.91c-0.64-0.47-1.54-0.33-2.01,0.3s-0.34,1.53,0.29,2
						C480.93,166.97,480.94,166.97,480.95,166.98z M477.2,162.09c0.54-0.58,0.52-1.49-0.06-2.03c-1.74-1.64-3.4-3.4-4.93-5.23
						c-0.51-0.6-1.42-0.69-2.03-0.18c-0.61,0.51-0.69,1.42-0.18,2.03c1.6,1.92,3.34,3.77,5.17,5.48c0.04,0.04,0.08,0.07,0.12,0.1
						C475.86,162.69,476.69,162.63,477.2,162.09z M494.05,174.37c2.32,0.96,4.72,1.78,7.13,2.45c0.77,0.21,1.56-0.24,1.77-1
						c0.21-0.77-0.24-1.56-1-1.77c-2.3-0.64-4.58-1.42-6.8-2.33c-0.73-0.3-1.58,0.05-1.88,0.78c-0.25,0.62-0.05,1.31,0.46,1.7
						C493.82,174.26,493.93,174.32,494.05,174.37z M467.52,151.02c0.67-0.43,0.86-1.32,0.43-1.99c-1.3-2.01-2.48-4.12-3.52-6.27
						c-0.35-0.71-1.21-1.01-1.92-0.67c-0.72,0.35-1.02,1.21-0.67,1.92c1.09,2.26,2.33,4.47,3.69,6.57c0.09,0.15,0.21,0.27,0.34,0.37
						C466.34,151.31,467,151.36,467.52,151.02z M508.54,178.38c2.48,0.37,5,0.59,7.5,0.66c0.79,0.02,1.46-0.61,1.48-1.4
						c0.02-0.79-0.6-1.46-1.4-1.48c-2.39-0.06-4.8-0.28-7.16-0.63c-0.79-0.12-1.52,0.42-1.64,1.21c-0.08,0.54,0.15,1.05,0.56,1.36
						C508.07,178.24,508.3,178.34,508.54,178.38z M523.58,178.79c2.5-0.23,5-0.62,7.45-1.15c0.78-0.17,1.27-0.93,1.1-1.71
						c-0.17-0.78-0.93-1.27-1.71-1.1c-2.33,0.51-4.72,0.88-7.1,1.1c-0.79,0.07-1.37,0.78-1.3,1.57c0.04,0.42,0.25,0.78,0.56,1.01
						C522.85,178.71,523.2,178.82,523.58,178.79z M538.28,175.59c2.37-0.83,4.71-1.81,6.95-2.91c0.71-0.35,1.01-1.21,0.66-1.93
						c-0.35-0.71-1.21-1.01-1.93-0.66c-2.14,1.05-4.37,1.99-6.63,2.77c-0.75,0.26-1.15,1.08-0.89,1.83c0.1,0.28,0.27,0.51,0.49,0.67
						C537.3,175.66,537.8,175.75,538.28,175.59z" />
						<path class="st3" d="M459.44,137.67c-0.22-0.17-0.4-0.4-0.49-0.68c-0.4-1.17-0.76-2.35-1.08-3.52
						c-0.21-0.77,0.24-1.56,1.01-1.77c0.77-0.21,1.56,0.24,1.77,1.01c0.31,1.11,0.65,2.24,1.03,3.35c0.26,0.75-0.15,1.57-0.9,1.83
						C460.31,138.04,459.81,137.94,459.44,137.67z" />
					</g>
					<g>
						<path class="st3" d="M471.23,112.94c-0.01-0.31,0.18-0.59,0.47-0.71l8.27-3.19c0.8-4.06,2.25-8.03,4.36-11.73l-4.17-7.82
						c-0.15-0.27-0.1-0.61,0.11-0.84l7.24-7.79c0.21-0.23,0.54-0.3,0.83-0.17l8.1,3.59c3.54-2.38,7.39-4.11,11.38-5.2l2.58-8.48
						c0.09-0.3,0.36-0.5,0.67-0.52l10.63-0.39c0.31-0.01,0.59,0.18,0.71,0.47l3.19,8.27c4.06,0.8,8.03,2.25,11.73,4.36l7.82-4.17
						c0.27-0.15,0.61-0.1,0.84,0.11l7.79,7.24c0.23,0.21,0.3,0.54,0.17,0.83l-3.59,8.1c2.38,3.54,4.11,7.39,5.2,11.38l8.48,2.58
						c0.3,0.09,0.5,0.36,0.52,0.67l0.39,10.63c0.01,0.31-0.18,0.59-0.47,0.71l-8.27,3.19c-0.8,4.06-2.25,8.03-4.36,11.73l4.17,7.82
						c0.15,0.27,0.1,0.61-0.11,0.84l-7.24,7.79c-0.21,0.23-0.54,0.3-0.83,0.17l-8.1-3.59c-3.54,2.38-7.39,4.11-11.38,5.2l-2.58,8.48
						c-0.09,0.3-0.36,0.5-0.67,0.52l-10.63,0.39c-0.31,0.01-0.59-0.18-0.71-0.47l-3.19-8.27c-4.06-0.8-8.03-2.25-11.73-4.36
						l-7.82,4.17c-0.27,0.15-0.61,0.1-0.84-0.11l-7.79-7.24c-0.23-0.21-0.3-0.54-0.17-0.83l3.59-8.1c-2.38-3.54-4.11-7.39-5.2-11.38
						l-8.48-2.58c-0.3-0.09-0.5-0.36-0.52-0.67L471.23,112.94z" />
						<g>
							<path class="st4" d="M512.86,126.1c2.55,1.4,5.49,1.72,8.28,0.91c2.79-0.81,5.1-2.66,6.5-5.21
							c2.89-5.26,0.96-11.88-4.31-14.78c-5.26-2.89-11.89-0.95-14.78,4.31c-1.4,2.55-1.72,5.49-0.91,8.28
							c0.66,2.27,2.01,4.22,3.86,5.62C511.93,125.55,512.38,125.84,512.86,126.1z M525.11,120.41c-1.03,1.88-2.73,3.24-4.78,3.84
							c-2.05,0.6-4.22,0.36-6.09-0.67l0,0c-1.87-1.03-3.24-2.73-3.84-4.78c-0.6-2.05-0.36-4.22,0.67-6.09
							c2.12-3.87,7-5.29,10.87-3.17c0.35,0.19,0.68,0.41,0.99,0.64C526.04,112.54,527.05,116.89,525.11,120.41z" />
						</g>
						<path class="st4" d="M501.97,138.15c-0.73-0.55-1.43-1.14-2.11-1.77c-1.35-1.26-2.58-2.65-3.64-4.15
						c-0.05-0.07-0.09-0.14-0.14-0.2c-0.37-0.52-0.33-1.21,0.03-1.69c0.09-0.12,0.2-0.22,0.33-0.31c0.65-0.46,1.55-0.29,2,0.36
						c0.98,1.41,2.12,2.72,3.39,3.89l0,0c0.07,0.06,0.14,0.13,0.21,0.19c3.02,2.75,6.6,4.65,10.46,5.59
						c2.1,0.52,4.27,0.75,6.49,0.69c0.02,0,0.04,0,0.05,0c0.06,0,0.11,0,0.16-0.01c6.47-0.24,12.46-2.97,16.86-7.71
						c0.57-0.61,1.11-1.25,1.6-1.91c3.36-4.43,5.07-9.84,4.87-15.47c-0.24-6.47-2.98-12.45-7.71-16.86
						c-4.74-4.4-10.91-6.7-17.38-6.47c-6.47,0.24-12.46,2.97-16.86,7.71c-0.56,0.6-1.09,1.23-1.58,1.88
						c-2.14,2.83-3.64,6.09-4.37,9.56c-0.05,0.21-0.14,0.41-0.26,0.57c-0.33,0.43-0.88,0.66-1.45,0.54
						c-0.78-0.17-1.27-0.93-1.11-1.71c0.82-3.88,2.5-7.54,4.89-10.7c0.55-0.73,1.14-1.43,1.77-2.11c4.93-5.3,11.63-8.37,18.87-8.63
						c7.23-0.26,14.14,2.3,19.44,7.24c5.3,4.93,8.37,11.63,8.63,18.87c0.23,6.3-1.69,12.35-5.44,17.31
						c-0.56,0.74-1.16,1.45-1.79,2.14C528.62,145.25,512.92,146.44,501.97,138.15z" />
					</g>
				</g>
			</g>
			<g>
				<g>
					<polygon class="st5" points="470.89,520.52 484.95,617.56 321.81,617.56 343.06,520.52 				" />
					<path class="st6" d="M744.94,209.81v288.83c0,23.76-18.93,43.19-42.69,43.8c-105.49,2.72-474.46,9.32-574.89,7.84
					c-17.26-0.25-31.24-14.07-31.74-31.32c-1.94-67.1-5.08-228.45,6.56-303.36c2.45-15.77,15.77-27.57,31.72-28.08
					c88.39-2.83,479.52-11.81,579.9-9.55C731.12,178.35,744.94,192.49,744.94,209.81z" />
					<path class="st7" d="M726.82,208.4v274.41c0,13.87-11.14,25.18-25.01,25.38l-560,6.92c-13.75,0.21-25.02-10.86-25.08-24.61
					l-0.94-271.96c-0.04-9.83,7.8-17.89,17.63-18.13l573.33-11.58C717.76,188.56,726.82,197.41,726.82,208.4z" />
					<path class="st8" d="M112.52,526.36h0.01l614.29-10.47c0.43-0.01,0.77-0.36,0.76-0.79s-0.37-0.76-0.79-0.76L112.5,524.81
					c-0.43,0.01-0.77,0.36-0.76,0.79C111.75,526.02,112.1,526.36,112.52,526.36z" />
					<path class="st8" d="M413.61,539.14c3.95,0,7.17-3.22,7.17-7.17s-3.22-7.17-7.17-7.17s-7.17,3.22-7.17,7.17
					C406.44,535.93,409.66,539.14,413.61,539.14z M413.61,526.36c3.1,0,5.61,2.52,5.61,5.62s-2.52,5.62-5.61,5.62
					c-3.1,0-5.62-2.52-5.62-5.62S410.51,526.36,413.61,526.36z" />
					<path class="st6" d="M286.67,643.36h238.77c6.49,0,11.36-4.62,10.1-9.58l-3.06-12.12c-0.92-3.64-4.93-6.32-9.69-6.47
					l-230.18-7.18c-4.97-0.16-9.38,2.49-10.46,6.27l-5.52,19.3C275.19,638.61,280.08,643.36,286.67,643.36z" />
					<path class="st8" d="M396.91,618.48c0.42,0,0.77-0.34,0.78-0.77s-0.34-0.78-0.77-0.79l-9.86-0.14c-0.41,0-0.78,0.34-0.79,0.77
					s0.34,0.78,0.77,0.79l9.86,0.14H396.91z" />
					<path class="st8" d="M526.7,636.68c0.04,0,0.08,0,0.12-0.01c0.42-0.07,0.71-0.47,0.64-0.89l-1.41-8.81
					c-0.76-4.73-4.78-8.22-9.58-8.29l-104.62-1.53h-0.01c-0.42,0-0.77,0.34-0.78,0.77s0.34,0.78,0.77,0.79l104.62,1.53
					c4.04,0.06,7.43,3,8.07,6.98l1.41,8.81C526,636.41,526.33,636.68,526.7,636.68z" />
				</g>
				<g>
					<g class="st9">
						<rect x="401.19" y="227.58" class="st10" width="14.73" height="259.79" />
						<rect x="376.58" y="227.58" class="st10" width="14.73" height="259.79" />
						<rect x="351.97" y="227.58" class="st10" width="14.73" height="259.79" />
						<rect x="327.36" y="227.58" class="st10" width="14.73" height="259.79" />
						<rect x="302.76" y="227.58" class="st10" width="14.73" height="259.79" />
						<rect x="278.15" y="227.58" class="st10" width="14.73" height="259.79" />
						<rect x="253.54" y="227.58" class="st10" width="14.73" height="259.79" />
					</g>
					<rect x="401.19" y="351.41" class="st11" width="14.73" height="135.96" />
					<rect x="376.58" y="398.15" class="st11" width="14.73" height="89.23" />
					<rect x="351.97" y="282.67" class="st11" width="14.73" height="204.71" />
					<rect x="327.36" y="438.19" class="st11" width="14.73" height="49.18" />
					<rect x="302.76" y="310.03" class="st11" width="14.73" height="177.35" />
					<rect x="278.15" y="340.73" class="st11" width="14.73" height="146.64" />
					<rect x="253.54" y="374.12" class="st11" width="14.73" height="113.26" />
				</g>
				<g>
					<g>
						<g>
							<g>
								<path id="SVGID_00000150069705158537163650000005219696295570321855_" class="st10" d="M658.85,215.71
								c19.76,0,35.78,16.02,35.78,35.78s-16.02,35.78-35.78,35.78s-35.78-16.02-35.78-35.78
								C623.06,231.73,639.08,215.71,658.85,215.71z M658.85,271.88c11.26,0,20.39-9.13,20.39-20.39s-9.13-20.39-20.39-20.39
								s-20.39,9.13-20.39,20.39C638.46,262.76,647.59,271.88,658.85,271.88z" />
							</g>
							<g>
								<defs>
									<path id="SVGID_1_" d="M658.85,287.27c-19.76,0-35.78-16.02-35.78-35.78c0-19.76,16.02-35.78,35.78-35.78
									s35.78,16.02,35.78,35.78C694.64,271.25,678.62,287.27,658.85,287.27z M658.85,231.1c-11.26,0-20.39,9.13-20.39,20.39
									c0,11.26,9.13,20.39,20.39,20.39s20.39-9.13,20.39-20.39C679.24,240.22,670.11,231.1,658.85,231.1z" />
								</defs>
								<clipPath id="SVGID_00000042010644103025932520000015909534119040848028_">
									<use xlink:href="#SVGID_1_" style="overflow:visible;" />
								</clipPath>

								<rect x="608.88" y="214.37"
									style="clip-path:url(#SVGID_00000042010644103025932520000015909534119040848028_);fill:#FCB900;"
									width="106.29" height="44.98" />
							</g>
						</g>
					</g>
					<g>
						<g>
							<g>
								<path id="SVGID_00000042017778432099359360000017051480694278438052_" class="st10" d="M571.62,215.71
								c19.76,0,35.78,16.02,35.78,35.78s-16.02,35.78-35.78,35.78s-35.78-16.02-35.78-35.78
								C535.84,231.73,551.86,215.71,571.62,215.71z M571.62,271.88c11.26,0,20.39-9.13,20.39-20.39s-9.13-20.39-20.39-20.39
								s-20.39,9.13-20.39,20.39C551.24,262.76,560.36,271.88,571.62,271.88z" />
							</g>
							<g>
								<defs>
									<path id="SVGID_00000023242158017473198900000004646885697510662311_" d="M571.96,287.27c-19.76,0-35.78-16.02-35.78-35.78
									s16.02-35.78,35.78-35.78s35.78,16.02,35.78,35.78C607.74,271.25,591.72,287.27,571.96,287.27z M571.96,231.1
									c-11.26,0-20.39,9.13-20.39,20.39c0,11.26,9.13,20.39,20.39,20.39s20.39-9.13,20.39-20.39
									C592.34,240.22,583.22,231.1,571.96,231.1z" />
								</defs>
								<clipPath id="SVGID_00000046302292297351076520000005675743487170318474_">
									<use xlink:href="#SVGID_00000023242158017473198900000004646885697510662311_"
										style="overflow:visible;" />
								</clipPath>

								<rect x="521.99" y="214.37"
									style="clip-path:url(#SVGID_00000046302292297351076520000005675743487170318474_);fill:#FCB900;"
									width="106.29" height="62.37" />
							</g>
						</g>
					</g>
					<g>
						<g>
							<g>
								<path id="SVGID_00000114045087679529283320000001569072057701501849_" class="st10" d="M484.4,215.71
								c19.76,0,35.78,16.02,35.78,35.78s-16.02,35.78-35.78,35.78s-35.78-16.02-35.78-35.78
								C448.61,231.73,464.63,215.71,484.4,215.71z M484.4,271.88c11.26,0,20.39-9.13,20.39-20.39s-9.13-20.39-20.39-20.39
								s-20.39,9.13-20.39,20.39C464.01,262.76,473.14,271.88,484.4,271.88z" />
							</g>
							<g>
								<defs>
									<path id="SVGID_00000113332685100209484960000000408782494578349991_" d="M484.4,287.27c-19.76,0-35.78-16.02-35.78-35.78
									c0-19.76,16.02-35.78,35.78-35.78s35.78,16.02,35.78,35.78C520.19,271.25,504.17,287.27,484.4,287.27z M484.4,231.1
									c-11.26,0-20.39,9.13-20.39,20.39c0,11.26,9.13,20.39,20.39,20.39s20.39-9.13,20.39-20.39
									C504.79,240.22,495.66,231.1,484.4,231.1z" />
								</defs>
								<clipPath id="SVGID_00000060715801821531801950000006731879235127874231_">
									<use xlink:href="#SVGID_00000113332685100209484960000000408782494578349991_"
										style="overflow:visible;" />
								</clipPath>

								<rect x="434.43" y="214.37"
									style="clip-path:url(#SVGID_00000060715801821531801950000006731879235127874231_);fill:#FCB900;"
									width="106.29" height="22.49" />
							</g>
						</g>
					</g>
				</g>
				<g>
					<path class="st15" d="M456.92,488.81l229.53-1.72c4.53-0.03,8.18-3.71,8.18-8.24V360.92c0-4.55-3.69-8.24-8.24-8.24H456.86
					c-4.55,0-8.24,3.69-8.24,8.24v119.65C448.61,485.15,452.34,488.85,456.92,488.81z" />
					<path class="st15" d="M492.52,405.92l29.52-31.2l42.32,46.03l29.86-32.22l28.01,31.66l21.48-26.09l42.33,44.07v31.87
					c0,4.21-3.4,7.63-7.61,7.67l-213.48,1.6c-4.26,0.03-7.72-3.41-7.72-7.67v-86.69L492.52,405.92z" />
					<rect x="491.56" y="405.05" class="st10" width="0.78" height="74.24" />
					<rect x="521.65" y="374.72" class="st10" width="0.78" height="104.15" />
					<rect x="563.97" y="420.18" class="st10" width="0.78" height="58.36" />
					<rect x="593.04" y="389.67" class="st10" width="0.78" height="88.88" />
					<rect x="621.84" y="419.24" class="st10" width="0.78" height="59.31" />
					<rect x="642.86" y="391.88" class="st10" width="0.78" height="86.1" />
					<ellipse class="st11" cx="643.27" cy="391.87" rx="6.49" ry="6.49" />
					<path class="st11" d="M617.95,419.24c0,2.36,1.91,4.27,4.27,4.27c2.36,0,4.27-1.91,4.27-4.27s-1.91-4.27-4.27-4.27
					S617.95,416.88,617.95,419.24z" />
					<path class="st11" d="M589.15,389.67c0,2.36,1.91,4.27,4.27,4.27c2.36,0,4.27-1.91,4.27-4.27s-1.91-4.27-4.27-4.27
					C591.07,385.39,589.15,387.31,589.15,389.67z" />
					<path class="st11" d="M560.08,420.18c0,2.36,1.91,4.27,4.27,4.27c2.36,0,4.27-1.91,4.27-4.27s-1.91-4.27-4.27-4.27
					C562,415.91,560.08,417.82,560.08,420.18z" />
					<path class="st11" d="M517.76,374.72c0,2.36,1.91,4.27,4.27,4.27c2.36,0,4.27-1.91,4.27-4.27s-1.91-4.27-4.27-4.27
					C519.68,370.44,517.76,372.36,517.76,374.72z" />
					<path class="st16" d="M487.68,405.05c0,2.36,1.91,4.27,4.27,4.27s4.27-1.91,4.27-4.27s-1.91-4.27-4.27-4.27
					S487.68,402.69,487.68,405.05z" />
				</g>
				<g class="st17">
					<path class="st16" d="M628.31,333.04h62.92c2.63,0,4.77,1.49,4.77,3.32c0,1.83-2.13,3.32-4.77,3.32h-62.92
					c-2.63,0-4.77-1.49-4.77-3.32S625.67,333.04,628.31,333.04z" />
					<path class="st16" d="M628.31,318.35h62.92c2.63,0,4.77,1.49,4.77,3.32c0,1.83-2.13,3.32-4.77,3.32h-62.92
					c-2.63,0-4.77-1.49-4.77-3.32C623.54,319.83,625.67,318.35,628.31,318.35z" />
					<path class="st16" d="M628.31,303.65h62.92c2.63,0,4.77,1.49,4.77,3.32c0,1.83-2.13,3.32-4.77,3.32h-62.92
					c-2.63,0-4.77-1.49-4.77-3.32C623.54,305.14,625.67,303.65,628.31,303.65z" />
				</g>
				<g class="st17">
					<path class="st16" d="M540.84,333.04h62.92c2.63,0,4.77,1.49,4.77,3.32c0,1.83-2.13,3.32-4.77,3.32h-62.92
					c-2.63,0-4.77-1.49-4.77-3.32C536.08,334.53,538.21,333.04,540.84,333.04z" />
					<path class="st16" d="M540.84,318.35h62.92c2.63,0,4.77,1.49,4.77,3.32c0,1.83-2.13,3.32-4.77,3.32h-62.92
					c-2.63,0-4.77-1.49-4.77-3.32C536.08,319.83,538.21,318.35,540.84,318.35z" />
					<path class="st16" d="M540.84,303.65h62.92c2.63,0,4.77,1.49,4.77,3.32c0,1.83-2.13,3.32-4.77,3.32h-62.92
					c-2.63,0-4.77-1.49-4.77-3.32C536.08,305.14,538.21,303.65,540.84,303.65z" />
				</g>
				<g class="st17">
					<path class="st16" d="M453.38,333.04h62.92c2.63,0,4.77,1.49,4.77,3.32c0,1.83-2.13,3.32-4.77,3.32h-62.92
					c-2.63,0-4.77-1.49-4.77-3.32C448.61,334.53,450.75,333.04,453.38,333.04z" />
					<path class="st16" d="M453.38,318.35h62.92c2.63,0,4.77,1.49,4.77,3.32c0,1.83-2.13,3.32-4.77,3.32h-62.92
					c-2.63,0-4.77-1.49-4.77-3.32C448.61,319.83,450.75,318.35,453.38,318.35z" />
					<path class="st16" d="M453.38,303.65h62.92c2.63,0,4.77,1.49,4.77,3.32c0,1.83-2.13,3.32-4.77,3.32h-62.92
					c-2.63,0-4.77-1.49-4.77-3.32C448.61,305.14,450.75,303.65,453.38,303.65z" />
				</g>
				<g>
					<g>

						<linearGradient id="SVGID_00000065044355730027388270000010531339472526168216_"
							gradientUnits="userSpaceOnUse" x1="-4440.7539" y1="311.15" x2="-4382.5342" y2="311.15"
							gradientTransform="matrix(-1 0 0 -1 -4224.4741 658)">
							<stop offset="0" style="stop-color:#DAE3FE" />
							<stop offset="1" style="stop-color:#E9EFFD" />
						</linearGradient>
						<circle style="fill:url(#SVGID_00000065044355730027388270000010531339472526168216_);"
							cx="187.17" cy="346.85" r="29.11" />
						<path class="st19" d="M169.87,340.7c-0.9,2.19-1.4,4.59-1.4,7.11c0,10.33,8.37,18.7,18.7,18.7s18.7-8.37,18.7-18.7
						c0-10.33-8.37-18.7-18.7-18.7c-0.32,0-0.63,0.01-0.94,0.02v-4.74c0.31-0.01,0.63-0.02,0.94-0.02
						c12.94,0,23.44,10.49,23.44,23.44c0,12.94-10.49,23.44-23.44,23.44c-12.94,0-23.44-10.49-23.44-23.44c0-3.19,0.64-6.23,1.79-9
						L169.87,340.7z" />
						<path class="st20" d="M163.24,388.3h47.44c2.98,0,5.39,2.41,5.39,5.39s-2.41,5.39-5.39,5.39h-47.44
						c-2.98,0-5.39-2.41-5.39-5.39S160.26,388.3,163.24,388.3z" />
					</g>
					<g>

						<linearGradient id="SVGID_00000132781245464687439270000005074308961909950654_"
							gradientUnits="userSpaceOnUse" x1="-4440.8843" y1="404.72" x2="-4382.6641" y2="404.72"
							gradientTransform="matrix(-1 0 0 -1 -4224.4741 658)">
							<stop offset="0" style="stop-color:#DAE3FE" />
							<stop offset="1" style="stop-color:#E9EFFD" />
						</linearGradient>
						<circle style="fill:url(#SVGID_00000132781245464687439270000005074308961909950654_);" cx="187.3"
							cy="253.28" r="29.11" />
						<path class="st19" d="M177.4,270.05c2.89,1.82,6.3,2.88,9.96,2.88c10.33,0,18.7-8.37,18.7-18.7s-8.37-18.7-18.7-18.7
						c-0.32,0-0.63,0.01-0.94,0.02v-4.74c0.31-0.01,0.63-0.02,0.94-0.02c12.94,0,23.44,10.49,23.44,23.44
						c0,12.94-10.49,23.44-23.44,23.44c-4.52,0-8.74-1.28-12.31-3.49L177.4,270.05z" />
						<path class="st20" d="M163.12,294.73h47.44c2.98,0,5.39,2.41,5.39,5.39s-2.41,5.39-5.39,5.39h-47.44
						c-2.98,0-5.39-2.41-5.39-5.39C157.72,297.14,160.14,294.73,163.12,294.73z" />
					</g>
					<g>

						<ellipse transform="matrix(0.9981 -0.0621 0.0621 0.9981 -27.0194 12.467)" class="st22"
							cx="187.06" cy="440.92" rx="29.11" ry="29.11" />

						<linearGradient id="SVGID_00000003065146461488625610000015216718885603229114_"
							gradientUnits="userSpaceOnUse" x1="-4377.8623" y1="248.6855" x2="-4467.9688" y2="163.172"
							gradientTransform="matrix(-1 0 0 -1 -4224.4741 658)">
							<stop offset="0" style="stop-color:#FDF53F" />
							<stop offset="1" style="stop-color:#D93C65" />
						</linearGradient>
						<path style="fill:url(#SVGID_00000003065146461488625610000015216718885603229114_);" d="M171.21,451.42
						c3.37,4.94,9.04,8.19,15.47,8.19c10.33,0,18.7-8.37,18.7-18.7c0-10.33-8.37-18.7-18.7-18.7c-0.32,0-0.63,0.01-0.94,0.02v-4.74
						c0.31-0.01,0.63-0.02,0.94-0.02c12.94,0,23.44,10.49,23.44,23.44c0,12.94-10.49,23.44-23.44,23.44
						c-8.01,0-15.08-4.02-19.3-10.14L171.21,451.42z" />
						<path class="st20" d="M210.79,492.18h-47.44c-2.98,0-5.39-2.41-5.39-5.39s2.41-5.39,5.39-5.39h47.44
						c2.98,0,5.39,2.41,5.39,5.39S213.77,492.18,210.79,492.18z" />
					</g>
				</g>
			</g>
			<g>
				<path class="st11" d="M196.98,622.89c0,0-1.26,7.11-1.87,14.15c-0.24,2.75,1.88,5.14,4.64,5.26c9.38,0.39,29.43,1.15,36.63,0.83
				c1.08-0.05,1.79-1.16,1.39-2.16c-0.34-0.84-0.98-1.52-1.81-1.9l-33.13-15.23L196.98,622.89z" />

				<linearGradient id="SVGID_00000016781368142505240610000006710632971065166991_"
					gradientUnits="userSpaceOnUse" x1="-4494.6758" y1="35.1373" x2="-4483.896" y2="35.1373"
					gradientTransform="matrix(1 0 0 -1 4690.626 658)">
					<stop offset="0" style="stop-color:#FEBBBA" />
					<stop offset="1" style="stop-color:#FF928E" />
				</linearGradient>
				<path style="fill:url(#SVGID_00000016781368142505240610000006710632971065166991_);" d="M195.95,618.71l1.01,8.51
				c0,0,5.8,2.7,9.77-0.34l-2.4-9.48L195.95,618.71z" />
				<path class="st16" d="M196.71,458.75c-0.44,2.22-2.34,110.88,9.27,159.57c0.19,0.79-0.21,1.61-0.97,1.92
				c-1.78,0.73-5.27,1.78-9.46,1.92c-1.3,0.04-2.46-0.8-2.82-2.04c-3.32-11.3-19.23-67.9-21.3-121.97c-2.32-60.42,0-2.06,0-2.06
				l1.36-37.35L196.71,458.75z" />
				<path class="st11" d="M158.86,626.6c0,0-2,3.59-3.94,13.13c-0.35,1.72,0.85,3.37,2.6,3.54c3.1,0.3,7.86,0.7,11.68,0.67
				c1.76-0.01,3.13-1.54,2.92-3.29c-0.42-3.48-1.74-9.2-5.81-13.65L158.86,626.6z" />

				<linearGradient id="SVGID_00000137115627128044639630000004797549116357002883_"
					gradientUnits="userSpaceOnUse" x1="-4533.5161" y1="35.6833" x2="-4524.2061" y2="35.6833"
					gradientTransform="matrix(1 0 0 -1 4690.626 658)">
					<stop offset="0" style="stop-color:#FEBBBA" />
					<stop offset="1" style="stop-color:#FF928E" />
				</linearGradient>
				<path style="fill:url(#SVGID_00000137115627128044639630000004797549116357002883_);" d="M157.11,615.66l2.36,12.87
				c0,0,2.33,1.73,6.95,0.48l-1.13-13.84L157.11,615.66z" />
				<path class="st16" d="M150.74,462.09c-9.5,57.33,2.06,141.69,5.96,158.2c0.24,1.01,1.05,1.79,2.08,1.96
				c1.74,0.29,4.61,0.52,7.43-0.3c0.97-0.28,1.66-1.16,1.7-2.17c0.52-13.35-0.42-95.3,8.43-127.69c0.45-1.64,1.45-3.07,2.84-4.06
				l17.18-12.21l1.32-19.74L150.74,462.09z" />
				<g>
					<path class="st11" d="M211.26,353.46c-28.47-0.47-59.88,7.47-59.88,7.47c-8.49,49.51-1.48,106.62-1.48,106.62
					c22.04,5.78,46.9-3.53,46.9-3.53c3.66-20.69,20.75-78.94,20.75-78.94c13.91-1.73,25.37-5.74,34.8-11.04
					c-7.2-8.34-10.59-18.96-12.06-25.23C230.23,351.94,220.04,353.61,211.26,353.46z" />
					<path class="st26" d="M295.35,311.53c-2.8-3.38-6.34-1.78-6.34-1.78c-4.19,17.7-26.15,32.04-48.72,39.06
					c1.47,6.28,4.87,16.89,12.06,25.23C289.81,352.99,295.35,311.53,295.35,311.53z" />
				</g>
				<g>
					<path class="st26" d="M294.67,312.39c0.29,0.93-3.1,2.35-5.09-1.46c-0.07-1.82-1.18-9.63-0.09-11.12
					c5.8-7.91,17.05-17.83,17.05-17.83c1.9,1.88,0.33,3.72,0.33,3.72l-5.46,5.69c1.14,2.06,2.53,3.8,3.19,6.3
					c0.49,1.89,0.19,3.91-0.76,5.63c-0.96,1.73-2.27,3.97-3.5,5.73C298.01,312.37,294.67,312.39,294.67,312.39z" />
					<path class="st26" d="M299.03,295.08l-4.97,4.22l-1.56,4.2l4.43,4.92c0,0,1.49-8.33,2.6-10.13
					C300.64,296.48,300.07,295.61,299.03,295.08z" />
				</g>
				<path class="st11" d="M162.31,388.5l-10.92-27.56c0,0-26.59,18.07-30.96,40.97c5.02,0.37,14.17,1.68,23.11,6.2
				C145.51,397.29,162.31,388.5,162.31,388.5z" />
				<path class="st26" d="M185.54,414.44c0,0-29.85,16.87-39.93,2.47c-2.09-2.99-2.59-5.96-2.08-8.8c-8.95-4.52-18.09-5.83-23.11-6.2
				c-1.32,6.91-0.62,14.25,3.44,21.67c17.64,32.28,65.63-1.78,65.63-1.78L185.54,414.44z" />
				<g>
					<path class="st16" d="M181.96,435.79l16.29-56.9c0.18-0.65,0.74-1.12,1.4-1.19c2.95-0.34,11.51-1.31,21.38-2.15
					c11.9-1.01,25.71-1.82,33.97-1.13c1.17,0.1,1.88,1.34,1.36,2.4c-4.69,9.5-24,48.13-33.67,60.79c-0.32,0.42-0.82,0.66-1.34,0.66
					l-37.8-0.35C182.44,437.9,181.65,436.84,181.96,435.79z" />
					<path class="st27" d="M222.72,370.61l11.81-1.97c0.63-0.1,1.14,0.5,0.94,1.1l-1.17,3.54c-0.1,0.31-0.37,0.53-0.69,0.57
					l-11.37,1.52c-0.59,0.08-1.07-0.46-0.94-1.03l0.72-3.09C222.12,370.92,222.39,370.67,222.72,370.61z" />
					<path class="st27" d="M213.88,380.61l0.97-5.07c0.1-0.51,0.52-0.89,1.03-0.94l23.86-2.42c0.8-0.08,1.45,0.65,1.26,1.44
					l-1.52,6.32c-0.12,0.51-0.56,0.87-1.08,0.9L215.09,382C214.33,382.04,213.74,381.36,213.88,380.61z" />
					<path class="st28"
						d="M185.89,422.04c0,0-2.27-9.33-1.35-12.64c0.92-3.31,2.69-7.57,8.6-6.62s12.89,3.44,12.89,3.44
					s-0.35,4.31-4.85,2.92l2.79,2.16c0,0-0.4,3.45-4.19,1.61l2.59,2.86c0,0-1.63,2.84-4.42,1.02S193.81,423.16,185.89,422.04z" />
				</g>
				<path class="st26" d="M182.43,330.35l-9.06,26.19c-0.15,0.43,0.03,0.91,0.43,1.14c2.47,1.37,11.36,5.31,22.08-1.49
				c1.12-0.71,1.88-1.86,2.05-3.17l2.93-22.67H182.43z" />
				<g>
					<path class="st26" d="M202.71,303.3c0.27,0.38,8.78,30.05,8.78,30.05l-17.04,4.5l-12.25-26.92
					C182.2,310.92,198.14,296.96,202.71,303.3z" />
					<path class="st29" d="M188.97,312.92c-0.42,0.67-0.5,1.48-0.24,2.22l5.26,14.46c0.08,0.22,0.19,0.42,0.32,0.61
					c0.76,1.04,3.44,4.16,6.55,1.22c2.65-2.5,5.12-4.77,7.43-5.45c1.35-0.4,2.76,0.4,3.14,1.75c0.79,2.79,2.27,8.44,2.87,13.65
					c0.15,1.31-0.74,2.5-2.03,2.76c-3.4,0.67-10.09,1.77-15.77,1.46c-0.93-0.05-1.76-0.61-2.16-1.46
					c-1.75-3.72-6.69-14.14-8.54-16.87c-1.72-2.53-5.8-2.5-7.67-2.33c-0.71,0.06-1.41-0.17-1.94-0.65c-1.59-1.43-4.2-4.73-0.45-8.73
					c0.93-1,0.86-2.58-0.11-3.53c-1.75-1.71-3.44-4.6-0.59-8.21c2.89-3.65,6.7-3.29,9.19-2.48c1.1,0.36,2.36-0.01,3-0.98
					c0.28-0.43,0.74-0.76,1.48-0.76c1.39-0.01,2.51-1.06,2.5-2.45c0-2.38,0.91-5.3,4.97-6.61c7.44-2.39,12.16,4.77,12.67,10.15
					s-7.7,7.51-12.55,7.19C192.76,307.66,190.12,311.08,188.97,312.92z" />
					<path class="st28"
						d="M187.8,332.61c0,0-1.29-9.33-5.18-9.75s-7.64,2.81-3.73,8.01C183.76,337.35,187.8,332.61,187.8,332.61z" />
				</g>
			</g>
		</g>
	</g>
</svg>