<?xml version="1.0" encoding="utf-8"?>
<!-- Generator: Adobe Illustrator 26.3.1, SVG Export Plug-In . SVG Version: 6.00 Build 0)  -->
<svg version="1.1" id="Layer_1" xmlns="http://www.w3.org/2000/svg" xmlns:xlink="http://www.w3.org/1999/xlink" x="0px"
	y="0px" viewBox="0 0 771.68 656.44" style="enable-background:new 0 0 771.68 656.44;" xml:space="preserve">
	<style type="text/css">
		.st0 {
			fill: rgba(96, 96, 96, 0);
			stroke: rgba(73, 73, 73, 0);
			stroke-width: 2;
			stroke-miterlimit: 10;
		}

		.st1 {
			fill: #FFFFFF;
		}

		.st2 {
			fill: #E5E5E5;
		}

		.st3 {
			fill: #777777;
		}

		.st4 {
			fill: #C1C1C1;
		}

		.st5 {
			fill: none;
			stroke: #FFFFFF;
			stroke-width: 0.5;
			stroke-miterlimit: 10;
		}

		.st6 {
			fill: #D8D8D8;
		}

		.st7 {
			fill: #EDEDED;
		}

		.st8 {
			opacity: 0.25;
			clip-path: url(#SVGID_00000057847182653995293840000003588267878643861662_);
		}

		.st9 {
			opacity: 0.57;
			fill: #10A181;
		}

		.st10 {
			opacity: 0.57;
			fill: #DE3C4B;
		}

		.st11 {
			opacity: 0.57;
			fill: #1A72AD;
		}

		.st12 {
			fill: #FFC800;
		}

		.st13 {
			fill: none;
			stroke: #898989;
			stroke-width: 0.5;
			stroke-miterlimit: 10;
		}

		.st14 {
			fill: #F5F5F5;
		}

		.st15 {
			fill: #606060;
		}

		.st16 {
			opacity: 0.5;
			fill: #FFFFFF;
		}

		.st17 {
			fill: #444444;
		}

		.st18 {
			fill: none;
			stroke: #FFFFFF;
			stroke-width: 2;
			stroke-linecap: round;
			stroke-linejoin: round;
			stroke-miterlimit: 10;
		}

		.st19 {
			clip-path: url(#SVGID_00000155826675454394289570000003027855473455376523_);
			fill: #FFC800;
		}

		.st20 {
			clip-path: url(#SVGID_00000155826675454394289570000003027855473455376523_);
		}

		.st21 {
			fill: #DBDBDB;
		}

		.st22 {
			fill: none;
			stroke: #6B6B6B;
			stroke-width: 0.75;
			stroke-miterlimit: 10;
		}

		.st23 {
			clip-path: url(#SVGID_00000081627908715636921440000004166474320964027267_);
			fill: #FFC800;
		}

		.st24 {
			fill: #3F3F3F;
		}

		.st25 {
			fill: #474747;
		}

		.st26 {
			fill: #7A7A7A;
		}

		.st27 {
			fill: #FFB000;
		}

		.st28 {
			fill: none;
			stroke: #BCBCBC;
			stroke-miterlimit: 10;
		}

		.st29 {
			fill: #FFCE31;
		}

		.st30 {
			fill: #A8A8A8;
		}

		.st31 {
			fill: #4F4F4F;
		}

		.st32 {
			fill: #8F8F8F;
		}

		.st33 {
			fill: #8A8A8A;
		}

		.st34 {
			fill: none;
			stroke: #8A8A8A;
			stroke-width: 7.5904;
			stroke-miterlimit: 10;
		}

		.st35 {
			fill: none;
			stroke: #8A8A8A;
			stroke-width: 6.8313;
			stroke-miterlimit: 10;
		}

		.st36 {
			fill: none;
			stroke: #FFC800;
			stroke-width: 6.0723;
			stroke-miterlimit: 10;
		}

		.st37 {
			fill: none;
			stroke: #8A8A8A;
			stroke-width: 6.0723;
			stroke-miterlimit: 10;
		}

		.st38 {
			fill: none;
			stroke: #606060;
			stroke-miterlimit: 10;
		}

		.st39 {
			fill: #F4F4F4;
		}

		.st40 {
			fill: #E8E8E8;
		}

		.st41 {
			fill: #C6C6C6;
		}

		.st42 {
			fill: #364154;
		}

		.st43 {
			fill: #FCB900;
		}

		.st44 {
			fill: #E2A100;
		}

		.st45 {
			opacity: 0.72;
			fill: #FFFFFF;
		}

		.st46 {
			fill: #B1B1B1;
		}

		.st47 {
			fill: url(#SVGID_00000074425360609670465940000013259167689451717524_);
		}

		.st48 {
			fill: url(#SVGID_00000090279676070844036060000008444943026067942822_);
		}

		.st49 {
			opacity: 0.9;
		}

		.st50 {
			fill-rule: evenodd;
			clip-rule: evenodd;
			fill: #FFFFFF;
		}

		.st51 {
			fill: #999999;
		}

		.st52 {
			fill: url(#SVGID_00000121279955822160271430000011229633759703583148_);
		}

		.st53 {
			fill: url(#SVGID_00000052076041861719534590000017756336640259498630_);
		}

		.st54 {
			fill: url(#SVGID_00000152230559400169621780000017012209112742193310_);
		}

		.st55 {
			fill: url(#SVGID_00000111893425833619199220000014368477133966837182_);
		}

		.st56 {
			fill: url(#SVGID_00000138551870410968287280000011321387011233124746_);
		}

		.st57 {
			fill: url(#SVGID_00000173152727981607598390000008068446863083286694_);
		}

		.st58 {
			fill: url(#SVGID_00000101101363014128028230000007730867522009738164_);
		}

		.st59 {
			fill: url(#SVGID_00000073690348397608841530000001315925518696443779_);
		}

		.st60 {
			fill: #FDAB95;
		}

		.st61 {
			fill: #D89A00;
		}

		.st62 {
			fill: #EF9D8E;
		}

		.st63 {
			fill: #131F2D;
		}

		.st64 {
			fill: url(#SVGID_00000134944830466576098280000005179972396964921731_);
		}

		.st65 {
			fill: #AAAAAA;
		}

		.st66 {
			fill-rule: evenodd;
			clip-rule: evenodd;
			fill: #4F4F4F;
		}

		.st67 {
			fill: none;
			stroke: #AAAAAA;
			stroke-miterlimit: 10;
		}

		.st68 {
			fill: #FFCE31;
			stroke: #919191;
			stroke-miterlimit: 10;
		}

		.st69 {
			fill: #BCBCBC;
		}

		.st70 {
			fill: none;
			stroke: #474747;
			stroke-miterlimit: 10;
		}

		.st71 {
			fill: none;
			stroke: #919191;
			stroke-width: 0.75;
			stroke-miterlimit: 10;
		}

		.st72 {
			fill: #919191;
		}
	</style>
	<rect x="-11779.83" y="-5472.79" class="st0" width="16383" height="16383" />
	<g>
		<g>
			<path class="st40" d="M637.89,543.71c-12.28,12.93-23.9,21.27-33.08,27.85c-107.92,77.43-235.61,54.86-262.75,49.35
			c-40.07-8.14-117.54-23.87-173.54-89.73c-84.73-99.64-71.54-256.62-5.81-360.25c12.02-18.95,75.52-124.16,204.59-141.03
			c78.11-10.21,169.16,10.38,235.1,65.62C740.81,211.48,730.95,445.73,637.89,543.71z" />
			<g>
				<g>

					<ellipse transform="matrix(0.7071 -0.7071 0.7071 0.7071 -117.2401 413.958)" class="st1" cx="441.07"
						cy="348.5" rx="199.99" ry="199.99" />
					<g>
						<circle class="st41" cx="441.07" cy="348.5" r="170.69" />
						<path class="st42"
							d="M441.07,522.8c-46.56,0-90.33-18.13-123.25-51.05c-32.92-32.92-51.05-76.69-51.05-123.25
						s18.13-90.33,51.05-123.25c32.92-32.92,76.69-51.05,123.25-51.05s90.33,18.13,123.25,51.05
						c32.92,32.92,51.05,76.69,51.05,123.25s-18.13,90.33-51.05,123.25C531.4,504.67,487.63,522.8,441.07,522.8z M441.07,181.43
						C348.95,181.43,274,256.38,274,348.5s74.95,167.07,167.07,167.07s167.07-74.95,167.07-167.07S533.19,181.43,441.07,181.43z" />
					</g>
					<g>

						<ellipse transform="matrix(0.7071 -0.7071 0.7071 0.7071 -117.2401 413.958)" class="st41"
							cx="441.07" cy="348.5" rx="104.06" ry="104.06" />
						<path class="st1" d="M441.07,456.17c-59.37,0-107.67-48.3-107.67-107.67s48.3-107.67,107.67-107.67
						c59.37,0,107.67,48.3,107.67,107.67S500.44,456.17,441.07,456.17z M441.07,248.06c-55.39,0-100.44,45.06-100.44,100.44
						c0,55.39,45.06,100.44,100.44,100.44s100.44-45.06,100.44-100.44C541.52,293.12,496.46,248.06,441.07,248.06z" />
					</g>
					<g>

						<ellipse transform="matrix(0.2567 -0.9665 0.9665 0.2567 -8.9629 685.3468)" class="st41"
							cx="441.07" cy="348.5" rx="40.32" ry="40.32" />
						<path class="st1" d="M441.07,392.43c-24.22,0-43.93-19.71-43.93-43.93s19.71-43.93,43.93-43.93
						c24.22,0,43.93,19.71,43.93,43.93S465.29,392.43,441.07,392.43z M441.07,311.8c-20.24,0-36.7,16.46-36.7,36.7
						c0,20.24,16.46,36.7,36.7,36.7s36.7-16.46,36.7-36.7C477.77,328.26,461.31,311.8,441.07,311.8z" />
					</g>
				</g>
			</g>
			<g>
				<path class="st43" d="M489.4,571.48l111.8-210.32H578.3c-4.22,0-6.55-4.82-3.87-8.03l119.16-142.61
				c5.16-6.18,15.37-2.26,14.89,5.72l-8.38,139.45c-0.48,7.98-7.69,13.93-15.78,13.02l-15.97-1.79l-110.93,235.9
				c-2.89,6.14-9.15,10.07-16.04,10.07h-38.45L489.4,571.48z" />
				<path class="st44" d="M396.96,423.97l78.93,172.17c4.68,10.2,15.01,16.76,26.39,16.76h40.69c5.4,0,10.37-2.88,12.99-7.51
				l1.45-2.56l0,0c-4.37,0-8.37-2.41-10.36-6.23L441.89,394.25L396.96,423.97z" />
				<path class="st43" d="M452.51,414.69L452.51,414.69c-7.91-6.14-19.48-4.33-25.07,3.91L311.4,589.81
				c-9.29,13.71-24.96,21.95-41.73,21.95h-16.33l-13.29-37.59c0,0,107.89-162.44,135.69-187.01c0,0,27.69-24.51,55-5.98
				c7.21,4.9,12.69,11.88,16.04,19.84L452.51,414.69z" />
				<path class="st44" d="M106.75,462.91c0,0,26.5-13.69,64.14-17.4c0,0,17.88,5.98,53.5,68.65c35.62,62.67,59.26,91.25,87,75.64
				l-2.3,3.74c-7.57,12.34-21.17,19.89-35.84,19.89h-15.34c-16.89,0-32.75-7.98-42.62-21.44
				C187.58,554.16,123.78,468.79,106.75,462.91z" />
				<path class="st45" d="M695.03,260.33c-0.04,0-0.08,0-0.13-0.01c-0.6-0.07-1.02-0.61-0.95-1.2l0.79-6.81
				c0.07-0.6,0.61-1.02,1.2-0.95c0.6,0.07,1.02,0.61,0.95,1.2l-0.79,6.81C696.04,259.92,695.57,260.33,695.03,260.33z" />
				<path class="st45" d="M595.56,346.28c-0.23,0-0.47-0.08-0.67-0.23c-0.47-0.37-0.55-1.05-0.18-1.52l98.4-125.54
				c1.15-1.47,3.09-1.97,4.83-1.26c1.73,0.71,2.71,2.36,2.5,4.2l-1.74,15.05c-0.07,0.6-0.61,1.02-1.2,0.95
				c-0.6-0.07-1.02-0.61-0.95-1.2l1.74-15.05c0.12-1.03-0.53-1.68-1.17-1.94c-0.67-0.28-1.62-0.26-2.29,0.59l-98.4,125.54
				C596.2,346.14,595.88,346.28,595.56,346.28z" />
				<path class="st45"
					d="M372.34,477.9c-0.21,0-0.43-0.06-0.61-0.19c-0.49-0.34-0.62-1.01-0.28-1.51l50.89-74.07
				c1.82-2.66,4.85-4.1,8.11-3.85c3.24,0.25,6,2.12,7.39,5c0.26,0.54,0.03,1.19-0.51,1.45c-0.54,0.26-1.19,0.03-1.45-0.51
				c-1.05-2.18-3.14-3.6-5.6-3.78c-2.48-0.19-4.77,0.9-6.15,2.91l-50.89,74.07C373.02,477.73,372.68,477.9,372.34,477.9z" />
				<path class="st45"
					d="M359.11,497.14c-0.21,0-0.43-0.06-0.61-0.19c-0.49-0.34-0.62-1.01-0.28-1.51l3.26-4.75
				c0.34-0.49,1.02-0.62,1.51-0.28c0.49,0.34,0.62,1.01,0.28,1.51l-3.26,4.75C359.8,496.98,359.46,497.14,359.11,497.14z" />
			</g>
			<g>
				<circle class="st46" cx="653.37" cy="437.86" r="46.55" />
				<g>

					<linearGradient id="SVGID_00000176723068114364905570000000256680821241100961_"
						gradientUnits="userSpaceOnUse" x1="628.3665" y1="442.5076" x2="641.4099" y2="442.5076">
						<stop offset="0" style="stop-color:#E3E3E3" />
						<stop offset="1" style="stop-color:#EFEFEF" />
					</linearGradient>
					<path style="fill:url(#SVGID_00000176723068114364905570000000256680821241100961_);" d="M641.41,424.17
					c0-1.28-1.04-2.32-2.32-2.32h-8.41c-1.28,0-2.32,1.04-2.32,2.32v36.67c0,1.28,1.04,2.32,2.32,2.32h8.41
					c1.28,0,2.32-1.04,2.32-2.32V424.17z" />

					<linearGradient id="SVGID_00000132056214456978898830000016801661008028991129_"
						gradientUnits="userSpaceOnUse" x1="644.3085" y1="435.9858" x2="678.3665" y2="435.9858">
						<stop offset="0" style="stop-color:#E3E3E3" />
						<stop offset="1" style="stop-color:#EFEFEF" />
					</linearGradient>
					<path style="fill:url(#SVGID_00000132056214456978898830000016801661008028991129_);" d="M669.88,421.86h-8.18v-9.89
					c0-3.21-1.89-5.33-5.11-5.33h-0.21c-3.21,0-5.82,2.36-5.82,5.57l-2.87,9.92c-1.28,0-3.39,0.91-3.39,2.19v38.01
					c0,1.28,3.18,3,4.46,3h1.8h19.31c4.81,0,8.49-4.58,8.49-9.39v-25.24C678.37,425.9,674.68,421.86,669.88,421.86z" />
				</g>
			</g>
			<g>
				<path class="st46" d="M170.1,239.22l81.55-1.34c5.85-0.1,10.44-5.06,10.07-10.91l-5.36-84.99c-0.31-4.89-4.03-8.88-8.89-9.53
				l-71.07-5.68c-6.8-0.9-21.15,7.62-20.07,14.4l3.48,89.39C160.59,235.61,164.99,239.3,170.1,239.22z" />
				<g class="st49">
					<path class="st1" d="M206.64,215.87c17.69,0,32.07-14.39,32.07-32.07s-14.39-32.07-32.07-32.07s-32.07,14.39-32.07,32.07
					S188.96,215.87,206.64,215.87z M206.64,157.1c14.72,0,26.7,11.98,26.7,26.7c0,14.72-11.98,26.7-26.7,26.7
					c-14.72,0-26.7-11.98-26.7-26.7C179.94,169.08,191.92,157.1,206.64,157.1z" />
					<path class="st50" d="M192.27,197.51h23.06c2.46,0,3.99-2.68,2.73-4.8l-11.53-19.43c-1.23-2.08-4.24-2.08-5.47,0l-11.53,19.43
					C188.28,194.83,189.8,197.51,192.27,197.51z" />
				</g>
			</g>
			<g>
				<circle class="st51" cx="288.16" cy="133.39" r="56.67" />
				<g>
					<path class="st1" d="M261.42,110.7c7.19-7.07,18.41-4.94,26.14,1.54c1.11,0.93,2.71,0.94,3.83,0.03
					c7.83-6.35,19.04-8.28,26.11-1.09c7.68,7.81,7.57,20.36-0.24,28.04l-26.13,25.69c-1.19,1.17-3.1,1.15-4.26-0.04l-25.69-26.13
					C253.51,130.93,253.61,118.37,261.42,110.7z" />
				</g>
			</g>
			<g>

				<linearGradient id="SVGID_00000168815732691460466850000014557006816607008949_"
					gradientUnits="userSpaceOnUse" x1="294.8943" y1="614.7856" x2="337.102" y2="614.7856">
					<stop offset="0" style="stop-color:#4F52FF" />
					<stop offset="1" style="stop-color:#4042E2" />
				</linearGradient>
				<path style="fill:url(#SVGID_00000168815732691460466850000014557006816607008949_);" d="M335.91,612.74
				c-7.23,0.62-19.78,1.64-29.67,2.08c-5.95,0.26-9.37-0.32-11.34-1.11c0,0.22,0.01,0.43,0.02,0.63c0.05,1.04,0.89,1.87,1.94,1.93
				c18.69,1.04,33.56,0.36,38.85,0.04c1.09-0.07,1.75-1.26,1.19-2.19C336.62,613.65,336.28,613.2,335.91,612.74z" />

				<linearGradient id="SVGID_00000074400563145529101500000009404522698689279152_"
					gradientUnits="userSpaceOnUse" x1="294.8919" y1="606.5135" x2="335.9101" y2="606.5135">
					<stop offset="0" style="stop-color:#09005D" />
					<stop offset="1" style="stop-color:#1A0F91" />
				</linearGradient>
				<path style="fill:url(#SVGID_00000074400563145529101500000009404522698689279152_);" d="M306.24,614.82
				c9.89-0.44,22.44-1.45,29.67-2.08c-7.11-8.72-29.67-14.6-29.67-14.6h-6.37c-4.38,6.32-5.02,12.33-4.97,15.57
				C296.87,614.5,300.29,615.08,306.24,614.82z" />

				<linearGradient id="SVGID_00000103972134235885592260000017190960181273865876_"
					gradientUnits="userSpaceOnUse" x1="298.791" y1="594.9644" x2="310.6801" y2="594.9644">
					<stop offset="0" style="stop-color:#FEBBBA" />
					<stop offset="1" style="stop-color:#FF928E" />
				</linearGradient>
				<path style="fill:url(#SVGID_00000103972134235885592260000017190960181273865876_);" d="M298.79,587.74l0.6,11.8
				c0.06,1.28,1.02,2.35,2.3,2.53c1.27,0.18,2.98,0.21,4.79-0.4c1.11-0.37,1.94-1.31,2.14-2.45l2.06-11.49H298.79z" />
				<g>

					<linearGradient id="SVGID_00000093173325784202308050000015063870445563423130_"
						gradientUnits="userSpaceOnUse" x1="219.5592" y1="625.2518" x2="235.7339" y2="625.2518">
						<stop offset="0" style="stop-color:#4F52FF" />
						<stop offset="1" style="stop-color:#4042E2" />
					</linearGradient>
					<path style="fill:url(#SVGID_00000093173325784202308050000015063870445563423130_);" d="M224.83,626.36
					c-3.14-0.57-4.55-2.67-5.15-4.92c0,0.02-0.01,0.04-0.01,0.06c-0.46,2.37,0.61,4.83,2.75,6c2.58,1.41,5.41,1.66,7.6,1.54
					c2.35-0.13,4.51-1.38,5.7-3.4l0.02-0.03C233.37,627.12,230.06,627.3,224.83,626.36z" />

					<linearGradient id="SVGID_00000030486845030633258990000014860039211051240603_"
						gradientUnits="userSpaceOnUse" x1="219.6769" y1="609.1561" x2="243.4181" y2="609.1561">
						<stop offset="0" style="stop-color:#09005D" />
						<stop offset="1" style="stop-color:#1A0F91" />
					</linearGradient>
					<path style="fill:url(#SVGID_00000030486845030633258990000014860039211051240603_);" d="M239.61,591.38h-5.26
					c-8.01-0.21-13.03,21.61-14.68,30.06c0.59,2.25,2.01,4.36,5.15,4.92c5.23,0.94,8.55,0.76,10.91-0.75
					c4.32-7.36,6.47-18.13,7.5-24.42C244.41,594.05,239.61,591.38,239.61,591.38z" />
				</g>

				<linearGradient id="SVGID_00000183971554448996268640000011592652124434705075_"
					gradientUnits="userSpaceOnUse" x1="232.0172" y1="588.7648" x2="246.2258" y2="588.7648">
					<stop offset="0" style="stop-color:#FEBBBA" />
					<stop offset="1" style="stop-color:#FF928E" />
				</linearGradient>
				<path style="fill:url(#SVGID_00000183971554448996268640000011592652124434705075_);"
					d="M235.03,580.42l-2.92,11.61
				c-0.36,1.42,0.32,2.9,1.64,3.57c1.63,0.84,3.93,1.72,6.04,1.46c0.99-0.12,1.82-0.82,2.15-1.76l4.28-12.21L235.03,580.42z" />

				<linearGradient id="SVGID_00000108277153206583781020000006984669914551867302_"
					gradientUnits="userSpaceOnUse" x1="346.9445" y1="435.4361" x2="225.6354" y2="634.152">
					<stop offset="0" style="stop-color:#09005D" />
					<stop offset="1" style="stop-color:#1A0F91" />
				</linearGradient>
				<path style="fill:url(#SVGID_00000108277153206583781020000006984669914551867302_);" d="M337.69,427.55
				c0,0-26.08,163.02-25.65,163.92c0,0-7.2,3.27-15.06,0.42c0,0,2.36-87.15,7.88-120.56c0,0-44.51,77.89-58.64,116.7
				c0,0-7.37-0.88-13.47-4.9c0,0,47.92-140.2,60.71-158.87L337.69,427.55z" />

				<linearGradient id="SVGID_00000127736779896130678200000008266680661765063088_"
					gradientUnits="userSpaceOnUse" x1="303.8828" y1="362.0418" x2="309.1839" y2="412.1609">
					<stop offset="0" style="stop-color:#09005D" />
					<stop offset="1" style="stop-color:#1A0F91" />
				</linearGradient>
				<path style="fill:url(#SVGID_00000127736779896130678200000008266680661765063088_);" d="M305.91,470.47
				c-0.14,0-0.28-0.04-0.41-0.12c-0.36-0.23-0.47-0.7-0.24-1.06l9.75-15.57c0.11-0.18,0.29-0.31,0.5-0.35l7.17-1.44
				c0.42-0.08,0.82,0.19,0.91,0.6c0.08,0.42-0.19,0.82-0.6,0.91l-6.85,1.38l-9.57,15.29C306.42,470.35,306.17,470.47,305.91,470.47z
				" />
				<path class="st60" d="M457.37,267.92c0,0-17.6,3.88-28.3,8.82c-2.13,0.98-3.82,2.7-4.79,4.81c-3.2,7.01-12.78,24.6-31.35,32.99
				c2.67,3.55,6.98,10.94,8.86,23.35c11.16-8.3,20.79-22.17,25.41-44.91c0,0,3.52,1.91,7.91-0.22c2.32-1.13,5-2.73,7.01-3.98
				c2-1.25,3.5-3.2,4.08-5.47c0.77-3,0.31-5.64,0.31-8.48l9.05-2.8C455.56,272.02,458.28,271,457.37,267.92z" />
				<path class="st43" d="M401.78,337.89c-1.88-12.41-6.18-19.8-8.86-23.35c-11.54,5.21-26.55,6.88-45.66,0.26
				c-1.76-0.61-3.6-0.97-5.46-1.08c-10.17-0.6-43.7-1.69-71.45,7.48c-5.84,1.93-10.57,6.25-13.01,11.84
				c-7.51,17.22-19.66,56.45,14.08,76.25c2.59-6.43,5.58-11.61,8.14-15.41c-5.43-9.16-7.04-21.68,2.6-37.97
				c7.03,18.98,10.33,46.67,11.02,58.93c0.23,4.04-0.48,8.06-2.06,11.79l-0.17,0.41c-0.34,0.8,0.13,1.71,0.98,1.9
				c18.99,4.27,38.74,3.11,44.64,2.62c1.05-0.09,1.93-0.84,2.17-1.86c9.23-38.91,9.26-65.45,6.99-82.23
				C354.37,349.4,380.78,353.52,401.78,337.89z" />
				<path class="st61" d="M345.77,348.52c-0.38,0-0.71-0.28-0.76-0.67c-2.17-16.38-6.59-23.53-6.63-23.6
				c-0.23-0.36-0.12-0.84,0.24-1.06c0.36-0.23,0.83-0.12,1.06,0.24c0.19,0.3,4.64,7.46,6.86,24.23c0.06,0.42-0.24,0.81-0.66,0.86
				C345.83,348.52,345.8,348.52,345.77,348.52z" />
				<path class="st62" d="M298.9,291.05c0,0-1.92,20.31-3.61,26.32c-0.26,0.91,0.14,1.87,0.97,2.35c2.87,1.64,9.76,4.32,19.17-0.3
				c1.53-0.75,2.44-2.34,2.37-4.02l-0.83-19.63L298.9,291.05z" />
				<g>
					<path class="st60" d="M317.39,265.07c0,0,6.14,14.12,6.56,21.52c0.41,7.41,2.01,12.22-6.56,13.71
					c-8.57,1.49-15.78-2.78-19.69-10.16c0,0-6.13-11.37-4.75-16.03C294.32,269.46,317.39,265.07,317.39,265.07z" />
					<path class="st63" d="M300.62,284.84l0.49-0.21c0.62-0.27,0.89-1.01,0.57-1.62c-1.21-2.33-3.56-7.68-0.52-8.93
					c3.92-1.61,19.45-4.77,22.8-10.29c3.22-5.3,0.37-12.13-3.92-14.08c-0.29-0.13-0.63-0.03-0.77,0.25l-0.36,0.68
					c-0.24,0.46-0.93,0.39-1.07-0.11c-0.14-0.48-0.78-0.58-1.05-0.15c-1.03,1.65-3.81,4.32-11.25,5.69
					c-10.57,1.95-17.55,6.23-17.73,13.53c-0.01,0.46-0.5,0.72-0.9,0.48c-0.78-0.48-2.03-0.7-3.7,0.7c-2.9,2.44-1.71,8.77,4.65,13.98
					c0.3,0.25,0.3,0.72-0.03,0.93c-1.15,0.75-2.87,2.54,1.58,4.92c4.61,2.46,8.05,2.26,9.37,2.04c0.33-0.05,0.54-0.37,0.47-0.7
					l-1.41-6.42c-0.08-0.36,0.2-0.71,0.57-0.71H300.62z" />

					<linearGradient id="SVGID_00000086688198592560054310000014086787363228783511_"
						gradientUnits="userSpaceOnUse" x1="314.3181" y1="271.799" x2="279.1917" y2="298.6761">
						<stop offset="0" style="stop-color:#FEBBBA" />
						<stop offset="1" style="stop-color:#FF928E" />
					</linearGradient>
					<path style="fill:url(#SVGID_00000086688198592560054310000014086787363228783511_);" d="M300.89,286.19
					c0,0-2.34-9.02-6.39-6.49c-4.04,2.53,2.1,10.1,5.35,10.44L300.89,286.19z" />
				</g>
				<path class="st62" d="M431.89,290.88c-0.17,0-0.34-0.06-0.49-0.17c-0.33-0.27-0.38-0.75-0.11-1.08c0.67-0.82,6.57-8.04,8.85-9.32
				c0.83-0.47,1.32-0.95,1.43-1.4c0.05-0.21,0.02-0.45-0.1-0.72l-6.94,1.39l-3.93,3.37c-0.32,0.28-0.81,0.24-1.09-0.08
				c-0.28-0.32-0.24-0.81,0.08-1.09l4.08-3.5c0.1-0.09,0.22-0.14,0.35-0.17l7.68-1.54c0.31-0.06,0.62,0.07,0.79,0.32
				c0.56,0.84,0.75,1.61,0.57,2.37c-0.21,0.9-0.92,1.68-2.17,2.38c-1.71,0.97-6.65,6.79-8.41,8.96
				C432.33,290.78,432.11,290.88,431.89,290.88z" />
				<path class="st60" d="M300.59,419.05l27.16,0.34l-9.51-8.95c-2.36-2.22-5.97-2.58-8.7-0.82c-1.6,1.04-3.33,2.44-4.83,4.3
				c0,0-16.94-6.19-25.16-20.04c-2.56,3.8-5.55,8.97-8.14,15.41C278.79,413.61,288.33,417.01,300.59,419.05z" />
				<g>
					<path class="st42" d="M303.52,422.56c0.05,0,0.11,0,0.16,0l68.94-0.07c1.7,0,3.08-1.37,3.08-3.06c0-1.69-1.39-3.08-3.09-3.05
					l-68.94,0.07c-1.7,0-3.08,1.37-3.08,3.06C300.59,421.14,301.89,422.48,303.52,422.56z" />
					<path class="st42" d="M434.59,360.62h-57.42c-4.24,0-8.09,2.42-9.9,6.21l-26.54,55.69h71.35c2.73,0,5.18-1.65,6.19-4.16
					l20.58-51.53C440.05,363.85,437.83,360.62,434.59,360.62z" />

					<ellipse transform="matrix(0.313 -0.9497 0.9497 0.313 -97.1971 646.7178)" class="st41" cx="398.45"
						cy="390.55" rx="7.28" ry="4.52" />
				</g>
			</g>
		</g>
	</g>
</svg>