<?xml version="1.0" encoding="UTF-8"?>
<svg id="Layer_1" data-name="Layer 1" xmlns="http://www.w3.org/2000/svg" viewBox="0 0 320.45 279.64">
	<defs>
		<style>
			.cls-1 {
				fill: #ffc800;
			}

			.cls-2 {
				fill: #8a8a8a;
			}
		</style>
	</defs>
	<g>
		<g>
			<path class="cls-1"
				d="M128.76,174.48c-4,0-8.07,.8-11.98,2.5-15.23,6.64-22.22,24.37-15.61,39.59,4.93,11.33,16,18.11,27.63,18.11,4,0,8.07-.8,11.97-2.5,15.24-6.62,22.21-24.35,15.6-39.58-4.92-11.35-15.99-18.12-27.61-18.12Zm9.62,52.19c-3.06,1.33-6.28,2-9.58,2-9.6,0-18.28-5.69-22.11-14.5-5.28-12.16,.32-26.37,12.49-31.68,3.05-1.32,6.27-2,9.57-2,9.6,0,18.27,5.69,22.09,14.5,5.3,12.19-.3,26.4-12.46,31.68Z" />
			<path class="cls-2"
				d="M128.77,154.68c-27.52,0-49.91,22.39-49.91,49.91s22.39,49.9,49.91,49.9,49.91-22.39,49.91-49.9-22.39-49.91-49.91-49.91Zm0,93.8c-24.2,0-43.89-19.69-43.89-43.89s19.69-43.9,43.89-43.9,43.89,19.69,43.89,43.9c0,24.2-19.69,43.89-43.89,43.89Z" />
		</g>
		<path class="cls-2"
			d="M198.65,217.38l-6.67-5.81,2.3-5.82,.91-2.31-.99-2.28-2.48-5.73,6.47-6.03,3.11-2.9-1.7-3.9-6.44-14.79-1.7-3.9-4.24,.3-8.81,.61-2.49-5.74-.99-2.29-2.32-.92-5.82-2.3,.28-8.84,.13-4.23-3.94-1.55-14.94-5.89-3.95-1.56-2.79,3.2-5.82,6.66-5.82-2.3-2.31-.91-2.28,.99-5.75,2.49-6.05-6.46-2.9-3.09-3.89,1.68-14.77,6.4-3.91,1.69,.3,4.25,.62,8.81-5.73,2.49-2.29,.99-.91,2.32-2.3,5.84-8.85-.3-4.24-.14-1.56,3.95-5.89,14.95-1.56,3.95,3.2,2.79,6.66,5.81-2.29,5.83-.91,2.32,1,2.29,2.5,5.73-6.48,6.04-3.11,2.9,1.7,3.9,6.43,14.77,1.7,3.9,4.24-.3,8.81-.62,2.5,5.74,.99,2.28,2.32,.91,5.83,2.3-.3,8.83-.15,4.24,3.95,1.56,14.96,5.91,3.95,1.56,2.79-3.2,5.81-6.67,5.81,2.3,2.32,.92,2.29-.99,5.74-2.49,6.05,6.45,2.9,3.09,3.89-1.69,14.76-6.41,3.9-1.69-.29-4.24-.61-8.8,5.74-2.49,2.28-.99,.91-2.32,2.31-5.85,8.86,.28,4.24,.13,1.55-3.95,5.88-14.95,1.55-3.95-3.2-2.76Zm-9.83,19.49l-13.09-.42-3.86,9.78-9.63,4.19,.9,13.04-14.76,6.41-8.95-9.54-9.63,4.17-9.77-3.87-8.61,9.88-14.96-5.91,.45-13.08-9.78-3.86-4.19-9.64-13.05,.92-6.43-14.77,9.59-8.94-4.21-9.63,3.84-9.77-9.85-8.6,5.89-14.95,13.1,.44,3.85-9.79,9.64-4.19-.92-13.06,14.77-6.4,8.95,9.55,9.64-4.18,9.77,3.85,8.61-9.86,14.94,5.89-.41,13.07,9.76,3.85,4.18,9.64,13.05-.91,6.44,14.79-9.57,8.92,4.17,9.63-3.85,9.77,9.87,8.6-5.89,14.98Z" />
		<g>
			<path class="cls-1"
				d="M53.42,81.08c-2.75,0-5.54,.55-8.22,1.71-10.46,4.56-15.25,16.73-10.71,27.18,3.38,7.78,10.98,12.43,18.96,12.43,2.75,0,5.54-.55,8.22-1.72,10.46-4.54,15.24-16.71,10.71-27.17-3.39-7.78-10.99-12.43-18.96-12.43Zm5.85,34.09c-1.86,.81-3.82,1.22-5.82,1.22-5.84,0-11.12-3.46-13.45-8.82-3.21-7.39,.2-16.04,7.6-19.26,1.85-.8,3.81-1.21,5.82-1.21,5.84,0,11.11,3.46,13.43,8.82,3.21,7.4-.19,16.04-7.58,19.25Z" />
			<path class="cls-2"
				d="M53.43,65.6c-19.93,0-36.14,16.21-36.14,36.15s16.21,36.14,36.14,36.14,36.14-16.21,36.14-36.14c0-19.93-16.22-36.15-36.14-36.15Zm0,66.27c-16.61,0-30.13-13.51-30.13-30.12s13.52-30.13,30.13-30.13,30.13,13.52,30.13,30.13c-.01,16.61-13.52,30.12-30.13,30.12Z" />
		</g>
		<path class="cls-2"
			d="M65.34,56.49l10.26,4.04-.28,8.97,6.7,2.64,2.87,6.62,8.96-.63,4.42,10.15-6.57,6.13,2.86,6.61-2.65,6.71,6.77,5.9-4.04,10.26-8.98-.29-2.65,6.72-6.61,2.87,.62,8.95-10.13,4.4-6.14-6.55-6.61,2.86-6.7-2.65-5.91,6.78-10.27-4.05,.31-8.98-6.72-2.65-2.88-6.62-8.96,.63-4.41-10.14,6.58-6.14-2.89-6.61,2.64-6.71-6.76-5.9,4.05-10.27,8.99,.3,2.64-6.72,6.61-2.87-.63-8.96,10.14-4.39,6.14,6.55,6.62-2.87,6.7,2.65,5.91-6.74m-1.74-7.15l-2.79,3.19-3.12,3.57-2.76-1.09-2.31-.91-2.28,.99-2.73,1.18-3.25-3.46-2.9-3.09-3.89,1.68-10.14,4.39-3.91,1.69,.3,4.25,.33,4.72-2.71,1.18-2.29,.99-.91,2.32-1.09,2.77-4.74-.16-4.24-.14-1.56,3.95-4.05,10.27-1.56,3.95,3.2,2.79,3.57,3.11-1.09,2.76-.91,2.32,1,2.29,1.18,2.71-3.47,3.23-3.11,2.9,1.7,3.9,4.41,10.14,1.7,3.9,4.24-.3,4.72-.33,1.18,2.71,.99,2.28,2.32,.91,2.77,1.09-.16,4.73-.15,4.24,3.95,1.56,10.27,4.05,3.95,1.56,2.79-3.2,3.11-3.57,2.75,1.09,2.32,.92,2.29-.99,2.72-1.18,3.25,3.46,2.9,3.09,3.89-1.69,10.13-4.4,3.9-1.69-.29-4.24-.33-4.71,2.72-1.18,2.28-.99,.91-2.32,1.1-2.78,4.75,.15,4.24,.13,1.55-3.95,4.04-10.26,1.55-3.95-3.2-2.79-3.57-3.11,1.09-2.76,.91-2.31-.99-2.28-1.18-2.71,3.46-3.23,3.11-2.9-1.7-3.9-4.42-10.15-1.7-3.9-4.24,.3-4.72,.33-1.18-2.72-.99-2.29-2.32-.92-2.76-1.09,.15-4.74,.13-4.23-3.94-1.55-10.26-4.04-3.91-1.54h0Z" />
		<path class="cls-2"
			d="M320.45,91.47l-.45-4.23-2.03-18.9-.45-4.21-4.12-.99-10.88-2.62-.86-8.1-.26-2.48-1.94-1.57-6.34-5.12,3.69-10.58,1.39-4-3.29-2.66-14.75-11.92-3.3-2.67-3.62,2.22-9.54,5.85-6.33-5.13-1.94-1.57-2.48,.26-8.12,.86-4.86-10.09-1.84-3.82-4.21,.45-18.87,2-4.23,.45-.99,4.13-2.61,10.89-8.1,.86-2.48,.26-1.57,1.94-5.12,6.35-10.56-3.71-4.01-1.41-2.67,3.31-11.93,14.77-2.66,3.3,2.21,3.62,5.84,9.54-5.11,6.34-1.56,1.94,.26,2.47,.86,8.11-10.11,4.85-3.83,1.84,.45,4.22,2.01,18.89,.45,4.23,4.14,.99,10.89,2.6,.86,8.09,.26,2.47,1.93,1.56,6.35,5.14-3.71,10.55-1.41,4,3.3,2.67,14.75,11.93,3.3,2.67,3.62-2.22,9.55-5.86,6.34,5.13,1.94,1.57,2.48-.26,8.09-.85,4.86,10.1,1.84,3.82,4.22-.45,18.88-2.01,4.23-.45,.99-4.13,2.6-10.88,8.1-.86,2.48-.26,1.57-1.94,5.14-6.36,10.6,3.7,4,1.4,2.66-3.3,11.9-14.75,2.66-3.3-2.21-3.62-5.85-9.56,5.12-6.32,1.57-1.94-.26-2.48-.86-8.11,10.09-4.82,3.85-1.83Zm-20.36,3.06l1.31,12.34-7.79,9.62,8.06,13.18-11.9,14.75-14.59-5.09-7.8,9.65-12.33,1.31-3.59,15.01-18.88,2.01-6.7-13.92-12.3,1.3-9.65-7.8-13.18,8.08-14.75-11.93,5.11-14.56-9.65-7.8-1.31-12.32-15.03-3.58-2.01-18.89,13.94-6.69-1.31-12.34,7.77-9.64-8.05-13.15,11.93-14.77,14.57,5.12,7.79-9.65,12.33-1.31,3.6-15.03,18.87-2,6.7,13.9,12.33-1.3,9.63,7.81,13.17-8.08,14.75,11.92-5.08,14.57,9.63,7.78,1.31,12.32,15.01,3.62,2.03,18.9-13.94,6.66Z" />
		<g>
			<path class="cls-1"
				d="M291.31,84.3c-.67-14.95-7.01-28.88-17.86-39.23-10.82-10.32-24.97-16-39.86-16-.86,0-1.74,.02-2.61,.06-31.84,1.42-56.59,28.49-55.17,60.33,.67,14.95,7.01,28.88,17.86,39.23,10.82,10.32,24.97,16,39.86,16,.86,0,1.74-.02,2.61-.06,31.85-1.43,56.6-28.49,55.17-60.33Zm-55.43,54.31c-.78,.04-1.56,.05-2.34,.05-27.5,0-50.47-21.73-51.71-49.48-1.27-28.53,20.9-52.78,49.43-54.06,.78-.04,1.56-.05,2.34-.05,27.5,0,50.47,21.74,51.71,49.49,1.27,28.54-20.9,52.78-49.43,54.05Z" />
			<path class="cls-2"
				d="M233.61,51.35c-1.25,0-2.52,.07-3.8,.2-19.5,2.1-33.64,19.58-31.54,39.08,1.93,18.22,17.33,31.76,35.27,31.76,1.25,0,2.52-.07,3.79-.2,19.5-2.07,33.61-19.58,31.55-39.06-1.93-18.24-17.35-31.78-35.27-31.78Zm3.08,64.86c-1.05,.11-2.11,.17-3.15,.17-15.1,0-27.69-11.34-29.29-26.38-.84-7.84,1.42-15.52,6.37-21.65,4.95-6.13,12-9.97,19.84-10.81,1.04-.11,2.1-.17,3.15-.17,15.11,0,27.7,11.34,29.29,26.39,1.7,16.18-10.05,30.73-26.21,32.45Z" />
		</g>
	</g>
</svg>