<?xml version="1.0" encoding="UTF-8"?>
<svg id="Layer_1" data-name="Layer 1" xmlns="http://www.w3.org/2000/svg" viewBox="0 0 356.76 224.55">
  <defs>
    <style>
      .cls-1 {
        fill: #ffc800;
      }

      .cls-2 {
        fill: #8a8a8a;
      }

      .cls-3 {
        fill: #606060;
        stroke: #494949;
        stroke-miterlimit: 10;
        stroke-width: 2px;
      }
    </style>
  </defs>
  <rect class="cls-3" x="-5094.13" y="-6851.34" width="16383" height="16383"/>
  <g>
    <path class="cls-2" d="M205.84,15.77c-.07,0-.14,0-.21-.01h-.05c-.08-.01-.25-.02-.27-.03-1.55-.17-2.68-1.56-2.52-3.12,.16-1.55,1.5-2.69,3.09-2.54l.22,.02c1.56,.14,2.7,1.52,2.57,3.07-.13,1.48-1.36,2.6-2.82,2.6h-.01Z"/>
    <path class="cls-2" d="M115.13,135.89c-.2,0-.4-.02-.6-.06l-45.04-9.65c-1.36-.29-2.31-1.52-2.25-2.91l1.09-24.86c.05-1.1,.73-2.07,1.74-2.5l15.51-6.51c.79-.33,1.68-.29,2.43,.11l19.79,10.45c.69,.36,1.2,.99,1.41,1.74l8.65,30.58c.27,.96,.02,1.99-.66,2.72-.54,.57-1.3,.89-2.07,.89Zm-42.1-14.77l38.07,8.16-7.03-24.86-17.52-9.25-12.61,5.29-.91,20.66Z"/>
    <path class="cls-2" d="M272.4,150.65c-.97,0-1.88-.5-2.4-1.32-.53-.84-.59-1.9-.14-2.8l14.19-28.43c.35-.7,.97-1.22,1.71-1.45l21.39-6.58c.81-.25,1.7-.12,2.41,.35l14.03,9.28c.92,.61,1.4,1.69,1.25,2.78l-3.55,24.63c-.2,1.38-1.36,2.41-2.75,2.44l-46.05,1.1h-.09Zm16.19-28.92l-11.53,23.12,38.92-.93,2.95-20.47-11.41-7.55-18.93,5.83Z"/>
    <path class="cls-2" d="M194.98,115.55c-26.56-2.46-53.07-3.98-69.46-3.62l.11,4.49c16.26-.39,42.57,1.12,68.94,3.57,27.1,2.52,54.27,6.04,70.61,9.53l.94-4.39c-16.48-3.52-43.83-7.05-71.14-9.58Z"/>
    <path class="cls-2" d="M308.12,224.55h-24.71c-.75,0-1.48-.3-2.01-.83l-6.74-6.74c-.53-.53-.83-1.26-.83-2.01v-26.48l-214.37-20.12c-1.25-.12-2.27-1.04-2.52-2.27-6.25-30.84-3.61-52.45,.04-82.36,.12-1,.76-1.86,1.69-2.26l14.27-6.22-23.7-4.84c-.69-.14-1.3-.53-1.72-1.09l-3.57-4.82c-.42-.56-.61-1.26-.55-1.96l.76-8.11c.3-3.22,2.73-5.9,5.91-6.52l27.26-5.28c1.98-.37,4.04,.07,5.67,1.24s2.72,2.99,2.99,4.98l.81,6L111.69,2.48c.45-.94,1.38-1.57,2.42-1.62,30.34-1.59,61.12-.98,91.45,1.82l1.11,.09c30.66,2.88,61.38,8.04,91.3,15.35,1.01,.25,1.81,1.03,2.08,2.04l14.71,56.1,1.91-5.75c.63-1.91,2.04-3.49,3.87-4.33,1.82-.85,3.94-.91,5.8-.17l25.8,10.26h0c3.01,1.2,4.9,4.28,4.59,7.5l-.76,8.12c-.07,.7-.39,1.35-.9,1.82l-4.41,4.07c-.52,.48-1.19,.75-1.89,.76l-24.18,.35,12.86,8.77c.83,.57,1.3,1.53,1.24,2.54-1.98,30.07-3.4,51.79-15.29,80.93-.47,1.16-1.67,1.88-2.9,1.76l-2.82-.26v22.36c0,.75-.3,1.48-.83,2.01l-6.74,6.74c-.51,.51-1.24,.81-1.99,.81Zm-23.53-5.69h22.35l5.07-5.07v-24.3c0-.8,.34-1.56,.93-2.1s1.39-.81,2.18-.73l3.81,.36c10.61-26.81,12.14-47.55,13.98-75.58l-17.15-11.69c-.57-.39-.98-.96-1.15-1.63l-.33-1.25c-.22-.85-.04-1.75,.49-2.44,.53-.7,1.35-1.11,2.22-1.12l30.61-.44,2.81-2.59,.66-7.03c.07-.72-.36-1.42-1.03-1.69l-25.8-10.26c-.42-.17-.89-.15-1.3,.04-.41,.19-.73,.54-.87,.97l-4.94,14.83c-.4,1.2-1.55,1.97-2.79,1.94-1.26-.04-2.34-.9-2.66-2.12l-16.7-63.71c-29.14-7.03-59.01-12.01-88.84-14.81l-1.11-.09c-29.49-2.71-59.4-3.35-88.93-1.89l-28.27,59.49c-.54,1.14-1.77,1.77-3.01,1.59-1.24-.19-2.21-1.18-2.38-2.43l-2.09-15.48c-.06-.45-.3-.85-.67-1.12-.37-.26-.83-.37-1.28-.28l-27.26,5.28c-.71,.14-1.26,.74-1.33,1.46l-.66,7.03,2.28,3.07,30,6.13c.86,.18,1.59,.74,1.98,1.52s.4,1.7,.02,2.49l-.56,1.17c-.29,.62-.8,1.11-1.43,1.38l-19.02,8.29c-3.4,27.87-5.76,48.54-.33,76.86l214.83,20.17c1.46,.14,2.58,1.36,2.58,2.83v27.89l5.09,5.06Z"/>
    <path class="cls-2" d="M299.67,93.49c-.21,0-.43-.02-.64-.07-8.5-1.95-17.2-3.75-25.84-5.34-12.29-2.27-24.51-4.15-37.36-5.76-11.65-1.46-23.5-2.64-36.23-3.63l-1.19-.12c-25.99-2.84-49.94-4.26-73.25-4.36-8.69-.04-17.47,.11-26.08,.44-.92,.07-1.83-.39-2.39-1.14s-.72-1.73-.42-2.61L116.58,10.77c.37-1.1,1.38-1.87,2.54-1.93,11.32-.62,22.41-.97,32.97-1.02,10.76-.05,21.48,.18,31.85,.71,6.97,.35,14.01,.85,20.94,1.47l.84,.07c.06,0,.11,.01,.17,.01,.04,0,.07,.01,.11,.01h.01c4.76,.45,9.95,1.04,15.85,1.78,19.26,2.42,38.47,5.87,58.72,10.53,3.64,.84,7.31,1.71,11.01,2.63,1.13,.28,1.98,1.22,2.14,2.37l8.76,62.86c.13,.93-.21,1.86-.89,2.49-.54,.48-1.23,.74-1.93,.74Zm-177.01-24.98c.84,0,1.68,0,2.52,0,23.51,.1,47.66,1.53,73.84,4.39l.46,.05,.29,.03,.37,.04c12.72,.98,24.66,2.18,36.39,3.65,12.96,1.62,25.29,3.52,37.69,5.81,7.36,1.36,14.76,2.87,22.05,4.49l-7.93-56.88c-3.03-.74-6.05-1.46-9.05-2.15-20.06-4.62-39.08-8.03-58.16-10.43-5.83-.73-10.94-1.31-15.64-1.76h-.04l-1.1-.09c-6.85-.62-13.82-1.11-20.72-1.46-10.26-.52-20.86-.75-31.52-.7-9.87,.05-20.21,.36-30.77,.91l-18.37,54.41c6.54-.22,13.13-.32,19.69-.32Z"/>
    <path class="cls-2" d="M115.13,135.89c-.2,0-.4-.02-.6-.06l-45.04-9.65c-1.36-.29-2.31-1.52-2.25-2.91l1.09-24.86c.05-1.1,.73-2.07,1.74-2.5l15.51-6.51c.79-.33,1.68-.29,2.43,.11l19.79,10.45c.69,.36,1.2,.99,1.41,1.74l8.65,30.58c.27,.96,.02,1.99-.66,2.72-.54,.57-1.3,.89-2.07,.89Zm-42.1-14.77l38.07,8.16-7.03-24.86-17.52-9.25-12.61,5.29-.91,20.66Z"/>
    <polygon class="cls-2" points="192.86 138.08 192.86 138.08 131.55 132.33 131.55 132.33 131.55 132.33 131.27 135.31 131.13 136.8 192.45 142.56 255.97 148.52 256.39 144.04 192.86 138.08"/>
    <path class="cls-2" d="M259.56,134.26c-2.06-.37-4.82-.79-8.13-1.24-5.53-.75-12.6-1.6-20.57-2.48-7.97-.88-16.83-1.8-25.94-2.68-1.82-.18-3.65-.35-5.49-.53-1.83-.18-3.67-.35-5.51-.52h0c-1.79-.17-3.58-.33-5.37-.5-1.79-.16-3.57-.32-5.34-.48-23.01-2.05-44.24-3.62-53.01-3.71-.68,0-1.28,0-1.8,0l.11,4.49h0c.21,0,.45,0,.69,0h.35c1.73,0,4.09,.07,6.96,.21,1.92,.09,4.07,.21,6.41,.36,7.03,.44,15.82,1.1,25.42,1.89,8,.66,16.57,1.42,25.15,2.23h0c25.67,2.4,51.52,5.19,62.96,6.99,1.63,.26,2.97,.5,3.98,.71l.94-4.39c-.51-.1-1.12-.22-1.81-.34Z"/>
    <path class="cls-2" d="M196.04,104.28c-6.1-.56-12.2-1.04-18.32-1.42-18.34-1.16-36.72-1.54-55.08-1.12l.11,4.49h0c6.08-.14,12.15-.19,18.23-.16,18.24,.11,36.47,1,54.64,2.68h0c24.96,2.3,49.78,6.06,74.29,11.29l.94-4.39c-24.69-5.26-49.68-9.05-74.81-11.37Z"/>
    <path class="cls-2" d="M272.4,150.65c-.97,0-1.88-.5-2.4-1.32-.53-.84-.59-1.9-.14-2.8l14.19-28.43c.35-.7,.97-1.22,1.71-1.45l21.39-6.58c.81-.25,1.7-.12,2.41,.35l14.03,9.28c.92,.61,1.4,1.69,1.25,2.78l-3.55,24.63c-.2,1.38-1.36,2.41-2.75,2.44l-46.05,1.1h-.09Zm16.19-28.92l-11.53,23.12,38.92-.93,2.95-20.47-11.41-7.55-18.93,5.83Z"/>
    <path class="cls-1" d="M63.08,224.55H20.4c-1.57,0-2.84-1.27-2.84-2.84v-6.74c0-.75,.3-1.48,.83-2.01l6.74-6.74c.53-.53,1.26-.83,2.01-.83h5.02v-34.33h-2.89v16.73c0,1.57-1.27,2.84-2.84,2.84H2.84c-1.57,0-2.84-1.27-2.84-2.84v-6.74c0-1.57,1.27-2.85,2.84-2.85h14v-16.73c0-1.57,1.27-2.84,2.84-2.84h12.47v-8.79c0-1.57,1.27-2.84,2.85-2.84h13.48c1.57,0,2.84,1.27,2.84,2.84v19.65h31.26c1.57,0,2.85,1.27,2.85,2.84v6.74c0,.75-.3,1.48-.83,2.01l-6.74,6.74c-.53,.53-1.26,.83-2.01,.83h-24.52v16.74h5.02c.75,0,1.48,.3,2.01,.83l6.74,6.74c.53,.53,.83,1.26,.83,2.01v6.74c0,1.57-1.28,2.84-2.85,2.84Zm-39.83-5.69H60.24v-2.71l-5.07-5.07h-6.68c-1.57,0-2.84-1.27-2.84-2.84v-22.43c0-1.57,1.27-2.84,2.84-2.84h26.19l5.07-5.07v-2.72h-31.26c-1.57,0-2.84-1.27-2.84-2.84v-19.65h-7.79v8.79c0,1.57-1.27,2.84-2.84,2.84h-12.47v16.73c0,1.57-1.27,2.84-2.85,2.84H5.7v1.05H23.59v-16.73c0-1.57,1.27-2.85,2.85-2.85h8.58c1.57,0,2.84,1.27,2.84,2.85v40.02c0,1.57-1.27,2.84-2.84,2.84h-6.68l-5.07,5.07v2.72h-.02Z"/>
  </g>
</svg>