<?xml version="1.0" encoding="UTF-8"?>
<svg id="Layer_1" data-name="Layer 1" xmlns="http://www.w3.org/2000/svg" viewBox="0 0 365.68 336.85">
  <defs>
    <style>
      .cls-1 {
        fill: #ffc800;
      }

      .cls-2 {
        fill: #8f8f8f;
      }

      .cls-3 {
        fill: #606060;
        stroke: #494949;
        stroke-miterlimit: 10;
        stroke-width: 2px;
      }
    </style>
  </defs>
  <rect class="cls-3" x="-4926.22" y="-6874.57" width="16383" height="16383"/>
  <g>
    <path class="cls-2" d="M358.95,115.49l-16.51-4.96c-1.46-.44-3.04,.07-3.95,1.29l-15.38,20.28-74.95-16.76c-2.98-9.93-12.19-17.18-23.07-17.18-7.11,0-13.49,3.11-17.9,8.03l-79.89-17.85c-1.91-.43-3.81,.73-4.32,2.62l-3.6,13.55c-.26,.96-.11,1.98,.41,2.83,.51,.85,1.35,1.45,2.32,1.67l.74,.16v96.33c0,2.01,1.63,3.64,3.64,3.64s3.64-1.63,3.64-3.64V110.8l70.27,15.71-19.96,166.71h-48.02c-2.01,0-3.64,1.63-3.64,3.64v26.95c0,2.01,1.63,3.64,3.64,3.64h191.9c2.01,0,3.64-1.63,3.64-3.64v-26.95c0-2.01-1.63-3.64-3.64-3.64h-54.54l-18.6-155.36,66.44,14.86,2.96,31.5c.15,1.55,1.26,2.84,2.78,3.2l6.01,1.43v66.39c0,2.01,1.63,3.64,3.64,3.64s3.64-1.63,3.64-3.64v-64.65l3.81,.91c.28,.07,.57,.1,.85,.1,1.31,0,2.55-.71,3.2-1.91l20.73-38.22c.37-.68,.51-1.46,.41-2.22l-4.13-30.73c-.2-1.44-1.2-2.61-2.57-3.03Zm-158.87,74.99l47.36,14.89-53.13,33.3,5.77-48.19Zm52.48,20.27l6.83,57.07-61.42-22.85,54.59-34.22Zm-51.6-27.63l5.47-45.65c4.42,5.42,11.14,8.88,18.66,8.88s14.28-3.49,18.69-8.93l7.36,61.47-50.18-15.77Zm24.13-77.68c9.27,0,16.81,7.54,16.81,16.81,0,.96-.13,1.89-.28,2.81-.07,.37-.13,.75-.23,1.12-.09,.37-.23,.72-.34,1.09-.36,1.08-.8,2.15-1.38,3.19v.02c-2.89,5.1-8.3,8.59-14.57,8.59-8.83,0-16.01-6.87-16.68-15.53v-.03c-.02-.29-.05-.58-.13-1.25,0-1.03,.13-2.02,.3-3,.08-.42,.19-.83,.3-1.24,.13-.5,.28-.99,.46-1.47,.2-.54,.42-1.08,.68-1.61,.11-.24,.25-.46,.38-.69,.35-.63,.72-1.26,1.15-1.86,.01,0,0-.02,.01-.03,3.06-4.18,7.96-6.92,13.52-6.92Zm-95.97-9.24l73.85,16.51c-.43,.99-.78,2.02-1.07,3.07-.03,.11-.06,.23-.09,.35-.23,.87-.41,1.75-.54,2.65-.02,.14-.07,.28-.09,.43l-73.79-16.49,1.73-6.52Zm191.55,223.95H136.06v-19.66h184.6v19.66h0Zm-132.89-26.95l5.07-42.36,67.52,25.12,2.07,17.24h-74.66Zm151.65-109.45l-11.85-2.83-2.96-31.54c-.15-1.57-1.29-2.87-2.83-3.22l-71.53-16-.85-7.08,74.39,16.63c1.39,.31,2.84-.22,3.7-1.35l15.26-20.13,11.84,3.56,3.66,27.23-18.83,34.73Z"/>
    <path class="cls-1" d="M58.51,8.68c-2.76-2.75-5.14-5.13-6.67-7.03-1.22-1.52-3.31-2.06-5.11-1.31-1.81,.74-2.91,2.59-2.71,4.53l.26,2.42c.72,6.69,1.71,15.84,.57,20.46-1.75,7.06-6.42,12.24-11.37,17.72-4.11,4.55-8.36,9.25-11.25,15.32-11.24,23.58,8.29,37.69,21.21,47.03,.75,.54,1.66,.84,2.58,.84h26.33c1.98,0,3.71-1.31,4.24-3.22,.9-3.21,2.36-6.29,3.65-8.92,21.86-44.39-6.5-72.65-21.73-87.84Zm2.23,85.19c-.27,.59-.72,1.65-1.18,2.77h-5.42c-6.05-7.23-5.09-11.5-3.78-14.14,.87-1.75,2.13-3.17,3.58-4.81,2.2-2.49,4.7-5.3,6.01-9.67,.04-.13,.08-.27,.11-.41,3.9,5.66,6.49,13.48,.68,26.26Zm11.59-1.24c-1.06,2.14-2.21,4.56-3.18,7.21h-1.38c.37-.91,.75-1.78,.99-2.32,10.15-22.32-.51-34.37-6.23-40.83-.95-1.08-1.8-2-2.34-2.83-1.06-1.62-3.04-2.36-4.91-1.82-1.86,.54-3.15,2.23-3.18,4.16l-.02,1.29c-.03,2.55-.08,6.4-.56,8-.76,2.5-2.34,4.29-4.17,6.36-1.63,1.84-3.48,3.94-4.87,6.72-2.91,5.83-2.48,12.01,1.2,18.44-12.31-9.43-20.13-18.52-13.49-32.43,2.34-4.91,5.98-8.94,9.83-13.2,5.46-6.05,11.11-12.3,13.39-21.51,.9-3.61,.91-8.31,.6-13.23,14.71,14.75,36.66,38.75,18.32,75.99Z"/>
    <path class="cls-2" d="M113.9,323.02l-29.35-202.16h2.51c2.43,0,4.41-1.97,4.41-4.41s-1.98-4.41-4.41-4.41H28.89c-2.43,0-4.41,1.97-4.41,4.41s1.98,4.41,4.41,4.41h2.5L2.05,323.02c-.35,2.41,1.32,4.65,3.73,4.99,.22,.03,.43,.05,.64,.05,2.15,0,4.04-1.58,4.36-3.78l5.66-39H53.57v47.7c0,2.43,1.98,4.41,4.41,4.41s4.41-1.98,4.41-4.41v-47.7h37.13l5.66,39c.32,2.2,2.2,3.78,4.36,3.78,.21,0,.42-.02,.64-.05,2.4-.35,4.07-2.58,3.72-4.99ZM32.35,175.66l19.61,17.22-25.33,22.25,5.72-39.47Zm-8.13,56.02l26.59,18.11-32.42,22.09,5.83-40.2Zm29.34,44.78H27.3l26.26-17.89v17.89Zm0-35.46l-17.87-12.17h17.87v12.17Zm0-20.99h-19.15l19.15-16.82v16.82Zm0-37.46l-12.71-11.16h12.71v11.16Zm0-61.53v41.55h-19.32l6.06-41.72h13.3c-.01,.06-.04,.11-.04,.17Zm35.57,92.77l-23.82-20.92,18.43-16.18,5.39,37.1Zm-26.75,6.22v-17.98l20.47,17.98h-20.47Zm19.2,8.82l-19.2,13.08v-13.08h19.2Zm-19.2-45.12v-12.32h14.03l-14.03,12.32Zm-.04-62.86h13.29l6.06,41.72h-19.32v-41.55c.01-.06-.02-.11-.03-.17Zm.04,155.61v-18.79l27.59,18.79h-27.59Zm4.08-26.67l25.38-17.29,5.57,38.37-30.95-21.08Z"/>
  </g>
</svg>