<?xml version="1.0" encoding="UTF-8"?>
<svg id="Layer_1" data-name="Layer 1" xmlns="http://www.w3.org/2000/svg" viewBox="0 0 196.87 244.4">
  <defs>
    <style>
      .cls-1 {
        fill: none;
        stroke: #8a8a8a;
        stroke-width: 7.59px;
      }

      .cls-1,
      .cls-2 {
        stroke-miterlimit: 10;
      }

      .cls-3 {
        fill: #ffc800;
      }

      .cls-4 {
        fill: #8a8a8a;
      }
    </style>
  </defs>
  <g>
    <g>
      <path class="cls-4"
        d="M51.68,93.81c-.87,0-1.74,.42-2.22,1.18l-9.73,15.3-6.59-4.19c-.41-.26-.88-.38-1.35-.38-.87,0-1.74,.42-2.22,1.18-.74,1.16-.37,2.83,.79,3.56l8.72,5.54c.47,.25,.95,.37,1.41,.37,.19,0,.38-.02,.57-.06,.71-.16,1.29-.54,1.66-1.12l11.09-17.44c.82-1.18,.47-2.76-.79-3.56-.4-.25-.87-.38-1.34-.38h0Z" />
      <path class="cls-4"
        d="M45.26,64.98c-.87,0-1.74,.42-2.22,1.18l-9.73,15.31-6.59-4.19c-.41-.26-.88-.38-1.35-.38-.87,0-1.74,.42-2.22,1.18-.74,1.16-.37,2.83,.79,3.57l8.72,5.54c.46,.25,.9,.38,1.37,.38,.2,0,.4-.02,.61-.07,.71-.16,1.29-.54,1.66-1.12l11.09-17.44c.82-1.18,.45-2.84-.79-3.57-.4-.27-.87-.39-1.34-.39h0Z" />
      <path class="cls-4"
        d="M81.9,158.66c-.37,0-.74,.04-1.11,.12-2.77,.62-4.56,3.43-3.94,6.2,.53,2.4,2.72,4.06,5.09,4.06,.37,0,.74-.04,1.11-.12,2.77-.62,4.56-3.43,3.94-6.2-.53-2.4-2.71-4.06-5.09-4.06h0Z" />
      <path class="cls-3"
        d="M147.64,146.71c-.19,0-.39,.02-.59,.07l-50.55,11.25c-1.43,.32-2.29,1.67-1.97,3.1,.27,1.23,1.31,2.04,2.51,2.04,.19,0,.39-.02,.59-.07l50.55-11.25c1.43-.32,2.29-1.67,1.97-3.1-.27-1.23-1.31-2.04-2.51-2.04h0Z" />
      <path class="cls-4"
        d="M143.13,126.43c-.19,0-.39,.02-.59,.07l-65.68,14.62c-1.43,.32-2.29,1.67-1.97,3.1,.27,1.23,1.32,2.04,2.51,2.04,.19,0,.39-.02,.59-.07l65.68-14.62c1.43-.32,2.29-1.67,1.97-3.1-.28-1.23-1.32-2.04-2.51-2.04h0Z" />
      <path class="cls-3"
        d="M138.63,106.22c-.19,0-.39,.02-.59,.07l-65.68,14.62c-1.43,.32-2.29,1.67-1.97,3.1,.27,1.23,1.32,2.04,2.51,2.04,.19,0,.39-.02,.59-.07l65.68-14.62c1.43-.32,2.29-1.67,1.97-3.1-.27-1.23-1.31-2.04-2.51-2.04h0Z" />
      <path class="cls-4"
        d="M134.13,86.02c-.19,0-.39,.02-.59,.07l-65.68,14.62c-1.43,.32-2.29,1.67-1.97,3.1,.27,1.23,1.32,2.04,2.51,2.04,.19,0,.39-.02,.59-.07l65.68-14.62c1.43-.32,2.29-1.67,1.97-3.1-.27-1.23-1.31-2.04-2.51-2.04h0Z" />
      <path class="cls-3"
        d="M129.64,65.82c-.19,0-.39,.02-.59,.07l-65.68,14.62c-1.43,.32-2.29,1.67-1.97,3.1,.27,1.23,1.32,2.04,2.51,2.04,.19,0,.39-.02,.59-.07l65.68-14.62c1.43-.32,2.29-1.67,1.97-3.1-.28-1.23-1.32-2.04-2.51-2.04h0Z" />
      <path class="cls-4"
        d="M125.14,45.61c-.19,0-.39,.02-.59,.07l-65.68,14.62c-1.43,.32-2.29,1.67-1.97,3.1,.27,1.23,1.32,2.04,2.51,2.04,.19,0,.39-.02,.59-.07l65.68-14.62c1.43-.32,2.29-1.67,1.97-3.1-.27-1.23-1.32-2.04-2.51-2.04h0Z" />
      <path class="cls-3"
        d="M35.95,190.05c2.48,0,4.67,1.75,5.2,4.16l1.65,7.4,.08-.02,.64,2.86-10.46,2.33-2.28-10.26c-.3-1.35-.04-2.77,.73-3.99,.77-1.22,1.95-2.05,3.3-2.35,.38-.08,.76-.13,1.14-.13m0-7.59c-.92,0-1.86,.1-2.79,.31-6.89,1.53-11.33,8.51-9.79,15.4l3.93,17.67,25.27-5.63-3.93-17.67-.08,.02c-1.34-6.02-6.72-10.1-12.61-10.1h0Z" />
      <path class="cls-3"
        d="M68.39,7.59s.16,.01,.19,.16c1.05,4.7,5.12,7.98,9.92,7.98,.75,0,1.5-.08,2.24-.25l20.4-4.54,.03,.15,1.13,5.24-61.05,13.59-1.16-5.19-.04-.2,20.4-4.54c2.67-.59,4.94-2.18,6.4-4.47s1.93-5.02,1.34-7.69c-.01-.03-.02-.08,.03-.15s.1-.08,.12-.09c.02,0,.03,0,.05,0m0-7.59c-.56,0-1.13,.06-1.7,.19-4.2,.93-6.85,5.1-5.91,9.3,.32,1.43-.55,2.78-1.97,3.1l-27.81,6.19,1.69,7.61,2.8,12.6L111.31,22.11l-2.72-12.62-1.69-7.61-27.81,6.19c-.2,.04-.4,.07-.59,.07-1.19,0-2.24-.81-2.51-2.04-.81-3.63-4.03-6.1-7.6-6.1h0Z" />
      <path class="cls-3"
        d="M32.05,153.71l2.28,10.26c.3,1.37,.05,2.79-.71,4-.76,1.21-1.94,2.04-3.32,2.35-.38,.08-.77,.13-1.15,.13-2.48,0-4.7-1.76-5.28-4.2l-2.27-10.21,10.45-2.33m5.76-9.06l-25.27,5.63,3.93,17.67c1.4,5.95,6.75,10.08,12.68,10.08,.92,0,1.86-.1,2.8-.31,6.97-1.55,11.33-8.51,9.79-15.4l-3.93-17.67h0Z" />
      <path class="cls-1"
        d="M117.03,23.49c.32,1.43-.54,2.78-1.97,3.1L34.17,44.6c-1.43,.32-2.78-.54-3.1-1.97l-2.8-12.6L3,35.66l23.63,106.17,12.6-2.8,5.07-1.13c1.43-.32,2.78,.55,3.1,1.97,.32,1.43-.54,2.78-1.97,3.1l-2.54,.56,3.93,17.67c1.43,6.42-.81,12.82-5.19,17.04,5.84,1.94,10.5,6.81,11.93,13.23l3.93,17.67,2.54-.56c1.43-.32,2.78,.54,3.1,1.97s-.54,2.78-1.97,3.1l-5.07,1.13-12.6,2.8,4.5,20.2,136.43-30.37L139.42,5.28l-25.27,5.63,2.8,12.6,.08-.02Z" />
    </g>
    <path class="cls-3"
      d="M184.51,24.36c.29,0,.58,.02,.87,.05,1.85,.22,3.53,1.15,4.7,2.64s1.66,3.34,1.44,5.19l-.51,4.2-13.97-1.69,.51-4.2c.22-1.85,1.15-3.53,2.64-4.7,1.25-.98,2.76-1.49,4.32-1.49m0-5.31c-2.78,0-5.41,.91-7.6,2.62-2.59,2.03-4.24,4.96-4.64,8.24l-.51,4.2-.64,5.27,5.27,.64,13.97,1.69,5.27,.64,.64-5.27,.51-4.2c.4-3.28-.5-6.52-2.53-9.11-2.03-2.59-4.96-4.24-8.24-4.64-.49-.05-1-.08-1.5-.08h0Z" />
    <path class="cls-4"
      d="M175.65,45.91l13.97,1.69-5.19,42.77-8.11,8.42-5.82-10.15,5.15-42.73m-4.64-5.92l-.64,5.28-5.15,42.75-.21,1.75,.88,1.53,5.82,10.15,3.53,6.14,4.91-5.1,8.11-8.42,1.23-1.28,.21-1.76,5.19-42.77,.64-5.27-5.27-.64-13.97-1.69-5.28-.67h0Z" />
  </g>
</svg>