<?xml version="1.0" encoding="UTF-8"?>
<svg id="Layer_1" data-name="Layer 1" xmlns="http://www.w3.org/2000/svg" viewBox="0 0 216.51 234.46">
  <defs>
    <style>
      .cls-1 {
        stroke-width: 6.83px;
      }

      .cls-1,
      .cls-2 {
        stroke: #8a8a8a;
      }

      .cls-1,
      .cls-2,
      .cls-3 {
        fill: none;
      }

      .cls-1,
      .cls-2,
      .cls-3,
      .cls-4 {
        stroke-miterlimit: 10;
      }

      .cls-2,
      .cls-3 {
        stroke-width: 6.07px;
      }

      .cls-3 {
        stroke: #ffc800;
      }
    </style>
  </defs>
  <g>
    <path class="cls-1"
      d="M147.4,217.71h-63.17c-3.87,0-7.08-3.23-7.08-7.1v-16.43c0-6.44,4.2-12.56,9.99-15.14,2.24-.96,3.55-3.55,2.58-5.79l-6.13-15.48c-.65-1.93,.33-3.54,1.93-4.19l47.69-19.02c1.62-.64,2.91-1.6,3.55-3.22,.65-1.61,.65-3.22,0-4.84-1.29-3.22-4.84-4.5-7.73-3.53l-74.76,29c-2.27,.96-3.55,3.54-2.91,5.79l.95,2.58c.34,1.28,.34,2.26-.65,2.91-.64,.95-1.6,1.29-2.57,1.29-7.08-1.29-19.65-6.13-23.85-27.4-6.11-30.29,21.6-44.78,35.46-50.27,1.6-.64,3.22-.64,4.84,.33,1.93,.65,2.89,1.93,3.53,3.53l-2.25,1.29c-.97,.33-1.28,1.62-.97,2.58,.65,.65,.97,.97,1.93,.97,0,0,.33,0,.65-.32l2.26-.96c1.94,2.91,4.82,5.15,8.06,6.44l-.33,2.91c-.31,.95,.64,1.93,1.62,2.25h.31c.64,0,1.62-.96,1.62-1.61l.31-2.58c.98,.31,2.26,.31,3.22,.31,2.27,0,4.53-.31,6.46-1.29l1.6,2.91c.33,.65,.97,.95,1.62,.95h.95c.98-.31,1.29-1.6,.65-2.57l-1.6-2.89c2.88-1.93,4.82-4.52,6.11-7.1l2.26,.97c.34,.32,.65,.32,.98,.32,.64,0,1.29-.32,1.6-.96,.33-.98,.33-2.27-.65-2.58l-2.88-1.62c.31-.95,.31-2.24,.31-3.53,0-2.58-.31-4.84-1.29-6.77l1.93-.98c.98-.65,1.29-1.93,.65-2.57-.31-.95-1.6-1.29-2.24-.95l-1.96,1.29c-1.29-1.62-2.57-3.22-4.5-4.2-.65-.64-1.29-1.61-1.6-2.26l-21.27-46.71c-1.94-3.87-6.13-5.49-9.99-3.87-1.29,.64-2.58,0-3.22-1.29l-4.2-8.7c-1.29-2.91-4.5-3.86-7.41-2.58-2.57,1.29-3.87,4.51-2.57,7.42l3.87,8.05c.33,.64,.33,1.29,.33,1.93-.33,.64-.97,1.3-1.62,1.3-1.93,.95-3.22,2.57-3.87,4.51-.95,1.6-.95,3.86,0,5.79l6.44,14.5c.65,2.27-.31,4.84-2.57,5.8C30.43,62.08-6.62,85.28,2.39,137.14c4.84,25.77,18.69,37.39,29.97,43.18,6.11,2.57,9.66,8.7,9.66,15.14v14.5c0,4.2-3.22,7.42-7.42,7.42H18.5c-2.6,0-4.53,1.93-4.53,4.2v8.7H151.58v-8.39c.02-2.25-1.6-4.18-4.18-4.18h0Z" />
    <path class="cls-3"
      d="M85.28,77.06c4.25,0,7.43,3.19,7.43,7.44,0,3.98-3.18,7.16-7.43,7.16-3.99,0-7.17-3.19-7.17-7.16,0-4.26,3.18-7.44,7.17-7.44Z" />
    <path class="cls-3"
      d="M172.66,171.12c2.24,0,3.92,1.68,3.92,3.93,0,2.1-1.68,3.78-3.92,3.78-2.11,0-3.78-1.68-3.78-3.78-.01-2.24,1.67-3.93,3.78-3.93Zm-11.75-27.75c2.11,0,3.79,1.68,3.79,3.92,0,2.1-1.68,3.79-3.79,3.79s-3.92-1.68-3.92-3.79c0-2.24,1.82-3.92,3.92-3.92Zm0,13.45c3.37,0,6.31,2.81,6.31,6.31s-2.94,6.31-6.31,6.31-6.31-2.8-6.31-6.31c.01-3.5,2.81-6.31,6.31-6.31Zm35.12,39.69c-.84,1.26-2.38,2.11-3.92,2.11h-50.46c-1.55,0-2.94-.84-3.79-2.11-.84-1.4-.84-3.08-.14-4.48l6.03-10.79c.85-1.68,2.67-2.52,4.49-2.38,7.99,.7,17.1,7.71,25.09,7.29,4.35-.14,8.41-1.68,12.19-3.78,2.25-1.12,4.9-.42,6.17,1.82l4.35,7.85c.83,1.39,.83,3.07,0,4.47Z" />
    <path class="cls-2"
      d="M207.53,192.58l-23.83-44.15v-26.35c0-2.52-2.11-4.49-4.63-4.49h-24.39c-2.52,0-4.49,1.97-4.49,4.49v26.35l-23.82,44.15c-1.96,3.36-1.83,7.43,.14,10.79,1.96,3.22,5.47,5.33,9.39,5.33h62.09c3.78,0,7.43-2.11,9.25-5.33,1.97-3.36,2.11-7.42,.29-10.79Z" />
  </g>
</svg>