<svg xmlns="http://www.w3.org/2000/svg" viewBox="0 0 201.91 357.45">
    <defs>
        <style>
            .cls-1 {
                fill: #FFC800;
            }
        </style>
    </defs>
    <title>pich</title>
    <g id="Layer_2" data-name="Layer 2">
        <g id="Layer_1-2" data-name="Layer 1">
            <path class="cls-1"
                d="M104.87,344.78a15.28,15.28,0,0,1,7.19-29.23l2.47-10.17a15.32,15.32,0,0,1,7.17-29.33l2.56-10.15a15.3,15.3,0,0,1,7.12-29.34l2.46-10.15a15.27,15.27,0,0,1,7.27-29.28L143.58,187a15.28,15.28,0,0,1,7.22-29.34l2.45-10.11a15.29,15.29,0,0,1,7.21-29.39L169.6,80.8l19.9,4.83,12.41-51.1L145.7,20.88v0a15.34,15.34,0,0,1-29.81-7.21l0-.07L59.71,0,47.31,51.11l19.9,4.83L58.12,93.36A15.33,15.33,0,0,1,51,122.7l-2.46,10.13a15.31,15.31,0,0,1-7.12,29.32l-2.47,10.19a15.31,15.31,0,0,1-7.12,29.32L29.36,211.8a15.33,15.33,0,0,1-7.12,29.34l-2.47,10.17a15.33,15.33,0,0,1-7.12,29.34l-2.45,10.11a15.43,15.43,0,0,1,8.73,17.72A15.24,15.24,0,0,1,3.08,320.07L0,332.73l101.79,24.71Z" />
        </g>
    </g>
</svg>