<?xml version="1.0" encoding="iso-8859-1"?>
<!-- Uploaded to: SVG Repo, www.svgrepo.com, Generator: SVG Repo Mixer Tools -->
<svg height="800px" width="800px" version="1.1" id="Layer_1" xmlns="http://www.w3.org/2000/svg" xmlns:xlink="http://www.w3.org/1999/xlink" 
	 viewBox="0 0 512 512" xml:space="preserve">
<g>
	<path style="fill:#9ED9E6;" d="M309.227,208.727c-1.386,0-2.791-0.353-4.078-1.096l-31.835-18.381
		c-3.908-2.256-5.246-7.253-2.99-11.161c2.256-3.908,7.253-5.247,11.16-2.99l31.836,18.381c3.908,2.256,5.246,7.253,2.99,11.16
		C314.797,207.262,312.05,208.727,309.227,208.727z"/>
	<path style="fill:#9ED9E6;" d="M181.367,282.552c-4.512,0-8.17-3.658-8.17-8.17v-36.76c0-4.512,3.658-8.17,8.17-8.17
		c4.512,0,8.17,3.658,8.17,8.17v36.76C189.537,278.894,185.879,282.552,181.367,282.552z"/>
	<path style="fill:#9ED9E6;" d="M277.408,337.996c-2.824,0-5.57-1.465-7.083-4.086c-2.256-3.908-0.917-8.904,2.99-11.161
		l31.836-18.381c3.908-2.257,8.904-0.918,11.161,2.99c2.256,3.908,0.917,8.904-2.99,11.16L281.485,336.9
		C280.199,337.642,278.793,337.996,277.408,337.996z"/>
</g>
<path style="fill:#4BBCD6;" d="M371.484,198.759l91.439-52.793l-8.17-14.151l-91.438,52.793l-99.144-57.241V8.17
	c0-4.512-3.658-8.17-8.17-8.17c-4.512,0-8.17,3.658-8.17,8.17v119.198l-99.143,57.241l-91.437-52.792l-8.17,14.151l91.438,52.792
	v114.48l-91.438,52.792l8.17,14.151l91.438-52.792l99.143,57.24V503.83c0,4.512,3.658,8.17,8.17,8.17c4.512,0,8.17-3.658,8.17-8.17
	V384.632l99.143-57.241l91.437,52.792l8.17-14.151l-91.438-52.792V198.759z M256.001,370.481l-99.143-57.241V198.759l99.143-57.24
	l99.143,57.241V313.24L256.001,370.481z"/>
<g>
	<circle style="fill:#235C6D;" cx="363.314" cy="194.037" r="21.787"/>
	<circle style="fill:#235C6D;" cx="256.001" cy="132.085" r="21.787"/>
	<circle style="fill:#235C6D;" cx="148.688" cy="194.037" r="21.787"/>
</g>
<g>
	<circle style="fill:#127C8D;" cx="41.373" cy="132.085" r="21.787"/>
	<circle style="fill:#127C8D;" cx="41.373" cy="379.915" r="21.787"/>
	<circle style="fill:#127C8D;" cx="470.627" cy="132.085" r="21.787"/>
	<circle style="fill:#127C8D;" cx="470.627" cy="379.915" r="21.787"/>
</g>
<g>
	<circle style="fill:#235C6D;" cx="148.688" cy="317.952" r="21.787"/>
	<circle style="fill:#235C6D;" cx="256.001" cy="379.915" r="21.787"/>
	<circle style="fill:#235C6D;" cx="363.314" cy="317.952" r="21.787"/>
</g>
</svg>